<?xml version="1.0" encoding="UTF-8"?><svg id="uuid-3f09dfe1-7f53-4825-ad62-c9d5bb3749e7" xmlns="http://www.w3.org/2000/svg" viewBox="0 0 22.4 16"><g id="uuid-9adfffb8-3cd2-48a6-b1d1-2c461715dc93"><path d="M20.8,16H1.6c-.88,0-1.6-.72-1.6-1.6V1.6C0,.72.72,0,1.6,0h19.2c.88,0,1.6.72,1.6,1.6v12.8c0,.88-.72,1.6-1.6,1.6M1.6.8c-.44,0-.8.36-.8.8v12.8c0,.44.36.8.8.8h19.2c.44,0,.8-.36.8-.8V1.6c0-.44-.36-.8-.8-.8H1.6Z" style="fill:#231f20;"/><path d="M11.2,11.1c-.41,0-.82-.16-1.13-.47L2.12,2.68c-.16-.16-.16-.41,0-.57.16-.16.41-.16.57,0l7.95,7.95c.15.15.35.23.57.23s.41-.08.57-.23l7.95-7.95c.16-.16.41-.16.57,0,.16.16.16.41,0,.57l-7.95,7.95c-.31.31-.72.47-1.13.47" style="fill:#231f20;"/><path d="M20,14c-.1,0-.2-.04-.28-.12l-5.6-5.6c-.16-.16-.16-.41,0-.57.16-.16.41-.16.57,0l5.6,5.6c.16.16.16.41,0,.57-.08.08-.18.12-.28.12" style="fill:#231f20;"/><path d="M2.4,14c-.1,0-.2-.04-.28-.12-.16-.16-.16-.41,0-.57l5.6-5.6c.16-.16.41-.16.57,0,.16.16.16.41,0,.57l-5.6,5.6c-.08.08-.18.12-.28.12" style="fill:#231f20;"/></g></svg>