<?xml version="1.0" encoding="UTF-8"?><svg id="uuid-8c2e93c3-63f7-49bc-ac52-06eb8c1edce4" xmlns="http://www.w3.org/2000/svg" viewBox="0 0 47.61 47.08"><g id="uuid-934144fd-c535-40c4-9aa4-0d4f657c8a2e"><path d="M47.16,46.64H.45v-25.25h46.72v25.25ZM33.77,13.28h9.18l4.21,8.1H.45l4.21-8.1h8.91" style="fill:none; stroke:#000; stroke-linecap:round; stroke-linejoin:round; stroke-width:.89px;"/><line x1="34.33" y1="17.39" x2="13.28" y2="17.39" style="fill:none; stroke:#000; stroke-linecap:round; stroke-linejoin:round; stroke-width:.89px;"/><path d="M31.27,7.92c0,4.13-3.34,7.47-7.47,7.47s-7.47-3.34-7.47-7.47S19.68.45,23.8.45s7.47,3.34,7.47,7.47Z" style="fill:none; stroke:#000; stroke-linecap:round; stroke-linejoin:round; stroke-width:.89px;"/><path d="M21.82,9.79c.19-.11.33-.22.43-.31.1-.09.17-.21.22-.35.05-.14.08-.32.08-.54,0-.2-.01-.35-.03-.45h-.68v-.97h.57l-.06-.25c-.04-.16-.08-.35-.12-.57-.04-.22-.06-.39-.06-.52,0-.54.15-.95.45-1.21.3-.26.73-.39,1.29-.39s.99.17,1.25.52.38.85.38,1.5h-1.34c0-.26-.01-.46-.04-.59-.03-.13-.1-.2-.22-.2-.08,0-.14.02-.17.07-.03.05-.05.12-.06.2,0,.09,0,.17,0,.26v.05c0,.14.08.52.24,1.12h1.18v.97h-1.04l.04.56c-.01.24-.07.45-.18.63s-.25.32-.41.42h1.96v1.22h-3.69v-1.17Z" style="fill:#16a34c;"/><path d="M17.63,32.93s.92.86,1.02,1.14c.29.82.55,2.82.35,3.15-.36.57-1.34.7-1.69.76-.35.06-1.28-1.52-1.28-1.52,0,0,.17,1.63,1.46,3.03,1.28,1.4,2.1,1.81,2.1,1.81,0,0-1.08-1.2-1.28-1.92-.13-.45.6-1.23,1.22-1.52.64-.29,2.16.58,2.62.76.47.18,1.69,1.98,1.63,2.51-.06.52-.93.99-1.57.99s-1.22-.12-1.22-.12c0,0,1.11.82,3.55.7,2.45-.12,4.37-1.28,4.49-1.51.12-.23-1.09-.17-.67-.85.29-.47.64-1.17.64-1.17,0,0-.58.64-1.16,1.11-.58.47-2.65.9-3.06.55-.41-.35-1.22-1.46-1.43-2.36-.09-.41,1.25-1.89,1.49-2.13.23-.23,3.06-.96,2.77-.9-.7.14-2.62-.1-3.09-.7-.41-.52-1.16-1.44-.99-2.39.15-.85.29-1.52.58-2.16.07-.15-.93,1.46-1.57,1.86-.82.52-1.42.68-2.33.93-1.05.29-1.11.52-2.33-.99-.61-.75.56-2.45.82-2.68.55-.5,1.48-.73,2.77-1.19,0,0,.13-.12-.35,0-.84.2-1.98.5-2.45.23-.55-.32.29-1.22.76-1.51,0,0-2.02,1.25-3.09,3.79-1.22,2.91-.41,5.24-.41,5.24,0,0-.12-1.81.29-2.56.28-.53.61-.96,1.43-.38" style="fill:#231f20;"/><path d="M19.83,26.78c.71-.53,3.4-1.71,6.19-1.2,3.44.63,5.7,3.03,6.52,5.77.32,1.05.54,2.07.35,3.68-.41,3.43-2.48,5.4-3.24,5.88,0,0,2.18-2.28,1.42-6.2-.65-3.34-3.91-4.14-6.71-4.85-1.18-.3-1.44-1.83.53-1.47,1.96.36,2.62.74,2.93.44.48-.47-1.34-1.62-3.32-1.93-1.12-.18-2.68-.06-4.41.42-.8.22-.74-.17-.26-.53" style="fill:#16a34c;"/></g></svg>