<?xml version="1.0" encoding="UTF-8"?><svg id="uuid-0f836b92-08a5-41f9-a0c3-d3af1e8484f3" xmlns="http://www.w3.org/2000/svg" viewBox="0 0 453.42 548.7"><g id="uuid-582119a3-6026-467f-9fa5-81817c173fbd"><path d="M9.87,393.24L148.96,0h304.46v548.7l-333.67-.46c-3.32.3-6.66.46-10.02.46-29.1,0-57.02-11.56-77.59-32.14C11.56,495.98,0,468.07,0,438.97c0-15.89,3.44-31.42,9.92-45.59l-.05-.14" style="fill:#0fa34b; fill-rule:evenodd;"/><path d="M154.17,426.52c-.01-.91-.23-4.34-.14-5.5.09-1.16-.76-3.1-.79-4.29-.03-1.19.02-5.65.14-7,.29-3.29-.49-9.49-.71-11.22-.23-1.73-.91-3.29-1.86-5.57-.95-2.28-.93-5.93-.93-5.93,0,0,.11.04.14-.64.01-.26-.2-.89-.29-1.79-.02-.16.29-.57.29-.57,0,0-.54-2.84-.71-3.57-.4-1.72-1.22-3.5-1.22-3.5,0,0-.36-2.93-.57-4.36-.21-1.43-2.43-4.93-3.29-5.5-.21-.14-.58-.22-1.07-.36-.53-.15-1.2-.35-1.93-.43-1.4-.15-3.06-.1-4.65-.36-.86-.14-1.51-.59-2.07-.93-.58-.34-1.07-.57-1.07-.57,0,0-.53-.89-.93-1.29-.16-.16-.43-.07-.43-.07,0,0-.4-.35-.79-1.22-.53-1.16.07-1.71.07-1.71,0,0,.71-1.73,1.21-2.64.66-1.2.85-2.47,1.22-3.43.51-1.35,1.14-2.44,1.21-3.64.08-1.21-.23-2.92-.57-3.86-.1-.27-.3-.96-.71-1.57-.45-.67-1.12-1.29-1.43-1.86-.46-.85-.68-1.2-1.07-1.5-1.14-.9-1.83-1.15-2.86-1.5-.59-.2-2.24-.35-3.21-.43-.72-.06-.78-.09-1.29-.07-1.21.04-4.43,1.29-5.29,1.86-.59.39-1.21.91-1.86,1.79-.29.39-.76.71-.93,1.36-.07.26-.06.49-.07.71-.04.62.09.84.29,1.21.31.58.5.93.5.93,0,0-.1,2.29-.36,3.22-.26.92.43,1.79.43,1.79,0,0-.09.49-.29,1.07-.21.61-.52,1.34-.64,1.86-.14.58.48.88.93,1,.26.07.43.07.43.07v1.64l.21.57v.5l.57,1.07s.14.35.07.93c-.07.58.1,1.59.71,1.86.56.24,1.04-.08,2.22.14,1.18.22,1.14,2.57,1.14,2.57,0,0-.16-.02-.36.14-.2.16-.43.5-.43.5,0,0,.04.35.07.71.04.45.07.93.07.93,0,0-1.72.98-2.79,1.93-.72.64-1.93,1.29-1.93,1.29,0,0-4.52,1.56-6,3.07-1.26,1.28-1.44,1.97-1.57,3.43s-.09,4.41-.5,6.86c-.41,2.45.36,5.86.36,5.86v1.86s.02.71.14,1c.07.17.21.14.21.14,0,0-.02,2.52-.07,4-.05,1.49.07,3.14.07,3.14,0,0-2.02,5.17-3.64,11.86-.31,1.29-1.57,5.14-2.79,7.86-.57,1.27-2.22,3.65-3.36,4.5-.83.62-1.86,1.58-2.29,2.5-.15.33-.41.87-.57,1.36-.12.38-.51.76-.64,1.07-.16.38-.07.64-.07.64,0,0-1.5.99-3.07,1.79-1.74.88-3.57,1.57-3.57,1.57l-.79.5s-.56.28-.86.64c-.73.89-1.02,1.14-.79,2.36.16.82,1.09,1.83,2.22,1.5.88-.26,1.64-.44,3-.86,1.36-.42,2.76-1.6,3.5-2.29.29-.27.71-.79.71-.79l.79-.43s1.92.17,3.36-.21c.27-.07.77-.29,1-.57.17-.2.1-.45.21-.63.14-.22.22-.37.22-.37l.64-.29h.86s1.05.09,2.29-.29c.49-.15,1-.53,1.5-.79,1.51-.77,2.67-1.39,3.22-2.07.35-.44.86-.57.86-.57,0,0,.08.02,0,1.43-.02.41-.31.34-.36,1.43-.02.39.14,1.43.14,1.43,0,0-.08.25-.07.79,0,.75.07,1.62-.07,2.57-.11.71-1.02,1.87-.43,2.29.32.23.88.44,1.21.72.28.24.36.57.36.57,0,0,.97,3.33,1.14,4.72.13,1.06.76,2.3,1.14,3.43.12.36.04.74.07,1.07.16,1.51.6,3.94.57,5.86-.02,1.51.64,2.86.64,2.86,0,0-.12,1.01-.07,2.14.02.39.03,1,.36,1.79.01.03.02.04.02.06.02.03.02.04,0,0-.04-.07-.18-.25-.31.02-.21.41.29,1.07.29,3.07,0,1.52.43,1.5.43,1.5,0,0,.1,1.07.29,3,.16,1.69,1.43,6.22,1.43,6.22,0,0-.13,2.11-.43,3.65-.3,1.54-.12,1.72-.36,3.64-.24,1.92-1.72,9.15-1.72,9.15l-1.93,1.29-2.79.29s-6.11-.38-20.44,2.29c-12.12,2.26-11.79,8.22-11.79,8.22l-.14,7.29s1.59,9.15,32.3,11.58c32.88,2.6,41.23-9.5,41.23-9.5l-.22-8s.08-1.28-1.72-3c-3.24-3.12-6.5-3.9-9.93-5.07-3.43-1.17-11.43-2.57-11.43-2.57,0,0,.16-.34.07-1.5-.07-.9-.34-1.2-.45-1.87-.04-.25.02-1.13.02-1.13,0,0,.91-.36-.43-.93-.28-.12-.51-1-.71-1.79-.33-1.27-.36-5.36-.36-5.36,0,0,.4-.68,1-2.29.6-1.6.89-2.65,1.36-5.29.15-.83,0-2.57,0-2.57,0,0-.05-1.89.14-2.72.28-1.21-.14-2.43-.14-2.43,0,0,1.21-5.16,1.36-6.07.23-1.46.57-2.54,1-4.57.48-2.28,3.25-9.07,3.93-10.93.68-1.86,1.5-5.36,1.5-5.36,0,0,.61-.19,1.36-.36.74-.16,1.36-.13,1.43-.29.07-.15-.42-2.78-.43-3.72-.01-.93,0-3.69.22-4.93.21-1.24,1.42-4.88,1.64-8.43.22-3.55-1.1-9.16-1.5-10.5-.21-.7-1-2.57-1-2.57l-.07-1.14s-.23-.11-.14-.29c.12-.25.57-.6.57-.79.02-.75-.35-1.21-.36-1.5-.01-.29.39-1.16.43-2.07.03-.91-.31-2.14.21-3.57.8-2.17.8-2.95.93-5.07.13-2.12.43-5.65.43-5.65l.07-2.14s.55-.16.72.57c.25,1.1.76,2.6,1.07,2.72.31.12.43,0,.43,0,0,0,.64,1.98,1.14,3.71.5,1.73,1.57,5.36,1.57,5.36,0,0,.28,2.57.29,4.79,0,1.54,1.66,7.72,2.43,12.15.34,1.97.18,3.33.14,3.93-.12,1.95-.88.68-1.71,5.29-.22,1.22.04,1.07-.5,2.07-.54,1-.12.95-.29,1.79-.17.84-.5.89-.5,1.43,0,.3,1.14,0,1.14,0,0,0,.41-.04.71-1,.18-.56.28-.98.43-1.29.1-.22.33-.44.5-.86.36-.91.68-.77,1-.72.32.06.32.32.29.57-.11.7-.23.83-.43,2-.2,1.17-.37,1.3-1,2.5s-.87,1.28-1.07,1.57c-.2.29-.26.45-.14.72.1.24.31.33.57.28.26-.04.71-.94,1.43-1.5.47-.36.86-.29.86-.29l-.64,1.43s-1.26,1-.86,1.57c.7,1,1.5-.57,1.5-.57l1.07-.72s.32-.38.71-.86c.64-.76,1.04-.91,1.22-1.14.17-.23.56-2.84.93-3.36.5-.7.51-1.73.5-2.65" style="fill:#fff;"/></g></svg>