<?xml version="1.0" encoding="UTF-8"?><svg id="uuid-f8042fa1-5ea9-4847-92c5-7ab6c99d2de7" xmlns="http://www.w3.org/2000/svg" xmlns:xlink="http://www.w3.org/1999/xlink" viewBox="0 0 492.68 680.1"><defs><clipPath id="uuid-a1bbd0c3-17db-482f-9dab-3c5d1a5bfe06"><path d="M492.68,340.05v320.76c0,10.65-12.54,19.29-28,19.29H28c-15.46,0-28-8.64-28-19.29V19.29C0,8.64,12.54,0,28,0h436.68c15.46,0,28,8.64,28,19.29v320.76Z" style="fill:none;"/></clipPath><clipPath id="uuid-158ba566-9078-4f91-b74c-c0e2388c1e6e"><rect x="168.99" y="428.73" width="133.25" height="131.73" style="fill:none;"/></clipPath><clipPath id="uuid-93658df9-0c4d-4c3a-8ee8-2ecb8d6d7dd6"><rect x="168.98" y="428.73" width="133.26" height="131.73" style="fill:none;"/></clipPath><clipPath id="uuid-104aa84c-d3a5-4cbb-9f5b-ff85dbdc31e4"><rect x="168.98" y="428.73" width="133.26" height="131.73" style="fill:none;"/></clipPath><clipPath id="uuid-c1130d03-fe34-44ce-8a70-bef5aff97355"><rect x="98.08" y="378.41" width="123.99" height="115.13" style="fill:none;"/></clipPath><clipPath id="uuid-19cc1ca6-70a8-4b84-8d2a-bba151b90946"><rect x="275.85" y="497.98" width="140.64" height="114.63" style="fill:none;"/></clipPath></defs><g id="uuid-cbb65f05-9dfe-4335-9af0-175873b45b57"><path d="M482.68,340.05v320.76c0,6.85-8.06,12.4-18,12.4H28c-9.94,0-18-5.55-18-12.4V19.29c0-6.85,8.06-12.4,18-12.4h436.68c9.94,0,18,5.55,18,12.4v320.76Z" style="fill-rule:evenodd;"/><g style="clip-path:url(#uuid-a1bbd0c3-17db-482f-9dab-3c5d1a5bfe06);"><path d="M492.68,340.05v320.76c0,10.65-12.54,19.29-28,19.29H28c-15.46,0-28-8.64-28-19.29V19.29C0,8.64,12.54,0,28,0h436.68c15.46,0,28,8.64,28,19.29v320.76Z" style="fill:none; stroke:#0fa34b; stroke-miterlimit:10; stroke-width:20px;"/></g><g style="opacity:.6;"><ellipse cx="444.39" cy="119.7" rx="21.24" ry="21.23" style="fill:none; stroke:#fff; stroke-linecap:round; stroke-linejoin:round; stroke-width:1.06px;"/><ellipse cx="444.39" cy="119.72" rx="12.74" ry="12.73" style="fill:none; stroke:#fff; stroke-linecap:round; stroke-linejoin:round; stroke-width:1.06px;"/><path d="M447.93,122.54c1.56,0,2.83-1.27,2.83-2.83s-1.27-2.83-2.83-2.83-2.83,1.27-2.83,2.83,1.27,2.83,2.83,2.83Z" style="fill:none; stroke:#fff; stroke-linecap:round; stroke-linejoin:round; stroke-width:1.06px;"/><path d="M441.56,123.24c1.95,0,3.54-1.59,3.54-3.54s-1.59-3.54-3.54-3.54-3.54,1.59-3.54,3.54,1.59,3.54,3.54,3.54Z" style="fill:none; stroke:#fff; stroke-linecap:round; stroke-linejoin:round; stroke-width:1.06px;"/><ellipse cx="444.37" cy="414.06" rx="21.24" ry="21.23" style="fill:none; stroke:#fff; stroke-linecap:round; stroke-linejoin:round; stroke-width:1.06px;"/><path d="M437.31,411.21c2.34,0,4.25-1.9,4.25-4.25s-1.9-4.25-4.25-4.25-4.25,1.9-4.25,4.25,1.9,4.25,4.25,4.25Z" style="fill:none; stroke:#fff; stroke-linecap:round; stroke-linejoin:round; stroke-width:1.06px;"/><path d="M456.42,421.12c1.95,0,3.54-1.59,3.54-3.54s-1.59-3.54-3.54-3.54-3.54,1.59-3.54,3.54,1.59,3.54,3.54,3.54Z" style="fill:none; stroke:#fff; stroke-linecap:round; stroke-linejoin:round; stroke-width:1.06px;"/><path d="M451.47,426.07c0,1.95-1.59,3.54-3.54,3.54s-3.54-1.59-3.54-3.54,1.59-3.54,3.54-3.54,3.54,1.59,3.54,3.54Z" style="fill:none; stroke:#fff; stroke-linecap:round; stroke-linejoin:round; stroke-width:1.06px;"/><path d="M444.39,67.34c4.96,0,9.52-1.7,13.13-4.55,4.94-3.89,8.11-9.92,8.11-16.67s-3.16-12.79-8.11-16.67c-3.61-2.85-8.18-4.55-13.13-4.55s-9.52,1.7-13.13,4.55c-4.94,3.89-8.11,9.92-8.11,16.67s3.16,12.79,8.11,16.67c3.61,2.85,8.17,4.55,13.13,4.55h0Z" style="fill:none; stroke:#fff; stroke-linecap:round; stroke-linejoin:round; stroke-width:1.06px;"/><line x1="465.63" y1="46.11" x2="423.15" y2="46.11" style="fill:none; stroke:#fff; stroke-linecap:round; stroke-linejoin:round; stroke-width:1.06px;"/><line x1="444.39" y1="24.89" x2="444.39" y2="67.34" style="fill:none; stroke:#fff; stroke-linecap:round; stroke-linejoin:round; stroke-width:1.06px;"/><path d="M431.26,62.78c2.8-1.53,6.85-8.18,13.12-8.18s10.32,6.65,13.12,8.18" style="fill:none; stroke:#fff; stroke-linecap:round; stroke-linejoin:round; stroke-width:1.06px;"/><path d="M431.26,29.45c2.8,1.53,6.85,8.18,13.12,8.18s10.32-6.65,13.12-8.18" style="fill:none; stroke:#fff; stroke-linecap:round; stroke-linejoin:round; stroke-width:1.06px;"/><path d="M454.39,264.86c-.06.66-.09,1.33-.09,2.01,0,1.59.18,3.14.52,4.64.47,2.17,1.3,4.22,2.39,6.08.78,1.33,1.71,2.57,2.75,3.7" style="fill:none; stroke:#fff; stroke-linecap:round; stroke-linejoin:round; stroke-width:1.06px;"/><path d="M456.13,258.25c-.16.35-.3.71-.45,1.08-.67,1.74-1.1,3.6-1.28,5.53" style="fill:none; stroke:#fff; stroke-linecap:round; stroke-linejoin:round; stroke-width:1.06px;"/><path d="M459.96,252.46c-1.58,1.69-2.88,3.65-3.83,5.79" style="fill:none; stroke:#fff; stroke-linecap:round; stroke-linejoin:round; stroke-width:1.06px;"/><path d="M429.01,281.29c1.58-1.69,2.88-3.65,3.83-5.78.16-.35.31-.71.45-1.08.67-1.75,1.1-3.6,1.29-5.54.06-.66.09-1.33.09-2.01,0-1.59-.18-3.14-.52-4.64-.11-.52-.24-1.03-.39-1.52-.49-1.61-1.17-3.14-2-4.56-.78-1.33-1.71-2.57-2.75-3.7" style="fill:none; stroke:#fff; stroke-linecap:round; stroke-linejoin:round; stroke-width:1.06px;"/><path d="M428.91,281.38c3.87,4.13,9.37,6.72,15.48,6.72s11.71-2.63,15.58-6.82c3.51-3.79,5.66-8.86,5.66-14.41s-2.14-10.63-5.66-14.41c-3.87-4.19-9.42-6.82-15.58-6.82s-11.63,2.58-15.5,6.73c-3.56,3.79-5.74,8.9-5.74,14.49s2.18,10.71,5.76,14.51h0Z" style="fill:none; stroke:#fff; stroke-linecap:round; stroke-linejoin:round; stroke-width:1.06px;"/><line x1="456.13" y1="258.25" x2="456.13" y2="258.25" style="fill:none; stroke:#fff; stroke-linecap:round; stroke-linejoin:round; stroke-width:1.06px;"/><line x1="458.27" y1="258" x2="456.13" y2="258.25" style="fill:none; stroke:#fff; stroke-linecap:round; stroke-linejoin:round; stroke-width:1.06px;"/><line x1="455.68" y1="259.33" x2="454.3" y2="256.47" style="fill:none; stroke:#fff; stroke-linecap:round; stroke-linejoin:round; stroke-width:1.06px;"/><line x1="454.4" y1="264.86" x2="454.39" y2="264.86" style="fill:none; stroke:#fff; stroke-linecap:round; stroke-linejoin:round; stroke-width:1.06px;"/><line x1="456.73" y1="263.5" x2="454.4" y2="264.86" style="fill:none; stroke:#fff; stroke-linecap:round; stroke-linejoin:round; stroke-width:1.06px;"/><line x1="452.16" y1="263.71" x2="454.3" y2="265.79" style="fill:none; stroke:#fff; stroke-linecap:round; stroke-linejoin:round; stroke-width:1.06px;"/><polyline points="456.73 269.51 454.82 271.51 454.81 271.52" style="fill:none; stroke:#fff; stroke-linecap:round; stroke-linejoin:round; stroke-width:1.06px;"/><line x1="455.21" y1="273.02" x2="452.2" y2="271.97" style="fill:none; stroke:#fff; stroke-linecap:round; stroke-linejoin:round; stroke-width:1.06px;"/><polyline points="458.21 275.33 457.21 277.58 457.21 277.59" style="fill:none; stroke:#fff; stroke-linecap:round; stroke-linejoin:round; stroke-width:1.06px;"/><line x1="457.67" y1="278.34" x2="454.81" y2="278.05" style="fill:none; stroke:#fff; stroke-linecap:round; stroke-linejoin:round; stroke-width:1.06px;"/><polyline points="430.7 275.76 432.84 275.51 432.84 275.51" style="fill:none; stroke:#fff; stroke-linecap:round; stroke-linejoin:round; stroke-width:1.06px;"/><line x1="433.29" y1="274.42" x2="434.67" y2="277.28" style="fill:none; stroke:#fff; stroke-linecap:round; stroke-linejoin:round; stroke-width:1.06px;"/><line x1="432.24" y1="270.26" x2="434.58" y2="268.9" style="fill:none; stroke:#fff; stroke-linecap:round; stroke-linejoin:round; stroke-width:1.06px;"/><line x1="436.81" y1="270.06" x2="434.67" y2="267.98" style="fill:none; stroke:#fff; stroke-linecap:round; stroke-linejoin:round; stroke-width:1.06px;"/><polyline points="432.24 264.25 434.15 262.25 434.16 262.24" style="fill:none; stroke:#fff; stroke-linecap:round; stroke-linejoin:round; stroke-width:1.06px;"/><line x1="433.76" y1="260.73" x2="436.77" y2="261.79" style="fill:none; stroke:#fff; stroke-linecap:round; stroke-linejoin:round; stroke-width:1.06px;"/><polyline points="430.77 258.43 431.76 256.17 431.76 256.16" style="fill:none; stroke:#fff; stroke-linecap:round; stroke-linejoin:round; stroke-width:1.06px;"/><line x1="431.3" y1="255.41" x2="434.16" y2="255.7" style="fill:none; stroke:#fff; stroke-linecap:round; stroke-linejoin:round; stroke-width:1.06px;"/><path d="M447.22,357.38c.47.04.94.06,1.42.06s.95-.02,1.42-.06c8.25-.68,14.83-7.26,15.51-15.5.04-.47.06-.94.06-1.42s-.02-.95-.06-1.42c-.68-8.25-7.26-14.82-15.51-15.5-.47-.04-.94-.06-1.42-.06s-.95.02-1.42.06c-7.16.59-13.06,5.61-14.94,12.31-.29,1.03-.49,2.09-.57,3.19-.04.47-.06.94-.06,1.42s.02.95.06,1.42c.08,1.03.25,2.03.52,2.99,1.82,6.8,7.76,11.91,14.99,12.51h0Z" style="fill:none; stroke:#fff; stroke-linecap:round; stroke-linejoin:round; stroke-width:1.06px;"/><path d="M423.15,337.59h1.32c.94,0,1.83-.47,2.35-1.25l1.15-1.71c.52-.79,1.41-1.25,2.35-1.25.64,0,1.23.3,1.6.82.35.47.52.95.35,1.66-.01.06-.03.13-.05.19" style="fill:none; stroke:#fff; stroke-linecap:round; stroke-linejoin:round; stroke-width:1.06px;"/><path d="M432.23,344.86c.24.81.07,1.34-.3,1.85-.37.52-.96.82-1.6.82-.94,0-1.83-.47-2.35-1.25l-1.15-1.71c-.52-.79-1.41-1.25-2.35-1.25h-1.32" style="fill:none; stroke:#fff; stroke-linecap:round; stroke-linejoin:round; stroke-width:1.06px;"/><line x1="452.88" y1="496.12" x2="435.89" y2="479.14" style="fill:none; stroke:#fff; stroke-linecap:round; stroke-linejoin:round; stroke-width:1.06px;"/><line x1="449.34" y1="486.91" x2="443.68" y2="492.58" style="fill:none; stroke:#fff; stroke-linecap:round; stroke-linejoin:round; stroke-width:1.06px;"/><line x1="453.59" y1="491.16" x2="447.93" y2="496.82" style="fill:none; stroke:#fff; stroke-linecap:round; stroke-linejoin:round; stroke-width:1.06px;"/><line x1="445.1" y1="482.68" x2="439.43" y2="488.33" style="fill:none; stroke:#fff; stroke-linecap:round; stroke-linejoin:round; stroke-width:1.06px;"/><line x1="440.85" y1="478.43" x2="435.19" y2="484.09" style="fill:none; stroke:#fff; stroke-linecap:round; stroke-linejoin:round; stroke-width:1.06px;"/><path d="M450.84,508.06c2.42.54,4.6.79,6.29.79,5.66,0,7.08-1.42,7.08-1.42,0,0,1.42-1.42,1.42-7.08,0-1.68-.25-3.86-.79-6.29-1.27-5.73-4.15-12.8-9.12-17.77-4.98-4.98-12.05-7.85-17.78-9.12-2.42-.54-4.6-.79-6.29-.79-5.66,0-7.08,1.42-7.08,1.42,0,0-1.42,1.42-1.42,7.08,0,1.68.25,3.87.79,6.29,1.27,5.73,4.15,12.8,9.12,17.77,4.98,4.98,12.05,7.85,17.78,9.12h0Z" style="fill:none; stroke:#fff; stroke-linecap:round; stroke-linejoin:round; stroke-width:1.06px;"/><line x1="450.84" y1="508.06" x2="464.83" y2="494.08" style="fill:none; stroke:#fff; stroke-linecap:round; stroke-linejoin:round; stroke-width:1.06px;"/><line x1="423.95" y1="481.18" x2="437.93" y2="467.19" style="fill:none; stroke:#fff; stroke-linecap:round; stroke-linejoin:round; stroke-width:1.06px;"/><circle cx="450.53" cy="572.59" r="5.66" style="fill:none; stroke:#fff; stroke-linecap:round; stroke-linejoin:round; stroke-width:1.06px;"/><line x1="431.53" y1="566.12" x2="448.29" y2="549.37" style="fill:none; stroke:#fff; stroke-linecap:round; stroke-linejoin:round; stroke-width:1.06px;"/><path d="M431.53,566.12c.11,3.45.89,7.18,4.31,10.6,7.21,7.21,12.97,7.21,15.85,7.21,5.76,0,14.41-7.21,14.41-14.4,0-2.88,0-8.64-7.21-15.84-3.42-3.42-7.15-4.2-10.6-4.31-.31,0-.62-.01-.93-.01-4.32,0-6.55,1.44-8.64,1.44-2.22,0-7.03-6.01-9.1-8.75-.25-.33-.63-.54-1.05-.57-.42-.03-.83.13-1.12.42l-3.4,3.4c-.3.29-.45.7-.42,1.12.04.41.24.8.57,1.05,2.74,2.07,8.76,6.87,8.76,9.1,0,2.09-1.44,4.33-1.44,8.64,0,.3,0,.62.01.93h0Z" style="fill:none; stroke:#fff; stroke-linecap:round; stroke-linejoin:round; stroke-width:1.06px;"/><path d="M444.07,650.73c-1.64-1.8-2.74-4.11-2.74-7.02,0-.92.3-1.99.7-3.01.56-1.42,1.4-2.69,2.46-3.74,1.06-1.06,2.34-1.9,3.75-2.46,1.02-.4,2.09-.7,3-.7,2.92,0,5.22,1.1,7.02,2.74,4.31,3.91,5.72,10.83,5.72,12.82,0,.72-.18,1.62-.64,2.61-.77,1.67-2.11,3.02-3.77,3.8-1.01.47-1.94.67-2.67.67-2,0-8.93-1.41-12.83-5.72h0Z" style="fill:none; stroke:#fff; stroke-linecap:round; stroke-linejoin:round; stroke-width:1.06px;"/><path d="M430.72,625.31h-.52c-1.18,0-2.32-.47-3.16-1.31l-5.1-5.1c-.59-.59-.59-1.53,0-2.12l2.36-2.36c.59-.59,1.53-.59,2.12,0l5.1,5.1c.84.84,1.31,1.98,1.31,3.16v1.13c0,.42-.17.79-.44,1.05-.27.27-.64.44-1.05.44h-.62,0Z" style="fill:none; stroke:#fff; stroke-linecap:round; stroke-linejoin:round; stroke-width:1.06px;"/><line x1="444.48" y1="636.95" x2="432.39" y2="624.87" style="fill:none; stroke:#fff; stroke-linecap:round; stroke-linejoin:round; stroke-width:1.06px;"/><path d="M454.07,623.89h2.83c1.56,0,2.83-1.27,2.83-2.83s-1.27-2.83-2.83-2.83h-2.83v5.66h0Z" style="fill:none; stroke:#fff; stroke-linecap:round; stroke-linejoin:round; stroke-width:1.06px;"/><path d="M454.07,618.23l-9.2-4.25s-1.66,2.2-2.05,5.66c-.05.45-.08.91-.08,1.4v.03c0,4.25,2.12,7.06,2.12,7.06l8.77-4.05.43-.2" style="fill:none; stroke:#fff; stroke-linecap:round; stroke-linejoin:round; stroke-width:1.06px;"/><ellipse cx="444.39" cy="193.29" rx="21.24" ry="21.23" style="fill:none; stroke:#fff; stroke-linecap:round; stroke-linejoin:round; stroke-width:1.06px;"/><path d="M459.96,178.88c-3.53,3.78-5.66,8.85-5.66,14.4s2.14,10.63,5.66,14.4" style="fill:none; stroke:#fff; stroke-linecap:round; stroke-linejoin:round; stroke-width:1.06px;"/><path d="M428.82,178.88c3.53,3.78,5.66,8.85,5.66,14.4s-2.14,10.63-5.66,14.4" style="fill:none; stroke:#fff; stroke-linecap:round; stroke-linejoin:round; stroke-width:1.06px;"/></g><path d="M115.51,150.34c-.83-.32-1.47-.75-1.93-1.32-.46-.56-.68-1.2-.68-1.92v-.25c0-.08.03-.15.09-.21s.13-.09.21-.09h2.76c.08,0,.15.03.21.09.06.06.09.13.09.21v.02c0,.37.2.68.61.93.41.26.92.39,1.53.39.56,0,1.02-.11,1.37-.34.35-.22.52-.5.52-.83,0-.3-.15-.52-.45-.67s-.79-.31-1.47-.47c-.78-.2-1.39-.39-1.84-.57-1.06-.36-1.91-.81-2.54-1.34-.63-.53-.95-1.29-.95-2.29,0-1.23.48-2.2,1.43-2.92s2.22-1.08,3.8-1.08c1.06,0,1.99.17,2.79.51.8.34,1.42.82,1.85,1.43.44.61.66,1.31.66,2.09,0,.08-.03.15-.09.21s-.13.09-.21.09h-2.66c-.08,0-.15-.03-.21-.09-.06-.06-.09-.13-.09-.21,0-.37-.19-.67-.56-.92s-.87-.37-1.48-.37c-.55,0-1,.1-1.34.3-.35.2-.52.47-.52.82s.17.58.51.75.91.34,1.71.52c.18.05.39.1.62.16s.48.13.75.21c1.18.35,2.11.8,2.79,1.34.68.55,1.02,1.34,1.02,2.39,0,1.23-.49,2.19-1.46,2.88s-2.28,1.03-3.92,1.03c-1.11,0-2.08-.16-2.91-.47h-.01Z" style="fill:#fff;"/><path d="M133.38,137.94c.06-.06.13-.09.21-.09h2.91c.08,0,.15.03.21.09.06.06.09.13.09.21v12.19c0,.08-.03.15-.09.21s-.13.09-.21.09h-2.91c-.08,0-.15-.03-.21-.09-.06-.06-.09-.13-.09-.21v-.85s-.02-.08-.05-.09c-.03,0-.07.01-.1.06-.66.9-1.69,1.34-3.09,1.34-1.26,0-2.3-.38-3.11-1.14s-1.22-1.83-1.22-3.21v-8.32c0-.08.03-.15.09-.21s.13-.09.21-.09h2.89c.08,0,.15.03.21.09.06.06.09.13.09.21v7.44c0,.66.18,1.2.54,1.62.36.42.85.62,1.48.62.56,0,1.03-.17,1.39-.51s.59-.78.67-1.33v-7.84c0-.08.03-.15.09-.21h0Z" style="fill:#fff;"/><path d="M151.26,144.26c0,1.14-.16,2.18-.47,3.11-.38,1.06-.98,1.91-1.8,2.53s-1.84.93-3.05.93-2.12-.42-2.79-1.25c-.03-.05-.07-.07-.1-.05-.03.02-.05.05-.05.1v5.33c0,.08-.03.15-.09.21s-.13.09-.21.09h-2.91c-.08,0-.15-.03-.21-.09s-.09-.13-.09-.21v-16.82c0-.08.03-.15.09-.21s.13-.09.21-.09h2.91c.08,0,.15.03.21.09.06.06.09.13.09.21v.82s.02.08.05.09.07,0,.1-.04c.7-.91,1.66-1.37,2.89-1.37,1.15,0,2.14.32,2.98.96.84.64,1.44,1.53,1.8,2.68.3.85.45,1.84.45,2.99h0ZM147.63,144.21c0-1.05-.17-1.88-.52-2.49-.38-.71-1-1.07-1.84-1.07-.76,0-1.34.36-1.72,1.07-.35.6-.52,1.44-.52,2.51s.18,1.98.55,2.59c.38.66.95,1,1.69,1s1.33-.32,1.74-.97.62-1.53.62-2.64Z" style="fill:#fff;"/><path d="M165.4,144.26c0,1.14-.16,2.18-.47,3.11-.38,1.06-.98,1.91-1.8,2.53s-1.84.93-3.05.93-2.12-.42-2.79-1.25c-.03-.05-.07-.07-.1-.05-.03.02-.05.05-.05.1v5.33c0,.08-.03.15-.09.21s-.13.09-.21.09h-2.91c-.08,0-.15-.03-.21-.09s-.09-.13-.09-.21v-16.82c0-.08.03-.15.09-.21s.13-.09.21-.09h2.91c.08,0,.15.03.21.09.06.06.09.13.09.21v.82s.02.08.05.09.07,0,.1-.04c.7-.91,1.66-1.37,2.89-1.37,1.15,0,2.14.32,2.98.96.84.64,1.44,1.53,1.8,2.68.3.85.45,1.84.45,2.99h0ZM161.77,144.21c0-1.05-.17-1.88-.52-2.49-.38-.71-1-1.07-1.84-1.07-.76,0-1.34.36-1.72,1.07-.35.6-.52,1.44-.52,2.51s.18,1.98.55,2.59c.38.66.95,1,1.69,1s1.33-.32,1.74-.97.62-1.53.62-2.64Z" style="fill:#fff;"/><path d="M169.74,149.74c-1-.73-1.68-1.73-2.04-2.99-.23-.78-.35-1.63-.35-2.54,0-.98.12-1.86.35-2.64.38-1.23,1.07-2.19,2.07-2.89,1-.7,2.19-1.05,3.58-1.05s2.52.34,3.49,1.03c.96.69,1.64,1.65,2.04,2.88.27.83.4,1.7.4,2.61s-.12,1.73-.35,2.51c-.37,1.29-1.04,2.31-2.03,3.05s-2.18,1.11-3.57,1.11-2.59-.37-3.58-1.1v.02ZM174.72,147.32c.38-.33.66-.79.82-1.37.13-.53.2-1.11.2-1.74,0-.7-.07-1.29-.2-1.77-.18-.56-.46-1-.85-1.32-.38-.32-.85-.47-1.39-.47s-1.03.16-1.41.47c-.37.32-.64.75-.81,1.32-.13.4-.2.99-.2,1.77s.06,1.33.17,1.74c.17.58.44,1.04.83,1.37.39.33.87.5,1.43.5s1.01-.17,1.39-.5h.02Z" style="fill:#fff;"/><path d="M189.33,138.02c.13.07.18.19.15.37l-.52,2.84c-.02.2-.13.26-.35.17-.25-.08-.54-.12-.87-.12-.13,0-.32.02-.55.05-.6.05-1.1.27-1.52.66-.42.39-.62.91-.62,1.56v6.8c0,.08-.03.15-.09.21s-.13.09-.21.09h-2.91c-.08,0-.15-.03-.21-.09s-.09-.13-.09-.21v-12.19c0-.08.03-.15.09-.21s.13-.09.21-.09h2.91c.08,0,.15.03.21.09s.09.13.09.21v.95s.02.08.05.1.06,0,.07-.02c.68-1,1.59-1.49,2.74-1.49.6,0,1.07.12,1.42.35v-.02Z" style="fill:#fff;"/><path d="M198.45,140.57c-.06.06-.13.09-.21.09h-2.39c-.08,0-.12.04-.12.12v5.28c0,.55.11.96.34,1.22.22.27.58.4,1.08.4h.82c.08,0,.15.03.21.09s.09.13.09.21v2.37c0,.18-.1.29-.3.32-.7.03-1.2.05-1.49.05-1.38,0-2.41-.23-3.09-.68-.68-.46-1.03-1.31-1.05-2.58v-6.67c0-.08-.04-.12-.12-.12h-1.42c-.08,0-.15-.03-.21-.09s-.09-.13-.09-.21v-2.22c0-.08.03-.15.09-.21s.13-.09.21-.09h1.42c.08,0,.12-.04.12-.12v-2.96c0-.08.03-.15.09-.21.06-.06.13-.09.21-.09h2.79c.08,0,.15.03.21.09s.09.13.09.21v2.96c0,.08.04.12.12.12h2.39c.08,0,.15.03.21.09s.09.13.09.21v2.22c0,.08-.03.15-.09.21h0Z" style="fill:#fff;"/><path d="M207.7,149.74c-1-.73-1.68-1.73-2.04-2.99-.23-.78-.35-1.63-.35-2.54,0-.98.12-1.86.35-2.64.38-1.23,1.07-2.19,2.07-2.89s2.19-1.05,3.58-1.05,2.52.34,3.49,1.03c.96.69,1.64,1.65,2.04,2.88.27.83.4,1.7.4,2.61s-.12,1.73-.35,2.51c-.37,1.29-1.04,2.31-2.03,3.05s-2.18,1.11-3.57,1.11-2.59-.37-3.58-1.1v.02ZM212.68,147.32c.38-.33.66-.79.82-1.37.13-.53.2-1.11.2-1.74,0-.7-.07-1.29-.2-1.77-.18-.56-.46-1-.85-1.32-.38-.32-.85-.47-1.39-.47s-1.03.16-1.41.47c-.37.32-.64.75-.81,1.32-.13.4-.2.99-.2,1.77s.06,1.33.17,1.74c.17.58.44,1.04.83,1.37.39.33.87.5,1.43.5s1.01-.17,1.39-.5h.02Z" style="fill:#fff;"/><path d="M227.06,137.94c.06-.06.13-.09.21-.09h2.91c.08,0,.15.03.21.09s.09.13.09.21v12.19c0,.08-.03.15-.09.21s-.13.09-.21.09h-2.91c-.08,0-.15-.03-.21-.09s-.09-.13-.09-.21v-.85s-.02-.08-.05-.09c-.03,0-.07.01-.1.06-.66.9-1.69,1.34-3.09,1.34-1.26,0-2.3-.38-3.11-1.14s-1.22-1.83-1.22-3.21v-8.32c0-.08.03-.15.09-.21s.13-.09.21-.09h2.89c.08,0,.15.03.21.09s.09.13.09.21v7.44c0,.66.18,1.2.54,1.62.36.42.85.62,1.48.62.56,0,1.03-.17,1.39-.51.36-.34.59-.78.67-1.33v-7.84c0-.08.03-.15.09-.21h0Z" style="fill:#fff;"/><path d="M240.86,138.02c.13.07.18.19.15.37l-.52,2.84c-.02.2-.13.26-.35.17-.25-.08-.54-.12-.87-.12-.13,0-.32.02-.55.05-.6.05-1.1.27-1.52.66-.42.39-.62.91-.62,1.56v6.8c0,.08-.03.15-.09.21s-.13.09-.21.09h-2.91c-.08,0-.15-.03-.21-.09s-.09-.13-.09-.21v-12.19c0-.08.03-.15.09-.21s.13-.09.21-.09h2.91c.08,0,.15.03.21.09s.09.13.09.21v.95s.02.08.05.1.06,0,.07-.02c.68-1,1.59-1.49,2.74-1.49.6,0,1.07.12,1.42.35v-.02Z" style="fill:#fff;"/><path d="M247.67,150.55c-.06-.06-.09-.13-.09-.21v-16.82c0-.08.03-.15.09-.21.06-.06.13-.09.21-.09h2.91c.08,0,.15.03.21.09s.09.13.09.21v16.82c0,.08-.03.15-.09.21s-.13.09-.21.09h-2.91c-.08,0-.15-.03-.21-.09Z" style="fill:#fff;"/><path d="M255.72,149.74c-1-.73-1.68-1.73-2.04-2.99-.23-.78-.35-1.63-.35-2.54,0-.98.12-1.86.35-2.64.38-1.23,1.07-2.19,2.07-2.89s2.19-1.05,3.58-1.05,2.52.34,3.49,1.03c.96.69,1.64,1.65,2.04,2.88.27.83.4,1.7.4,2.61s-.12,1.73-.35,2.51c-.37,1.29-1.04,2.31-2.03,3.05s-2.18,1.11-3.57,1.11-2.59-.37-3.58-1.1v.02ZM260.7,147.32c.38-.33.66-.79.82-1.37.13-.53.2-1.11.2-1.74,0-.7-.07-1.29-.2-1.77-.18-.56-.46-1-.85-1.32-.38-.32-.85-.47-1.39-.47s-1.03.16-1.41.47c-.37.32-.64.75-.81,1.32-.13.4-.2.99-.2,1.77s.06,1.33.17,1.74c.17.58.44,1.04.83,1.37.39.33.87.5,1.43.5s1.01-.17,1.39-.5h.02Z" style="fill:#fff;"/><path d="M269.7,149.84c-.97-.66-1.66-1.58-2.08-2.74-.28-.83-.42-1.81-.42-2.94s.14-2.08.42-2.89c.4-1.13,1.09-2.02,2.07-2.66.98-.65,2.13-.97,3.46-.97s2.49.33,3.5,1c1,.66,1.67,1.5,2,2.51.13.4.2.7.2.9v.05c0,.15-.08.24-.25.27l-2.86.42h-.05c-.15,0-.25-.08-.3-.25l-.07-.4c-.12-.43-.37-.79-.77-1.07s-.87-.42-1.42-.42-.98.13-1.34.4c-.37.27-.62.63-.77,1.1-.18.5-.27,1.18-.27,2.04s.08,1.54.25,2.04c.15.5.41.89.78,1.17s.83.42,1.36.42.97-.14,1.36-.41c.39-.27.66-.65.81-1.13.02-.03.02-.08.02-.15.02-.02.02-.04.02-.08.02-.2.13-.28.35-.25l2.86.45c.17.03.25.12.25.27,0,.13-.05.38-.15.75-.35,1.11-1.02,1.98-2.03,2.61-1,.63-2.16.95-3.47.95s-2.48-.33-3.45-1h-.01Z" style="fill:#fff;"/><path d="M288.89,138.21c.85.37,1.51.88,1.98,1.53s.71,1.37.71,2.17v8.44c0,.08-.03.15-.09.21s-.13.09-.21.09h-2.91c-.08,0-.15-.03-.21-.09s-.09-.13-.09-.21v-.82s-.02-.08-.05-.1c-.03-.02-.07,0-.1.05-.7.91-1.82,1.37-3.36,1.37-1.29,0-2.34-.32-3.14-.95s-1.19-1.56-1.19-2.79.45-2.27,1.34-2.98c.9-.71,2.17-1.06,3.83-1.06h2.54c.08,0,.12-.04.12-.12v-.55c0-.55-.17-.98-.5-1.28-.33-.31-.83-.46-1.49-.46-.51,0-.94.09-1.28.27s-.56.44-.66.77c-.05.18-.16.27-.32.25l-3.01-.4c-.2-.03-.29-.11-.27-.22.07-.7.34-1.33.83-1.89.49-.56,1.14-1,1.94-1.32s1.71-.47,2.7-.47c1.08,0,2.04.19,2.89.56h0ZM287.32,147.65c.5-.38.75-.87.75-1.47v-.9c0-.08-.04-.12-.12-.12h-1.79c-.75,0-1.33.14-1.76.42s-.63.68-.63,1.2c0,.45.16.8.47,1.06s.74.39,1.27.39c.71,0,1.32-.19,1.82-.57h0Z" style="fill:#fff;"/><path d="M294.13,150.55c-.06-.06-.09-.13-.09-.21v-16.82c0-.08.03-.15.09-.21.06-.06.13-.09.21-.09h2.91c.08,0,.15.03.21.09s.09.13.09.21v16.82c0,.08-.03.15-.09.21s-.13.09-.21.09h-2.91c-.08,0-.15-.03-.21-.09Z" style="fill:#fff;"/><path d="M120.88,165.83c.06-.06.13-.09.21-.09h2.91c.08,0,.15.03.21.09.06.06.09.13.09.21v12.19c0,.08-.03.15-.09.21s-.13.09-.21.09h-2.91c-.08,0-.15-.03-.21-.09-.06-.06-.09-.13-.09-.21v-.85s-.02-.08-.05-.09c-.03,0-.07.01-.1.06-.66.9-1.69,1.34-3.09,1.34-1.26,0-2.3-.38-3.11-1.14s-1.22-1.83-1.22-3.21v-8.32c0-.08.03-.15.09-.21s.13-.09.21-.09h2.89c.08,0,.15.03.21.09.06.06.09.13.09.21v7.44c0,.66.18,1.2.54,1.62.36.42.85.62,1.48.62.56,0,1.03-.17,1.39-.51s.59-.78.67-1.33v-7.84c0-.08.03-.15.09-.21h0Z" style="fill:#fff;"/><path d="M138.77,172.17c0,1.14-.16,2.18-.47,3.11-.38,1.06-.98,1.91-1.8,2.53s-1.84.93-3.05.93-2.12-.42-2.79-1.25c-.03-.05-.07-.07-.1-.05-.03.02-.05.05-.05.1v5.33c0,.08-.03.15-.09.21s-.13.09-.21.09h-2.91c-.08,0-.15-.03-.21-.09s-.09-.13-.09-.21v-16.82c0-.08.03-.15.09-.21s.13-.09.21-.09h2.91c.08,0,.15.03.21.09.06.06.09.13.09.21v.82s.02.08.05.09.07,0,.1-.04c.7-.91,1.66-1.37,2.89-1.37,1.15,0,2.14.32,2.98.96.84.64,1.44,1.53,1.8,2.68.3.85.45,1.84.45,2.99h0ZM135.13,172.12c0-1.05-.17-1.88-.52-2.49-.38-.71-1-1.07-1.84-1.07-.76,0-1.34.36-1.72,1.07-.35.6-.52,1.44-.52,2.51s.18,1.98.55,2.59c.38.66.95,1,1.69,1s1.33-.32,1.74-.97.62-1.53.62-2.64Z" style="fill:#fff;"/><path d="M154,166.1c.85.37,1.51.88,1.98,1.53s.71,1.37.71,2.17v8.44c0,.08-.03.15-.09.21s-.13.09-.21.09h-2.91c-.08,0-.15-.03-.21-.09-.06-.06-.09-.13-.09-.21v-.82s-.02-.08-.05-.1c-.03-.02-.07,0-.1.05-.7.91-1.82,1.37-3.36,1.37-1.29,0-2.34-.32-3.14-.95s-1.19-1.56-1.19-2.79.45-2.27,1.34-2.98c.9-.71,2.17-1.06,3.83-1.06h2.54c.08,0,.12-.04.12-.12v-.55c0-.55-.17-.98-.5-1.28-.33-.31-.83-.46-1.49-.46-.51,0-.94.09-1.28.27s-.56.44-.66.77c-.05.18-.16.27-.32.25l-3.01-.4c-.2-.03-.29-.11-.27-.22.07-.7.34-1.33.83-1.89.49-.56,1.14-1,1.94-1.32s1.71-.47,2.7-.47c1.08,0,2.04.19,2.89.56h0ZM152.43,175.55c.5-.38.75-.87.75-1.47v-.9c0-.08-.04-.12-.12-.12h-1.79c-.75,0-1.33.14-1.76.42s-.63.68-.63,1.2c0,.45.16.8.47,1.06s.74.39,1.27.39c.71,0,1.32-.19,1.82-.57h-.01Z" style="fill:#fff;"/><path d="M169.04,166.76c.81.81,1.22,1.92,1.22,3.31v8.17c0,.08-.03.15-.09.21s-.13.09-.21.09h-2.91c-.08,0-.15-.03-.21-.09-.06-.06-.09-.13-.09-.21v-7.44c0-.66-.19-1.2-.56-1.62-.37-.41-.87-.62-1.48-.62s-1.11.21-1.48.62c-.37.42-.56.96-.56,1.62v7.44c0,.08-.03.15-.09.21s-.13.09-.21.09h-2.91c-.08,0-.15-.03-.21-.09-.06-.06-.09-.13-.09-.21v-12.19c0-.08.03-.15.09-.21s.13-.09.21-.09h2.91c.08,0,.15.03.21.09.06.06.09.13.09.21v.87s.02.08.05.1.06,0,.07-.03c.68-.96,1.69-1.44,3.04-1.44s2.4.41,3.21,1.22h0Z" style="fill:#fff;"/><path d="M180.8,161.2c.06-.06.13-.09.21-.09h2.91c.08,0,.15.03.21.09s.09.13.09.21v16.82c0,.08-.03.15-.09.21s-.13.09-.21.09h-2.91c-.08,0-.15-.03-.21-.09s-.09-.13-.09-.21v-.82s-.02-.08-.05-.09c-.03,0-.07,0-.1.04-.7.91-1.65,1.37-2.86,1.37s-2.16-.32-3-.97-1.44-1.54-1.81-2.66c-.28-.86-.42-1.87-.42-3.01s.15-2.21.45-3.09c.38-1.06.98-1.9,1.81-2.53.82-.62,1.84-.93,3.05-.93s2.12.42,2.79,1.25c.03.05.07.07.1.05s.05-.05.05-.1v-5.33c0-.08.03-.15.09-.21h-.01ZM180.69,172.14c0-1.11-.18-1.98-.55-2.61-.38-.65-.94-.97-1.67-.97-.78,0-1.37.32-1.77.97-.42.65-.62,1.53-.62,2.64,0,1,.17,1.83.52,2.49.42.71,1.03,1.07,1.84,1.07.75,0,1.33-.36,1.74-1.07.33-.61.5-1.45.5-2.51h.01Z" style="fill:#fff;"/><path d="M194.02,177.74c-.97-.66-1.66-1.58-2.08-2.74-.28-.83-.42-1.81-.42-2.94s.14-2.08.42-2.89c.4-1.13,1.09-2.02,2.07-2.66.98-.65,2.13-.97,3.46-.97s2.49.33,3.5,1c1,.66,1.67,1.5,2,2.51.13.4.2.7.2.9v.05c0,.15-.08.24-.25.27l-2.86.42h-.05c-.15,0-.25-.08-.3-.25l-.07-.4c-.12-.43-.37-.79-.77-1.07s-.87-.42-1.42-.42-.98.13-1.34.4c-.37.27-.62.63-.77,1.1-.18.5-.27,1.18-.27,2.04s.08,1.54.25,2.04c.15.5.41.89.78,1.17s.83.42,1.36.42.97-.14,1.36-.41c.39-.27.66-.65.81-1.13.02-.03.02-.08.02-.15.02-.02.02-.04.02-.08.02-.2.13-.28.35-.25l2.86.45c.17.03.25.12.25.27,0,.13-.05.38-.15.75-.35,1.11-1.02,1.98-2.03,2.61-1,.63-2.16.95-3.47.95s-2.48-.33-3.45-1h-.01Z" style="fill:#fff;"/><path d="M207.15,177.64c-1-.73-1.68-1.73-2.04-2.99-.23-.78-.35-1.63-.35-2.54,0-.98.12-1.86.35-2.64.38-1.23,1.07-2.19,2.07-2.89s2.19-1.05,3.58-1.05,2.52.34,3.49,1.03c.96.69,1.64,1.65,2.04,2.88.27.83.4,1.7.4,2.61s-.12,1.73-.35,2.51c-.37,1.29-1.04,2.31-2.03,3.05s-2.18,1.11-3.57,1.11-2.59-.37-3.58-1.1v.02ZM212.13,175.23c.38-.33.66-.79.82-1.37.13-.53.2-1.11.2-1.74,0-.7-.07-1.29-.2-1.77-.18-.56-.46-1-.85-1.32-.38-.32-.85-.47-1.39-.47s-1.03.16-1.41.47c-.37.32-.64.75-.81,1.32-.13.4-.2.99-.2,1.77s.06,1.33.17,1.74c.17.58.44,1.04.83,1.37.39.33.87.5,1.43.5s1.01-.17,1.39-.5h.02Z" style="fill:#fff;"/><path d="M236.18,166.71c.73.78,1.1,1.88,1.1,3.29v8.24c0,.08-.03.15-.09.21s-.13.09-.21.09h-2.91c-.08,0-.15-.03-.21-.09s-.09-.13-.09-.21v-7.47c0-.68-.17-1.22-.52-1.62s-.81-.6-1.39-.6-1.05.2-1.42.6-.55.93-.55,1.59v7.49c0,.08-.03.15-.09.21s-.13.09-.21.09h-2.89c-.08,0-.15-.03-.21-.09s-.09-.13-.09-.21v-7.47c0-.66-.18-1.2-.55-1.61-.37-.41-.84-.61-1.42-.61-.53,0-.98.16-1.33.47-.36.32-.57.75-.64,1.32v7.89c0,.08-.03.15-.09.21s-.13.09-.21.09h-2.91c-.08,0-.15-.03-.21-.09s-.09-.13-.09-.21v-12.19c0-.08.03-.15.09-.21s.13-.09.21-.09h2.91c.08,0,.15.03.21.09s.09.13.09.21v.97s.02.08.05.1.07,0,.1-.05c.68-1.01,1.73-1.52,3.16-1.52.83,0,1.56.17,2.18.52s1.1.85,1.43,1.49c.05.1.11.1.17,0,.36-.68.86-1.19,1.48-1.52.62-.33,1.32-.5,2.1-.5,1.29,0,2.31.39,3.04,1.17v.03Z" style="fill:#fff;"/><path d="M240.23,163.74c-.37-.37-.56-.84-.56-1.41s.18-1.05.55-1.42c.36-.37.84-.55,1.42-.55s1.05.18,1.42.55c.36.37.55.84.55,1.42s-.19,1.03-.56,1.41c-.37.37-.84.56-1.41.56s-1.03-.19-1.41-.56ZM239.93,178.45c-.06-.06-.09-.13-.09-.21v-12.21c0-.08.03-.15.09-.21s.13-.09.21-.09h2.91c.08,0,.15.03.21.09s.09.13.09.21v12.21c0,.08-.03.15-.09.21s-.13.09-.21.09h-2.91c-.08,0-.15-.03-.21-.09Z" style="fill:#fff;"/><path d="M255.97,166.76c.81.81,1.22,1.92,1.22,3.31v8.17c0,.08-.03.15-.09.21s-.13.09-.21.09h-2.91c-.08,0-.15-.03-.21-.09s-.09-.13-.09-.21v-7.44c0-.66-.19-1.2-.56-1.62-.37-.41-.87-.62-1.48-.62s-1.11.21-1.48.62c-.37.42-.56.96-.56,1.62v7.44c0,.08-.03.15-.09.21s-.13.09-.21.09h-2.91c-.08,0-.15-.03-.21-.09s-.09-.13-.09-.21v-12.19c0-.08.03-.15.09-.21s.13-.09.21-.09h2.91c.08,0,.15.03.21.09s.09.13.09.21v.87s.02.08.05.1.06,0,.07-.03c.68-.96,1.69-1.44,3.04-1.44s2.4.41,3.21,1.22Z" style="fill:#fff;"/><path d="M267.61,165.83c.06-.06.13-.09.21-.09h2.91c.08,0,.15.03.21.09s.09.13.09.21v11.34c0,2.17-.63,3.73-1.88,4.66s-2.87,1.39-4.84,1.39c-.58,0-1.23-.04-1.94-.12-.17-.02-.25-.12-.25-.32l.1-2.56c0-.22.12-.31.35-.27.6.1,1.15.15,1.64.15,1.06,0,1.88-.23,2.45-.7s.86-1.21.86-2.24c0-.05-.02-.08-.05-.09-.03,0-.07,0-.1.04-.63.68-1.55,1.02-2.76,1.02-1.08,0-2.07-.26-2.98-.78-.9-.52-1.55-1.37-1.93-2.53-.25-.76-.37-1.75-.37-2.96,0-1.29.15-2.35.45-3.16.35-1.01.94-1.83,1.77-2.44s1.79-.92,2.89-.92c1.28,0,2.26.38,2.94,1.15.03.03.07.05.1.04.03,0,.05-.04.05-.09v-.6c0-.08.03-.15.09-.21v-.02ZM267.53,172.04c0-.51-.02-.91-.05-1.19s-.09-.55-.17-.8c-.15-.45-.4-.81-.75-1.08s-.78-.41-1.29-.41-.92.14-1.27.41c-.35.27-.61.63-.77,1.08-.23.5-.35,1.17-.35,2.02,0,.93.1,1.59.3,1.99.15.45.41.81.78,1.08s.82.41,1.33.41.97-.14,1.32-.41.59-.63.72-1.06c.13-.5.2-1.18.2-2.04h0Z" style="fill:#fff;"/><path d="M113.12,211.3c-.03-.06-.05-.13-.05-.21v-2.29c0-.08.03-.15.09-.21s.13-.09.21-.09c.7-.02,1.25-.08,1.66-.17.41-.1.73-.29.97-.57s.43-.7.56-1.25c.02-.03.02-.08,0-.15l-4.08-12.39s-.02-.08-.02-.12c0-.15.09-.22.27-.22h3.11c.18,0,.3.08.35.25l2.09,8.07s.04.07.07.07.06-.02.07-.07l2.09-8.07c.05-.17.17-.25.35-.25h3.04c.1,0,.17.03.21.09.04.06.05.15,0,.26l-4.31,12.94c-.42,1.21-.84,2.12-1.27,2.73-.43.61-1.04,1.05-1.82,1.33-.78.28-1.88.42-3.31.42h-.17s-.09-.03-.12-.09h0Z" style="fill:#fff;"/><path d="M127.11,205.54c-1-.73-1.68-1.73-2.04-2.99-.23-.78-.35-1.63-.35-2.54,0-.98.12-1.86.35-2.64.38-1.23,1.07-2.19,2.07-2.89s2.19-1.05,3.58-1.05,2.52.34,3.49,1.03c.96.69,1.64,1.65,2.04,2.88.27.83.4,1.7.4,2.61s-.12,1.73-.35,2.51c-.37,1.29-1.04,2.31-2.03,3.05s-2.18,1.11-3.57,1.11-2.59-.37-3.58-1.1v.02ZM132.09,203.12c.38-.33.66-.79.82-1.37.13-.53.2-1.11.2-1.74,0-.7-.07-1.29-.2-1.77-.18-.56-.46-1-.85-1.32-.38-.32-.85-.47-1.39-.47s-1.03.16-1.41.47c-.37.32-.64.75-.81,1.32-.13.4-.2.99-.2,1.77s.06,1.33.17,1.74c.17.58.44,1.04.83,1.37s.87.5,1.43.5,1.01-.17,1.39-.5h.02Z" style="fill:#fff;"/><path d="M146.47,193.73c.06-.06.13-.09.21-.09h2.91c.08,0,.15.03.21.09.06.06.09.13.09.21v12.19c0,.08-.03.15-.09.21s-.13.09-.21.09h-2.91c-.08,0-.15-.03-.21-.09-.06-.06-.09-.13-.09-.21v-.85s-.02-.08-.05-.09c-.03,0-.07.01-.1.06-.66.9-1.69,1.34-3.09,1.34-1.26,0-2.3-.38-3.11-1.14s-1.22-1.83-1.22-3.21v-8.32c0-.08.03-.15.09-.21s.13-.09.21-.09h2.89c.08,0,.15.03.21.09.06.06.09.13.09.21v7.44c0,.66.18,1.2.54,1.62.36.42.85.62,1.48.62.56,0,1.03-.17,1.39-.51s.59-.78.67-1.33v-7.84c0-.08.03-.15.09-.21h0Z" style="fill:#fff;"/><path d="M162.37,194.67c.81.81,1.22,1.92,1.22,3.31v8.17c0,.08-.03.15-.09.21s-.13.09-.21.09h-2.91c-.08,0-.15-.03-.21-.09-.06-.06-.09-.13-.09-.21v-7.44c0-.66-.19-1.2-.56-1.62-.37-.41-.87-.62-1.48-.62s-1.11.21-1.48.62c-.37.42-.56.96-.56,1.62v7.44c0,.08-.03.15-.09.21s-.13.09-.21.09h-2.91c-.08,0-.15-.03-.21-.09-.06-.06-.09-.13-.09-.21v-12.19c0-.08.03-.15.09-.21s.13-.09.21-.09h2.91c.08,0,.15.03.21.09.06.06.09.13.09.21v.87s.02.08.05.1.06,0,.07-.03c.68-.96,1.69-1.44,3.04-1.44s2.4.41,3.21,1.22h0Z" style="fill:#fff;"/><path d="M174.01,193.73c.06-.06.13-.09.21-.09h2.91c.08,0,.15.03.21.09s.09.13.09.21v11.34c0,2.17-.63,3.73-1.88,4.66s-2.87,1.39-4.84,1.39c-.58,0-1.23-.04-1.94-.12-.17-.02-.25-.12-.25-.32l.1-2.56c0-.22.12-.31.35-.27.6.1,1.15.15,1.64.15,1.06,0,1.88-.23,2.45-.7s.86-1.21.86-2.24c0-.05-.02-.08-.05-.09-.03,0-.07,0-.1.04-.63.68-1.55,1.02-2.76,1.02-1.08,0-2.07-.26-2.98-.78-.9-.52-1.55-1.37-1.93-2.53-.25-.76-.37-1.75-.37-2.96,0-1.29.15-2.35.45-3.16.35-1.01.94-1.83,1.77-2.44s1.79-.92,2.89-.92c1.28,0,2.26.38,2.94,1.15.03.03.07.05.1.04.03,0,.05-.04.05-.09v-.6c0-.08.03-.15.09-.21v-.02ZM173.92,199.95c0-.51-.02-.91-.05-1.19s-.09-.55-.17-.8c-.15-.45-.4-.81-.75-1.08s-.78-.41-1.29-.41-.92.14-1.27.41c-.35.27-.61.63-.77,1.08-.23.5-.35,1.17-.35,2.02,0,.93.1,1.59.3,1.99.15.45.41.81.78,1.08s.82.41,1.33.41.97-.14,1.32-.41.59-.63.72-1.06c.13-.5.2-1.18.2-2.04h0Z" style="fill:#fff;"/><path d="M187.11,206.13c-.83-.32-1.47-.75-1.93-1.32-.46-.56-.68-1.2-.68-1.92v-.25c0-.08.03-.15.09-.21s.13-.09.21-.09h2.76c.08,0,.15.03.21.09s.09.13.09.21v.02c0,.37.2.68.61.93.41.26.92.39,1.53.39.56,0,1.02-.11,1.37-.34.35-.22.52-.5.52-.83,0-.3-.15-.52-.45-.67s-.79-.31-1.47-.47c-.78-.2-1.39-.39-1.84-.57-1.06-.36-1.91-.81-2.54-1.34s-.95-1.29-.95-2.29c0-1.23.48-2.2,1.43-2.92.95-.72,2.22-1.08,3.8-1.08,1.06,0,1.99.17,2.79.51.8.34,1.42.82,1.85,1.43.44.61.66,1.31.66,2.09,0,.08-.03.15-.09.21s-.13.09-.21.09h-2.66c-.08,0-.15-.03-.21-.09s-.09-.13-.09-.21c0-.37-.19-.67-.56-.92s-.87-.37-1.48-.37c-.55,0-1,.1-1.34.3-.35.2-.52.47-.52.82s.17.58.51.75.91.34,1.71.52c.18.05.39.1.62.16.23.06.48.13.75.21,1.18.35,2.11.8,2.79,1.34.68.55,1.02,1.34,1.02,2.39,0,1.23-.49,2.19-1.46,2.88s-2.28,1.03-3.92,1.03c-1.11,0-2.08-.16-2.91-.47h0Z" style="fill:#fff;"/><path d="M209.3,200.07c0,1.14-.16,2.18-.47,3.11-.38,1.06-.98,1.91-1.8,2.53-.82.62-1.84.93-3.05.93s-2.12-.42-2.79-1.25c-.03-.05-.07-.07-.1-.05-.03.02-.05.05-.05.1v5.33c0,.08-.03.15-.09.21s-.13.09-.21.09h-2.91c-.08,0-.15-.03-.21-.09s-.09-.13-.09-.21v-16.82c0-.08.03-.15.09-.21s.13-.09.21-.09h2.91c.08,0,.15.03.21.09s.09.13.09.21v.82s.02.08.05.09.07,0,.1-.04c.7-.91,1.66-1.37,2.89-1.37,1.15,0,2.14.32,2.98.96.84.64,1.44,1.53,1.8,2.68.3.85.45,1.84.45,2.99h-.01ZM205.66,200.02c0-1.05-.17-1.88-.52-2.49-.38-.71-1-1.07-1.84-1.07-.76,0-1.34.36-1.72,1.07-.35.6-.52,1.44-.52,2.51s.18,1.98.55,2.59c.38.66.95,1,1.69,1s1.33-.32,1.74-.97.62-1.53.62-2.64Z" style="fill:#fff;"/><path d="M213.63,205.54c-1-.73-1.68-1.73-2.04-2.99-.23-.78-.35-1.63-.35-2.54,0-.98.12-1.86.35-2.64.38-1.23,1.07-2.19,2.07-2.89s2.19-1.05,3.58-1.05,2.52.34,3.49,1.03c.96.69,1.64,1.65,2.04,2.88.27.83.4,1.7.4,2.61s-.12,1.73-.35,2.51c-.37,1.29-1.04,2.31-2.03,3.05s-2.18,1.11-3.57,1.11-2.59-.37-3.58-1.1v.02ZM218.61,203.12c.38-.33.66-.79.82-1.37.13-.53.2-1.11.2-1.74,0-.7-.07-1.29-.2-1.77-.18-.56-.46-1-.85-1.32-.38-.32-.85-.47-1.39-.47s-1.03.16-1.41.47c-.37.32-.64.75-.81,1.32-.13.4-.2.99-.2,1.77s.06,1.33.17,1.74c.17.58.44,1.04.83,1.37.39.33.87.5,1.43.5s1.01-.17,1.39-.5h.02Z" style="fill:#fff;"/><path d="M233.22,193.82c.13.07.18.19.15.37l-.52,2.84c-.02.2-.13.26-.35.17-.25-.08-.54-.12-.87-.12-.13,0-.32.02-.55.05-.6.05-1.1.27-1.52.66-.42.39-.62.91-.62,1.56v6.8c0,.08-.03.15-.09.21s-.13.09-.21.09h-2.91c-.08,0-.15-.03-.21-.09s-.09-.13-.09-.21v-12.19c0-.08.03-.15.09-.21s.13-.09.21-.09h2.91c.08,0,.15.03.21.09s.09.13.09.21v.95s.02.08.05.1.06,0,.07-.02c.68-1,1.59-1.49,2.74-1.49.6,0,1.07.12,1.42.35v-.02Z" style="fill:#fff;"/><path d="M242.34,196.37c-.06.06-.13.09-.21.09h-2.39c-.08,0-.12.04-.12.12v5.28c0,.55.11.96.34,1.22.22.27.58.4,1.08.4h.82c.08,0,.15.03.21.09s.09.13.09.21v2.37c0,.18-.1.29-.3.32-.7.03-1.2.05-1.49.05-1.38,0-2.41-.23-3.09-.68-.68-.46-1.03-1.31-1.05-2.58v-6.67c0-.08-.04-.12-.12-.12h-1.42c-.08,0-.15-.03-.21-.09s-.09-.13-.09-.21v-2.22c0-.08.03-.15.09-.21s.13-.09.21-.09h1.42c.08,0,.12-.04.12-.12v-2.96c0-.08.03-.15.09-.21s.13-.09.21-.09h2.79c.08,0,.15.03.21.09s.09.13.09.21v2.96c0,.08.04.12.12.12h2.39c.08,0,.15.03.21.09s.09.13.09.21v2.22c0,.08-.03.15-.09.21h0Z" style="fill:#fff;"/><path d="M245.03,191.64c-.37-.37-.56-.84-.56-1.41s.18-1.05.55-1.42c.36-.37.84-.55,1.42-.55s1.05.18,1.42.55c.36.37.55.84.55,1.42s-.19,1.03-.56,1.41c-.37.37-.84.56-1.41.56s-1.03-.19-1.41-.56ZM244.73,206.35c-.06-.06-.09-.13-.09-.21v-12.21c0-.08.03-.15.09-.21s.13-.09.21-.09h2.91c.08,0,.15.03.21.09s.09.13.09.21v12.21c0,.08-.03.15-.09.21s-.13.09-.21.09h-2.91c-.08,0-.15-.03-.21-.09Z" style="fill:#fff;"/><path d="M260.78,194.67c.81.81,1.22,1.92,1.22,3.31v8.17c0,.08-.03.15-.09.21s-.13.09-.21.09h-2.91c-.08,0-.15-.03-.21-.09s-.09-.13-.09-.21v-7.44c0-.66-.19-1.2-.56-1.62-.37-.41-.87-.62-1.48-.62s-1.11.21-1.48.62c-.37.42-.56.96-.56,1.62v7.44c0,.08-.03.15-.09.21s-.13.09-.21.09h-2.91c-.08,0-.15-.03-.21-.09s-.09-.13-.09-.21v-12.19c0-.08.03-.15.09-.21s.13-.09.21-.09h2.91c.08,0,.15.03.21.09s.09.13.09.21v.87s.02.08.05.1.06,0,.07-.03c.68-.96,1.69-1.44,3.04-1.44s2.4.41,3.21,1.22Z" style="fill:#fff;"/><path d="M272.42,193.73c.06-.06.13-.09.21-.09h2.91c.08,0,.15.03.21.09s.09.13.09.21v11.34c0,2.17-.63,3.73-1.88,4.66s-2.87,1.39-4.84,1.39c-.58,0-1.23-.04-1.94-.12-.17-.02-.25-.12-.25-.32l.1-2.56c0-.22.12-.31.35-.27.6.1,1.15.15,1.64.15,1.06,0,1.88-.23,2.45-.7s.86-1.21.86-2.24c0-.05-.02-.08-.05-.09-.03,0-.07,0-.1.04-.63.68-1.55,1.02-2.76,1.02-1.08,0-2.07-.26-2.98-.78-.9-.52-1.55-1.37-1.93-2.53-.25-.76-.37-1.75-.37-2.96,0-1.29.15-2.35.45-3.16.35-1.01.94-1.83,1.77-2.44s1.79-.92,2.89-.92c1.28,0,2.26.38,2.94,1.15.03.03.07.05.1.04.03,0,.05-.04.05-.09v-.6c0-.08.03-.15.09-.21v-.02ZM272.33,199.95c0-.51-.02-.91-.05-1.19s-.09-.55-.17-.8c-.15-.45-.4-.81-.75-1.08s-.78-.41-1.29-.41-.92.14-1.27.41c-.35.27-.61.63-.77,1.08-.23.5-.35,1.17-.35,2.02,0,.93.1,1.59.3,1.99.15.45.41.81.78,1.08s.82.41,1.33.41.97-.14,1.32-.41.59-.63.72-1.06c.13-.5.2-1.18.2-2.04h0Z" style="fill:#fff;"/><path d="M291.33,194.01c.85.37,1.51.88,1.98,1.53s.71,1.37.71,2.17v8.44c0,.08-.03.15-.09.21s-.13.09-.21.09h-2.91c-.08,0-.15-.03-.21-.09s-.09-.13-.09-.21v-.82s-.02-.08-.05-.1c-.03-.02-.07,0-.1.05-.7.91-1.82,1.37-3.36,1.37-1.29,0-2.34-.32-3.14-.95s-1.19-1.56-1.19-2.79.45-2.27,1.34-2.98c.9-.71,2.17-1.06,3.83-1.06h2.54c.08,0,.12-.04.12-.12v-.55c0-.55-.17-.98-.5-1.28-.33-.31-.83-.46-1.49-.46-.51,0-.94.09-1.28.27s-.56.44-.66.77c-.05.18-.16.27-.32.25l-3.01-.4c-.2-.03-.29-.11-.27-.22.07-.7.34-1.33.83-1.89.49-.56,1.14-1,1.94-1.32s1.71-.47,2.7-.47c1.08,0,2.04.19,2.89.56h0ZM289.76,203.45c.5-.38.75-.87.75-1.47v-.9c0-.08-.04-.12-.12-.12h-1.79c-.75,0-1.33.14-1.76.42s-.63.68-.63,1.2c0,.45.16.8.47,1.06s.74.39,1.27.39c.71,0,1.32-.19,1.82-.57h0Z" style="fill:#fff;"/><path d="M303.49,196.37c-.06.06-.13.09-.21.09h-2.39c-.08,0-.12.04-.12.12v5.28c0,.55.11.96.34,1.22.22.27.58.4,1.08.4h.82c.08,0,.15.03.21.09s.09.13.09.21v2.37c0,.18-.1.29-.3.32-.7.03-1.2.05-1.49.05-1.38,0-2.41-.23-3.09-.68-.68-.46-1.03-1.31-1.05-2.58v-6.67c0-.08-.04-.12-.12-.12h-1.42c-.08,0-.15-.03-.21-.09s-.09-.13-.09-.21v-2.22c0-.08.03-.15.09-.21s.13-.09.21-.09h1.42c.08,0,.12-.04.12-.12v-2.96c0-.08.03-.15.09-.21s.13-.09.21-.09h2.79c.08,0,.15.03.21.09s.09.13.09.21v2.96c0,.08.04.12.12.12h2.39c.08,0,.15.03.21.09s.09.13.09.21v2.22c0,.08-.03.15-.09.21h0Z" style="fill:#fff;"/><path d="M315.57,194.67c.81.81,1.22,1.92,1.22,3.31v8.17c0,.08-.03.15-.09.21s-.13.09-.21.09h-2.91c-.08,0-.15-.03-.21-.09s-.09-.13-.09-.21v-7.44c0-.66-.19-1.2-.56-1.62-.37-.41-.87-.62-1.48-.62s-1.11.21-1.48.62c-.37.42-.56.96-.56,1.62v7.44c0,.08-.03.15-.09.21s-.13.09-.21.09h-2.91c-.08,0-.15-.03-.21-.09s-.09-.13-.09-.21v-16.82c0-.08.03-.15.09-.21s.13-.09.21-.09h2.91c.08,0,.15.03.21.09s.09.13.09.21v5.5s.02.08.05.1.06,0,.07-.03c.68-.96,1.69-1.44,3.04-1.44s2.4.41,3.21,1.22h0Z" style="fill:#fff;"/><path d="M319.4,206.35c-.06-.06-.09-.13-.09-.21v-16.82c0-.08.03-.15.09-.21s.13-.09.21-.09h2.91c.08,0,.15.03.21.09s.09.13.09.21v16.82c0,.08-.03.15-.09.21s-.13.09-.21.09h-2.91c-.08,0-.15-.03-.21-.09Z" style="fill:#fff;"/><path d="M336.81,200.84c-.02.2-.12.3-.32.3h-7.69c-.1,0-.13.04-.1.12.05.33.14.66.27,1,.43.93,1.31,1.39,2.64,1.39,1.06-.02,1.9-.45,2.51-1.29.07-.1.14-.15.22-.15.05,0,.11.03.17.1l1.79,1.77c.08.08.12.16.12.22,0,.03-.03.1-.1.2-.55.68-1.25,1.21-2.12,1.58-.86.37-1.81.56-2.84.56-1.43,0-2.63-.32-3.62-.97s-1.7-1.55-2.13-2.71c-.35-.83-.52-1.92-.52-3.26,0-.91.12-1.72.37-2.42.38-1.18,1.05-2.12,2-2.81.95-.7,2.09-1.05,3.4-1.05,1.66,0,2.99.48,4,1.44,1,.96,1.61,2.25,1.83,3.86.1.63.13,1.34.1,2.12h.02ZM328.84,197.93c-.07.22-.12.48-.17.8,0,.08.04.12.12.12h4.31c.1,0,.13-.04.1-.12-.08-.48-.12-.71-.12-.7-.15-.5-.41-.88-.78-1.16-.37-.27-.83-.41-1.38-.41-1.05,0-1.73.49-2.07,1.47h0Z" style="fill:#fff;"/><path d="M345.96,196.37c-.06.06-.13.09-.21.09h-2.39c-.08,0-.12.04-.12.12v5.28c0,.55.11.96.34,1.22.22.27.58.4,1.08.4h.82c.08,0,.15.03.21.09s.09.13.09.21v2.37c0,.18-.1.29-.3.32-.7.03-1.2.05-1.49.05-1.38,0-2.41-.23-3.09-.68-.68-.46-1.03-1.31-1.05-2.58v-6.67c0-.08-.04-.12-.12-.12h-1.42c-.08,0-.15-.03-.21-.09s-.09-.13-.09-.21v-2.22c0-.08.03-.15.09-.21s.13-.09.21-.09h1.42c.08,0,.12-.04.12-.12v-2.96c0-.08.03-.15.09-.21s.13-.09.21-.09h2.79c.08,0,.15.03.21.09s.09.13.09.21v2.96c0,.08.04.12.12.12h2.39c.08,0,.15.03.21.09s.09.13.09.21v2.22c0,.08-.03.15-.09.21h0Z" style="fill:#fff;"/><path d="M359.44,200.84c-.02.2-.12.3-.32.3h-7.69c-.1,0-.13.04-.1.12.05.33.14.66.27,1,.43.93,1.31,1.39,2.64,1.39,1.06-.02,1.9-.45,2.51-1.29.07-.1.14-.15.22-.15.05,0,.11.03.17.1l1.79,1.77c.08.08.12.16.12.22,0,.03-.03.1-.1.2-.55.68-1.25,1.21-2.12,1.58-.86.37-1.81.56-2.84.56-1.43,0-2.63-.32-3.62-.97s-1.7-1.55-2.13-2.71c-.35-.83-.52-1.92-.52-3.26,0-.91.12-1.72.37-2.42.38-1.18,1.05-2.12,2-2.81.95-.7,2.09-1.05,3.4-1.05,1.66,0,2.99.48,4,1.44,1,.96,1.61,2.25,1.83,3.86.1.63.13,1.34.1,2.12h.02ZM351.47,197.93c-.07.22-.12.48-.17.8,0,.08.04.12.12.12h4.31c.1,0,.13-.04.1-.12-.08-.48-.12-.71-.12-.7-.15-.5-.41-.88-.78-1.16-.37-.27-.83-.41-1.38-.41-1.05,0-1.73.49-2.07,1.47h0Z" style="fill:#fff;"/><path d="M363.65,206.13c-.83-.32-1.47-.75-1.93-1.32-.46-.56-.68-1.2-.68-1.92v-.25c0-.08.03-.15.09-.21s.13-.09.21-.09h2.76c.08,0,.15.03.21.09s.09.13.09.21v.02c0,.37.2.68.61.93.41.26.92.39,1.53.39.56,0,1.02-.11,1.37-.34.35-.22.52-.5.52-.83,0-.3-.15-.52-.45-.67s-.79-.31-1.47-.47c-.78-.2-1.39-.39-1.84-.57-1.06-.36-1.91-.81-2.54-1.34s-.95-1.29-.95-2.29c0-1.23.48-2.2,1.43-2.92.95-.72,2.22-1.08,3.8-1.08,1.06,0,1.99.17,2.79.51.8.34,1.42.82,1.85,1.43.44.61.66,1.31.66,2.09,0,.08-.03.15-.09.21s-.13.09-.21.09h-2.66c-.08,0-.15-.03-.21-.09s-.09-.13-.09-.21c0-.37-.19-.67-.56-.92s-.87-.37-1.48-.37c-.55,0-1,.1-1.34.3-.35.2-.52.47-.52.82s.17.58.51.75.91.34,1.71.52c.18.05.39.1.62.16.23.06.48.13.75.21,1.18.35,2.11.8,2.79,1.34.68.55,1.02,1.34,1.02,2.39,0,1.23-.49,2.19-1.46,2.88s-2.28,1.03-3.92,1.03c-1.11,0-2.08-.16-2.91-.47h0Z" style="fill:#fff;"/><path d="M350.79,108.97l.35-12.58h5.51l1.19,6.76c1.13.47,2.31.84,3.56,1.12,1.5.32,2.95.49,4.37.49,1.64,0,3.14-.22,4.49-.68,1.36-.45,2.44-1.13,3.25-2.05s1.22-2.06,1.22-3.43-.43-2.54-1.28-3.42c-.86-.88-2-1.62-3.42-2.22-1.42-.61-2.98-1.16-4.68-1.67-1.7-.51-3.4-1.09-5.1-1.75s-3.27-1.49-4.69-2.51c-1.42-1.02-2.56-2.31-3.42-3.88-.86-1.57-1.28-3.55-1.28-5.94,0-3.13.75-5.71,2.26-7.73,1.5-2.03,3.55-3.55,6.13-4.56,2.58-1.01,5.48-1.52,8.7-1.52,2.29,0,4.68.24,7.17.72,2.49.48,4.97,1.21,7.43,2.18l-.71,11.65h-5.64l-1.26-6.53c-.85-.28-1.73-.51-2.66-.68-1.27-.24-2.54-.35-3.83-.35-1.48,0-2.86.18-4.14.55-1.28.37-2.31.96-3.09,1.77-.77.81-1.16,1.88-1.16,3.21s.44,2.37,1.31,3.22,2.02,1.57,3.44,2.17,2.99,1.17,4.71,1.71c1.72.54,3.43,1.15,5.12,1.85,1.7.69,3.26,1.56,4.68,2.6,1.42,1.04,2.57,2.36,3.44,3.96s1.31,3.58,1.31,5.94c0,3.3-.85,6.02-2.56,8.14-1.7,2.12-3.98,3.7-6.82,4.72-2.84,1.03-5.97,1.54-9.39,1.54-2.36,0-4.77-.23-7.24-.7-2.46-.46-4.89-1.16-7.28-2.09M298.19,64.53l19.25-.33v4.76l-4.87,1.67v22.93c0,1.15.05,2.26.15,3.34s.31,2.07.62,2.99.79,1.71,1.44,2.39,1.51,1.21,2.59,1.59c1.08.38,2.43.58,4.07.58s3.08-.2,4.18-.61c1.11-.41,2-.97,2.69-1.7s1.2-1.59,1.54-2.57c.34-.98.56-2.05.66-3.21s.15-2.38.15-3.66v-22.12l-4.87-1.28v-4.76l19.25-.33v4.76l-4.87,1.63v22.11c0,2.23-.21,4.31-.63,6.25s-1.1,3.69-2.02,5.26c-.93,1.56-2.12,2.91-3.58,4.04-1.46,1.13-3.24,1.99-5.33,2.59-2.09.6-4.53.9-7.3.9-3.64,0-6.62-.45-8.94-1.35-2.32-.9-4.12-2.08-5.4-3.53s-2.19-3.01-2.73-4.66c-.54-1.65-.87-3.24-1-4.76-.13-1.52-.19-2.81-.19-3.87v-22.94l-4.87-1.32v-4.79ZM265.33,70.99h-4.74v16.56h3.36c2.97,0,5.22-.8,6.77-2.39s2.32-3.71,2.32-6.35c0-2.43-.65-4.35-1.96-5.74s-3.23-2.09-5.77-2.09h.02ZM246.21,64.53l14.58-.33h6.04c3.67,0,6.68.63,9.02,1.9,2.34,1.27,4.07,2.99,5.2,5.16s1.69,4.62,1.69,7.37c0,2.96-.67,5.65-2.01,8.04-1.34,2.4-3.4,4.29-6.17,5.67-2.77,1.38-6.31,2.07-10.62,2.07h-3.34v10.35l6.31,1.42v4.76h-20.69v-4.76l4.87-1.42v-34.15l-4.87-1.3v-4.76h0ZM209.9,64.53l19.72-.33v4.76l-5.33,1.66v33.46h11.97l1.26-7.21h5.64v14.04h-33.26v-4.76l4.87-1.41v-34.12l-4.87-1.34v-4.76h0ZM167.81,64.53l14.18-.33h19.67v11.94h-5.64l-1.08-5.11h-12.76v12.78h14.3v6.62h-14.3v13.64h13.55l1.1-5.62h5.64l-.09,12.45h-34.59v-4.76l4.87-1.44v-34.08l-4.87-1.35v-4.76h.02ZM114.44,64.53l19.25-.33v4.76l-4.87,1.64v13.09h18.7v-13.04l-4.87-1.36v-4.76l19.25-.33v4.76l-4.87,1.64v34.13l4.87,1.43v4.76h-19.25v-4.76l4.87-1.45v-14.18h-18.7v14.18l4.87,1.45v4.76h-19.25v-4.76l4.87-1.44v-34.07l-4.87-1.36v-4.76Z" style="fill:#fff; fill-rule:evenodd;"/><g style="clip-path:url(#uuid-158ba566-9078-4f91-b74c-c0e2388c1e6e);"><g style="clip-path:url(#uuid-93658df9-0c4d-4c3a-8ee8-2ecb8d6d7dd6);"><path d="M300.99,559.21h-130.76v-70.65h130.76v70.65ZM263.5,465.89h25.71l11.78,22.67h-130.76l11.78-22.67h24.93" style="fill:none; stroke:#fff; stroke-linecap:round; stroke-linejoin:round; stroke-width:3.21px;"/></g></g><g style="clip-path:url(#uuid-104aa84c-d3a5-4cbb-9f5b-ff85dbdc31e4);"><line x1="265.06" y1="477.37" x2="206.16" y2="477.37" style="fill:none; stroke:#fff; stroke-linecap:round; stroke-linejoin:round; stroke-width:3.21px;"/><ellipse cx="235.61" cy="450.88" rx="20.91" ry="20.9" style="fill:none; stroke:#fff; stroke-linecap:round; stroke-linejoin:round; stroke-width:3.21px;"/><path d="M230.06,456.11c.53-.32.93-.61,1.2-.86s.48-.58.62-.97c.14-.39.22-.9.22-1.52,0-.56-.03-.98-.1-1.25h-1.9v-2.71h1.58l-.17-.7c-.11-.45-.22-.98-.32-1.6s-.16-1.1-.16-1.45c0-1.52.42-2.65,1.27-3.38.85-.74,2.06-1.1,3.62-1.1s2.78.48,3.49,1.45c.71.97,1.07,2.37,1.07,4.21h-3.74c0-.74-.04-1.29-.12-1.66s-.29-.55-.62-.55c-.22,0-.38.07-.48.2-.1.14-.15.32-.17.56-.02.24-.02.48-.02.72v.14c0,.4.22,1.45.67,3.14h3.31v2.71h-2.9l.12,1.56c-.03.67-.2,1.26-.5,1.75s-.69.89-1.15,1.18h5.49v3.41h-10.32v-3.29h.01Z" style="fill:#16a34c;"/><path d="M218.33,520.87s2.58,2.42,2.85,3.18c.82,2.28,1.55,7.91.98,8.81-1.02,1.6-3.75,1.96-4.73,2.12s-3.59-4.24-3.59-4.24c0,0,.49,4.57,4.08,8.48s5.87,5.06,5.87,5.06c0,0-3.01-3.35-3.59-5.38-.36-1.27,1.69-3.45,3.42-4.24,1.79-.82,6.03,1.63,7.34,2.12s4.73,5.55,4.57,7.01c-.16,1.47-2.61,2.77-4.4,2.77s-3.42-.33-3.42-.33c0,0,3.1,2.28,9.95,1.96,6.85-.33,12.23-3.59,12.56-4.24.33-.65-3.05-.49-1.87-2.37.82-1.31,1.79-3.26,1.79-3.26,0,0-1.63,1.79-3.26,3.1s-7.42,2.53-8.56,1.55c-1.14-.98-3.42-4.08-3.99-6.61-.26-1.16,3.5-5.3,4.16-5.95.65-.65,8.56-2.69,7.75-2.53-1.95.39-7.34-.28-8.64-1.96-1.14-1.47-3.23-4.02-2.77-6.68.41-2.37.82-4.24,1.63-6.03.19-.42-2.61,4.08-4.4,5.22-2.29,1.46-3.97,1.9-6.52,2.61-2.94.81-3.1,1.47-6.52-2.77-1.7-2.1,1.58-6.87,2.28-7.5,1.55-1.39,4.16-2.04,7.74-3.34,0,0,.38-.32-.98,0-2.36.57-5.55,1.41-6.85.65-1.55-.9.82-3.42,2.12-4.24,0,0-5.66,3.51-8.64,10.6-3.42,8.15-1.14,14.67-1.14,14.67,0,0-.33-5.06.82-7.18.8-1.48,1.71-2.69,4-1.06" style="fill:#fff;"/><path d="M224.48,503.66c1.99-1.49,9.51-4.78,17.32-3.35,9.62,1.76,15.96,8.48,18.26,16.14.88,2.95,1.52,5.8.99,10.3-1.14,9.61-6.93,15.12-9.08,16.44,0,0,6.11-6.38,3.97-17.34-1.83-9.34-10.96-11.59-18.78-13.56-3.3-.83-4.03-5.12,1.47-4.12,5.5,1,7.34,2.06,8.19,1.22,1.34-1.32-3.76-4.54-9.28-5.41-3.14-.5-7.51-.18-12.33,1.16-2.24.62-2.06-.49-.72-1.5" style="fill:#16a34c;"/></g><g style="clip-path:url(#uuid-c1130d03-fe34-44ce-8a70-bef5aff97355);"><path d="M161.21,419.04c.25,1.86.37,3.8.38,5.8h0c0,.64,0,1.3-.04,1.95,0,.18,0,.35-.02.53h0c-.14,2.71-.49,5.52-1.1,8.38-.36,1.7-.79,3.35-1.28,4.95-.12.39-.24.77-.37,1.15-.59,1.78-1.27,3.49-2.01,5.12-.27.59-.55,1.17-.83,1.74-.6,1.19-1.23,2.33-1.9,3.42-5.6,9.13-13.5,14.6-20.97,13.45-4.16-.64-7.6-3.24-10.1-7.18-.31-.49-.61-1.01-.9-1.55-.33-.63-.65-1.29-.93-1.97-.43-1.01-.82-2.09-1.15-3.21-.68-2.31-1.15-4.84-1.38-7.52-.09-1.1-.15-2.22-.16-3.36,0-1.03,0-2.08.07-3.14.06-1.15.16-2.32.31-3.51.02-.17.04-.34.07-.51.18-1.36.42-2.75.71-4.14.02-.11.05-.23.07-.34.03-.16.07-.33.11-.49.44-1.95.98-3.84,1.6-5.66.05-.16.11-.32.17-.48.93-2.65,2.05-5.14,3.3-7.44.08-.16.17-.32.26-.47.4-.71.81-1.4,1.23-2.06.39-.61.78-1.2,1.19-1.77.49-.69.98-1.35,1.5-1.98.57-.71,1.16-1.38,1.76-2.02.85-.91,1.74-1.74,2.64-2.5,4.26-3.57,8.99-5.34,13.55-4.64,5.5.84,9.75,5.12,12.22,11.38.29.73.55,1.48.78,2.26.18.59.34,1.19.49,1.8.14.56.26,1.13.37,1.71.14.74.27,1.5.37,2.27" style="fill:#2f8c43;"/><path d="M191.39,459.35s-.59.96-1.18,1.8h0s-.2.29-.49.7c-.45.61-1.16,1.54-1.85,2.38-.04.05-.08.09-.11.14h0s-.07.09-.11.14c-.57.69-1.34,1.57-2.22,2.48h0c-.64.66-1.33,1.33-2.05,1.97-.48.42-.97.83-1.47,1.2-2.07,1.55-4.19,2.46-5.66,1.49-.92-.61-1.91-1.24-2.94-1.89-1.3-.82-2.67-1.67-4.04-2.55-4.83-3.07-9.77-6.39-12.19-9.45-1.7-2.16-2.62-4.14-3.06-5.68-.1-.35-.18-.67-.23-.97-.13-.69-.38-1.16-.38-1.19-.19-.44-4.19-1.95-9.77-3.9-7.34-2.56-17.42-5.87-25.14-8.43.06-1.15.16-2.32.31-3.51.02-.17.04-.34.07-.51.18-1.36.42-2.75.71-4.14.02-.11.05-.23.07-.34.03-.16.07-.33.11-.49.44-1.95.98-3.84,1.6-5.66.05-.16.11-.32.17-.48.93-2.65,2.05-5.14,3.3-7.44.08-.16.17-.32.26-.47.4-.71.81-1.4,1.23-2.06.38-.61.78-1.2,1.18-1.77,4.48,1.78,8.51,3.42,13.93,5.67h0c.16.07.32.13.48.2.16.07.33.14.49.2,3.19,1.32,6.86,2.86,11.36,4.75,1.53.64,3.15,1.32,4.88,2.05.26.11.51.21.76.32.27.11.54.23.81.34.14.06.27.11.4.17.27.11.53.22.79.33.05.02.11.05.16.07.34.14.67.28.99.41,1.33.56,2.72,1.14,4.17,1.75.11.04.21.09.31.13.17.07.34.14.52.22.23.1.46.19.68.28,4.34,1.82,5.3,2.24,5.57,2.38.11.06.11.07.17.12h0s.02.01.03.02c.5.35,1.19.84,1.97,1.36.11.07.22.15.33.22,1.75,1.16,3.84,2.44,5.1,2.83l2.49,8.31c-.03.51.02,1.28.02,1.29.03.38.06.75.11,1.12v.02c.66,4.87,3.36,9.24,8.15,11.86.25.13-.09.98-.82,2.2" style="fill:#f9b299;"/><path d="M169.3,429.78c-5.13.9,11.11,14.17,15.79,15.97,3.17,1.22,5.95,3.06,7.7,4.29,3.3,2.33,6.65,3.87,8.72,1.66.85-.9.86-1.46.2-2.16-.55-.58-1.56-1.27-2.93-2.31-.72-.55-1.54-1.2-2.45-1.99-.36-.32-.74-.65-1.13-1.01-3.71-3.46-10.71-9.51-17.27-12.61-.23-.11-.46-.22-.7-.32-2.86-1.26-5.61-1.93-7.93-1.52" style="fill:#f9b299;"/><path d="M198.75,447.24c-.13.03-.25.1-.36.22-1.03,1.11.78,2.31,1.68,3.01s1.64-.94,1.64-.94c-.55-.58-1.57-1.25-2.96-2.28" style="fill:#f68d6a;"/><path d="M167.83,433.14s0,.07,0,.11c.03.06.11.07.16.04,3.73-2.3,8.17-1.5,8.22-1.49.06.01.13-.03.14-.09s-.03-.13-.09-.14c-.05,0-4.58-.83-8.39,1.52-.02.01-.04.03-.05.06" style="fill:#f9b299;"/><path d="M153.61,450.38c-.14-2.76.79-5.53,2.58-7.64.14-.16.4.04.26.2-1.74,2.04-2.66,4.72-2.52,7.4,0,.21-.31.26-.32.05" style="fill:#e4937d;"/><path d="M173.9,430.33c-2.69.51-5.28,1.52-7.61,2.95-.65.4-1.29.84-1.9,1.31-.17.13-.37-.13-.2-.26,2.21-1.69,4.72-2.98,7.38-3.77.75-.22,1.51-.41,2.28-.56.21-.04.25.28.05.32" style="fill:#e4937d;"/><path d="M141.46,416.41c4.3,11.21,16.43,7.25,21.46,11.89,2.25,2.08,4.24.6,5.34-.68-6.1-2.57-16.4-6.87-26.8-11.21" style="fill:#fbc9bb;"/><path d="M152.03,419.8c-1.4-.45-12.45-5.83-23.01-11.02-.51.63-1.01,1.29-1.5,1.98-.4.57-.8,1.16-1.18,1.77-.42.67-.83,1.36-1.23,2.06-.09.16-.18.31-.26.47-1.26,2.3-2.37,4.79-3.3,7.44-.06.16-.11.32-.17.48-.62,1.82-1.16,3.71-1.6,5.66-.04.16-.07.32-.11.49-.03.11-.05.23-.07.34-.29,1.39-.53,2.78-.71,4.14-.02.17-.05.34-.07.51-.15,1.18-.25,2.36-.31,3.51-.06,1.06-.08,2.11-.07,3.14,5.27,1.43,10.18,2.8,14.19,3.9,5.58,1.52,9.45,2.51,10.22,2.35.34-.07.58-.41.79-.97.39-1.05.64-2.88,1.1-5.18.03-.15.06-.3.09-.46.27-1.31.61-2.76,1.07-4.29.05-.17.11-.35.16-.52.35-1.11.77-2.26,1.28-3.44.07-.15.13-.31.2-.46.7-1.55,1.56-3.14,2.62-4.72.09-.14.19-.28.28-.42.41-.59.85-1.17,1.32-1.75h0c1.13-1.41,1.89-2.43,2.01-3.22h0c.12-.78-.38-1.33-1.75-1.77" style="fill:#dedad1;"/><path d="M144.81,440.82s-.05.02-.07.02c-2.42.8-5.14.14-7.48-.65-1.51-.51-2.89-1.22-4.32-1.91-1.55-.76-3.19-1.23-4.87-1.59-1.64-.35-3.29-.62-4.92-1.02-1.51-.38-2.9-.98-4.33-1.58.02-.17.04-.34.07-.51.87.36,1.72.78,2.61,1.08,1.59.55,3.25.86,4.9,1.18,1.6.31,3.21.63,4.75,1.15,1.59.54,3.01,1.42,4.54,2.07,1.43.61,2.94,1.1,4.46,1.39,1.47.28,3.03.4,4.47-.1.08-.03.16-.01.22.02.15.1.2.36-.02.44" style="fill:#fff;"/><path d="M146.08,436.04c-.06.02-.12.04-.18.06-2.52.87-5.06.19-7.45-.82-1.33-.56-2.62-1.2-3.95-1.73-1.55-.63-3.13-1.2-4.72-1.73-3.32-1.11-6.7-2.01-10.12-2.72.03-.16.07-.33.11-.49,5.92,1.22,11.76,3.01,17.27,5.5,2.78,1.25,5.8,2.6,8.85,1.46.06-.02.13-.02.18,0,.18.07.26.37.02.46" style="fill:#fff;"/><path d="M147.35,432.14s-.06-.03-.09-.05c-2.36-2.04-5.57-2.26-8.49-2.86-1.46-.3-2.87-.72-4.21-1.39-1.37-.69-2.65-1.54-3.97-2.32-1.39-.82-2.84-1.54-4.42-1.87-1.54-.32-3.12-.36-4.67-.65-.04,0-.08-.02-.12-.02.05-.16.11-.32.17-.48,1.24.24,2.52.31,3.77.5,1.56.23,3,.73,4.4,1.46,1.42.75,2.74,1.66,4.14,2.45,1.38.78,2.82,1.35,4.37,1.7,3.18.73,6.74.86,9.33,3.09h0c.21.19,0,.52-.21.46" style="fill:#fff;"/><path d="M150.18,426.96s-.07-.05-.1-.09c-1.63-2.74-5.27-3.53-8.07-4.52-3.35-1.19-6.69-2.47-9.73-4.35-1.52-.94-3.01-1.96-4.77-2.39-.88-.22-1.78-.34-2.66-.55.08-.16.17-.32.26-.47.69.17,1.39.29,2.1.44,1.65.36,3.08,1.13,4.49,2.02,1.54.97,3.1,1.85,4.76,2.6,1.66.75,3.37,1.39,5.08,2.01,1.75.63,3.56,1.17,5.25,1.95,1.45.66,2.82,1.56,3.66,2.95v.02c.14.23-.11.48-.29.4" style="fill:#fff;"/><path d="M195.52,449.08c-.25-.67-.64-1.29-1.11-1.83-2.24-2.63-6.2-3.64-9.42-2.39s-5.47,4.65-5.36,8.11c-.14-2.44-2.36-4.67-4.48-5.9-2.11-1.23-4.73-1.46-7.1-.83-1.35.36-2.71,1.06-3.39,2.28-.57,1.04-.58,2.3-.38,3.46.67,3.86,3.41,7.03,6.39,9.57,2.96,2.53,6.87,4.78,10.4,6.43,2.54-1.8,5.08-3.6,7.63-5.4,2.04-1.44,4.13-2.94,5.47-5.04,1.13-1.76,1.67-3.86,1.69-5.95.01-.85-.06-1.71-.35-2.5" style="fill:#f04d4c;"/><path d="M170.45,447.13s-3.3-.41-4.35,2.54c-1.06,2.95,1.61,7.81,3.48,7.84,1.88.03-.4-3.35.39-5.36.8-2,2.87-4.13.48-5.02" style="fill:#d93737;"/><path d="M195.67,466.52c-.83-3.22-2-6.39-5.79-5.28-3.77,1.11-2.01,7.89,1.14,8.27,1.64.2,5.32-.4,4.64-3" style="fill:#f9b299;"/><path d="M193.59,467.27s-1.9.71-2.61.31-1.73-2.04-1.61-2.26c.12-.22,1.15-.1,2.28-.46.89-.29,1.61-1.15,1.95-.74.34.41.64,2.86-.01,3.15" style="fill:#f68d6a;"/><path d="M189.45,469.07c-.74-3.54-1.83-7.04-5.97-6.03-4.12,1-2.56,8.45.82,9.04,1.75.3,5.74-.16,5.15-3" style="fill:#f9b299;"/><path d="M186.97,470s-1.71.78-2.46.31c-.75-.47-1.94-2.65-1.8-2.88s1.24-.05,2.48-.38c.97-.26,1.79-1.16,2.14-.7.34.46.35,3.37-.37,3.65" style="fill:#f68d6a;"/><path d="M182.38,467.55c-1.11-3.25-2.56-6.42-6.37-4.97-3.79,1.44-1.44,8.28,1.83,8.42,1.7.07,5.44-.84,4.54-3.45" style="fill:#f9b299;"/><path d="M180.06,468.6s-1.73.97-2.5.61c-.76-.36-1.87-2.16-1.77-2.39.11-.23,1.17-.19,2.31-.66.89-.36,1.57-1.31,1.95-.92s.65,3.01,0,3.36" style="fill:#f68d6a;"/><path d="M175.53,467.14c-.92-2.51-2.09-4.94-5.03-3.75-2.92,1.18-.98,6.45,1.56,6.51,1.32.03,4.21-.74,3.47-2.75" style="fill:#f9b299;"/><path d="M173.81,468.01s-1.26.61-1.86.35c-.6-.26-1.63-1.5-1.56-1.68.08-.18.91-.17,1.78-.55.68-.3,1.2-1.04,1.5-.74s.63,2.35.13,2.63" style="fill:#f68d6a;"/><path d="M187.72,464.48v.02c.78,1.27,1.56,4.12,1.57,4.15,0,.03.05.06.08.05s.05-.05.05-.08-.79-2.9-1.59-4.18c-.02-.03-.06-.04-.09-.02-.02.02-.04.04-.03.07" style="fill:#f9b299;"/><path d="M175.47,471.87s.04.09.09.12c1.49.9,2.81.82,3.66.6.92-.24,1.48-.7,1.5-.72.08-.07.1-.19.03-.28-.07-.08-.19-.1-.28-.03-.09.07-2.1,1.66-4.71.09-.09-.06-.21-.03-.27.07-.03.05-.03.1-.02.15" style="fill:#fbc7b7;"/><path d="M192.94,465.91c0-.13-.05-.23-.16-.3-.2-.11-.02-.42.18-.31.22.12.35.36.34.61-.01.23-.37.22-.36,0" style="fill:#e0f0f1;"/><path d="M185.52,470.18c-.24-.06-.48-.13-.71-.19-.22-.06-.12-.41.1-.35.24.06.48.13.71.19.22.06.12.41-.1.35" style="fill:#e0f0f1;"/><path d="M189.15,468.66c-.21-.81-.42-1.63-.64-2.44-.17-.66-.39-1.38-.97-1.8-.19-.13,0-.44.18-.31.61.43.88,1.12,1.08,1.81.25.88.46,1.77.69,2.65.06.22-.29.31-.35.09" style="fill:#e4937d;"/><path d="M181.54,469.66c.35-.2.41-.72.46-1.08.06-.43.06-.87,0-1.31-.11-.85-.43-1.65-.93-2.35-.13-.19.18-.36.31-.18.57.8.91,1.74,1,2.72.04.48.02.96-.07,1.44-.07.41-.2.85-.59,1.07-.2.11-.38-.2-.18-.31" style="fill:#e4937d;"/><path d="M174.68,468.9c.17-.3.19-.66.21-1,.02-.36.01-.71-.03-1.07-.08-.73-.29-1.45-.6-2.11-.1-.21.21-.39.31-.18.35.73.57,1.5.65,2.3.04.41.05.82.02,1.23-.03.35-.07.7-.25,1.01-.11.2-.42.02-.31-.18" style="fill:#e4937d;"/><path d="M170.97,462.98c-1.53.64-2.35,2.16-2.07,3.8.05.27.47.2.42-.07-.25-1.46.45-2.77,1.82-3.34.25-.11.08-.5-.17-.39" style="fill:#e4937d;"/><path d="M165.61,440.89c1.78,1.34,3.66,2.39,5.82,2.98,3.3.91,7.09-.11,10.04,1.86.23.15.48-.19.26-.34-1.87-1.25-3.66-1.25-5.86-1.36-3.78-.19-6.96-1.17-10.01-3.48-.22-.17-.47.18-.25.34" style="fill:#e4937d;"/><path d="M215.65,516.96c.26-.79.34-1.64.32-2.47-.13-4.02-3.01-7.8-6.85-9s-8.36.28-10.75,3.51c1.64-2.32,1.23-5.97.2-8.62s-3.25-4.76-5.86-5.9c-1.49-.65-3.23-.99-4.74-.37-1.27.53-2.19,1.67-2.85,2.88-2.18,4-1.98,8.87-1.11,13.34.87,4.45,2.79,9.33,4.81,13.37,3.62.2,7.24.4,10.86.6,2.9.16,5.89.31,8.64-.63,2.3-.79,4.31-2.31,5.85-4.2.62-.76,1.18-1.6,1.49-2.54" style="fill:#f04d4c;"/></g><g style="clip-path:url(#uuid-19cc1ca6-70a8-4b84-8d2a-bba151b90946);"><path d="M382.59,565.12c-.2.46-.43.91-.67,1.36-.71,1.32-1.59,2.62-2.62,3.86-1.27,1.53-2.77,2.99-4.47,4.33-2.88,2.27-6.33,4.2-10.21,5.58-4.81,1.72-9.65,2.39-14.04,2.11-1.99-.13-3.89-.44-5.65-.94-5.45-1.54-9.64-4.8-11.31-9.45-1.85-5.16-.21-10.96,3.88-15.98.32-.39.65-.78,1.01-1.16,3.39-3.71,8.15-6.89,13.82-8.92,1.58-.57,3.17-1.02,4.74-1.36,1.43-.31,2.85-.53,4.24-.66,10.35-.97,19.37,2.91,22.02,10.31,1.25,3.5.9,7.29-.73,10.93" style="fill:#2f8c43;"/><path d="M353.15,539.67c-2.27,1.95-8.79,4.51-15.8,6.84-2.6.87-5.26,1.7-7.79,2.47-6.25,1.88-11.74,3.31-13.65,3.68-.09.02-.2.03-.3.03h0c-.28.02-.62,0-1.02-.03-4.58-.48-16.2-4.73-19.71-6.47-3.25-1.61-11.24-7.57-11.24-7.57-.75-1.89,3.39-3.79,8.99-.36.36.22,4.74,1.31,7.67,2.04.06,0,.12.02.18.04.23.05.46.11.67.16.93.23,1.58.38,1.72.42-.13-.06-.6-.26-1.29-.54-.16-.07-.32-.14-.5-.21-.05-.02-.11-.05-.17-.07-2.24-.95-5.76-2.46-7.12-3.16-2-1.03-8.97-6.16-8.06-7.03,2.42-2.32,6.82.57,11.05,2.78,1.47.76,8,2.29,10.38,3.2-1.59-.85-4.9-2.68-6.03-3.63-1.5-1.28-4.38-4.78-3.7-5.26,1.25-.87,2.83-.2,7.03,2.66,3.54,2.42,10.44,2.4,12.33,2.9,3.8.99,9.74-2.46,19.89-5.8.9-.3,1.74-.51,2.51-.67h0c10.06-1.94,11.27,7.41,14.64,11.84.37.49.09,1.08-.69,1.75" style="fill:#714744;"/><path d="M307.46,531.8s-4.4-4.57-1.44-4.55c2.96.03,10.45,6.29,16.48,4.63l-2.8,3.18-12.24-3.27" style="fill:#f9b299;"/><path d="M379.31,564.88l-.02,5.46c-1.27,1.53-2.77,2.99-4.47,4.33l-26.35-.09c-2.24-4.01-6.98-13.83-9.98-19.75-1.42-2.81-2.45-4.74-2.63-4.74-.03-.02-.01-.01-.1-.06-.22-.11-.4-.19-.54-.23h0c-.28-.09-.43-.08-.44-.09-1.64-.52-3.49-.7-5.22-.73h0c-7.3-.16-16.16,2.21-16.19,2.2-4.66-3.01,12.75-12.55,17.61-15.24h0c1.54-.86,4.11-2.21,4.71-2.54,7.33-4.04,11.76-2.52,13.38-1.63l.53-1.33c.62.62,5.81,6.62,11.7,13.45,7.63,8.87,16.43,19.15,18.02,21" style="fill:#714744;"/><path d="M341.91,547.63c-5.26,3.01-15.5,4.93-21.62,5.13-1.6.05-3.22.34-4.76-.09-1.39-.39-2.62-1.17-3.83-1.95-3.6-2.32-7.19-4.66-10.77-7.03-.99-.65-2.1-1.92-1.35-2.84.27-.33.71-.47,1.12-.59,2.59-.76,5.43-1.51,7.92-.47,1.65.69,2.92,2.09,4.55,2.83,1.96.89,4.38.69,6.17-.5l22.57,5.52" style="fill:#714744;"/><path d="M338.05,548.41c-3.76,2.14-7.97,3.25-12.24,3.81-2.19.28-4.38.37-6.58.52-1.1.08-2.23.16-3.32-.08-1.08-.24-2.08-.78-3.01-1.35-1.95-1.19-3.85-2.47-5.76-3.72-1.96-1.28-3.92-2.56-5.87-3.85-.66-.44-1.74-1.23-1.65-2.15.05-.53.53-.78.98-.93.52-.17,1.05-.31,1.58-.45,1.9-.5,3.97-.89,5.9-.29,2.09.66,3.52,2.51,5.59,3.22,1.96.68,4.15.39,5.87-.74.23-.15-.04-.48-.27-.33-1.79,1.17-4.15,1.34-6.08.41-1.84-.88-3.21-2.5-5.22-3.04-1.98-.53-4.06-.14-5.99.38-.77.21-1.9.35-2.46.98-.51.58-.35,1.34.05,1.93.56.85,1.46,1.36,2.29,1.91,1.03.68,2.07,1.36,3.11,2.04,2.08,1.36,4.16,2.71,6.24,4.06,1.81,1.17,3.65,2.4,5.87,2.5,1.1.05,2.2-.09,3.31-.14,1.15-.06,2.3-.12,3.45-.23,5-.46,10-1.57,14.39-4.06.24-.13.07-.53-.17-.39" style="fill:#581228;"/><path d="M346.74,537.53c-.88-2.95-4.5-3.21-7.06-3.22-3.08,0-6.17.52-9.08,1.53-1.63.56-3.2,1.28-4.69,2.14-.23.13,0,.47.22.34,2.54-1.46,5.31-2.49,8.19-3.07,1.43-.29,2.89-.46,4.35-.51,1.42-.05,2.91-.05,4.31.25,1.45.32,2.92,1.15,3.37,2.66.07.25.46.13.39-.12" style="fill:#581228;"/><path d="M349.37,542.5c.74,1.19,1.68,2.2,2.81,3.02.28.2.55-.26.27-.46-1.05-.77-1.93-1.72-2.62-2.83-.18-.29-.64-.03-.46.27" style="fill:#581228;"/><path d="M364.43,547.54c-3.45,1.47-9.18-5.36-11.29-7.87-.44-.53-.87-.93-1.3-1.1-2.47-.98-2.38-3.91-2.77-6.81h0c-.39-2.9-3.01-3.03-6.06-3.12-2.94-.08-3.77-2.42-3.82-2.57,10.06-1.94,13.57,7.39,16.95,11.82.97,1.18,2.19,2.57,3.55,4.12,1.11,1.27,3.35,3.98,4.74,5.51" style="fill:#714744;"/><path d="M337.59,523.65c.05-.9-.11-1.8-.38-2.66-1.29-4.14-5.37-7.25-9.7-7.39-4.33-.15-8.61,2.68-10.18,6.72,1.04-2.88-.43-6.55-2.26-9.01-1.83-2.46-4.74-4.02-7.78-4.45-1.74-.25-3.65-.11-5.03.97-1.17.91-1.8,2.36-2.14,3.81-1.12,4.78.49,9.79,2.67,14.18,2.17,4.38,5.57,8.89,8.83,12.52,3.82-.83,7.64-1.66,11.46-2.48,3.06-.66,6.21-1.36,8.8-3.13,2.17-1.48,3.82-3.64,4.88-6.04.43-.97.77-2,.82-3.06" style="fill:#f04d4c;"/><path d="M334.57,522.71s.72-3.42-2.51-5.1c-3.22-1.68-5.26-.29-2.98,2.47,2.28,2.75.15,6.68,2.22,7.23,2.07.56,3.27-4.6,3.27-4.6" style="fill:#d93737;"/><path d="M308.86,509c-1.41-.65-3.12-.38-4.27.66-.2.18.05.51.25.33,1.05-.95,2.57-1.19,3.86-.6.24.11.4-.27.16-.39" style="fill:#d93737;"/><path d="M305.75,526.9c.68,1.48,1.53,2.88,2.54,4.16.16.21.49-.04.33-.25-.98-1.26-1.82-2.62-2.48-4.07-.11-.24-.5-.08-.38.16" style="fill:#d93737;"/><path d="M382.59,565.12c-.2.46-.43.91-.67,1.36-3.08,5.71-9.28,10.89-17.31,13.76-4.81,1.72-9.65,2.39-14.04,2.11-3.12-6.33-7.81-15.74-8.71-17.02-1.38-1.95,12.73-3.84,18.9-7.17,6.17-3.32,5.71-8.27,7.45-6.26,1.52,1.78,11.95,11.03,14.39,13.19" style="fill:#fff;"/></g><path d="M353.78,323.08c0,30.67-24.9,55.56-55.59,55.56s-55.59-24.89-55.59-55.56,24.9-55.56,55.59-55.56,55.59,24.89,55.59,55.56Z" style="fill:#0fa34b; fill-rule:evenodd;"/><path d="M270.25,323.04s-.05-.08-.05-.13v-10.7s.02-.1.05-.13.08-.06.13-.06h3.96c.79,0,1.49.14,2.08.42.6.28,1.06.67,1.39,1.18s.49,1.09.49,1.76v4.37c0,.67-.16,1.25-.49,1.76s-.79.9-1.39,1.18-1.29.42-2.08.42h-3.96s-.1-.02-.13-.06h0ZM272.51,321.18h1.92c.49,0,.88-.16,1.18-.49s.46-.77.47-1.31v-3.64c0-.55-.15-.99-.45-1.31s-.71-.49-1.21-.49h-1.9s-.08.03-.08.08v7.1s.03.08.08.08v-.02Z" style="fill:#fff;"/><path d="M281.76,322.77c-.63-.34-1.12-.81-1.47-1.42-.35-.61-.52-1.31-.52-2.1v-3.39c0-.78.17-1.47.52-2.08.35-.6.84-1.07,1.47-1.4s1.35-.5,2.18-.5,1.57.17,2.19.5,1.12.8,1.47,1.4.52,1.29.52,2.08v3.39c0,.79-.17,1.49-.52,2.11-.35.61-.84,1.09-1.47,1.42-.63.33-1.36.5-2.19.5s-1.55-.17-2.18-.51h0ZM285.34,320.8c.36-.37.54-.86.54-1.47v-3.49c0-.61-.18-1.11-.53-1.48s-.83-.56-1.42-.56-1.05.19-1.4.56c-.35.38-.53.87-.53,1.48v3.49c0,.61.18,1.1.53,1.47s.82.55,1.4.55,1.05-.18,1.41-.55Z" style="fill:#fff;"/><path d="M296.25,312.06s.08-.06.13-.06h1.85s.1.02.13.06.06.08.06.13v10.7s-.02.1-.06.13-.08.06-.13.06h-1.79c-.11,0-.18-.04-.22-.13l-4.1-6.78s-.04-.04-.06-.04-.03.03-.03.07l.03,6.69s-.02.1-.06.13-.08.06-.13.06h-1.85s-.1-.02-.13-.06-.05-.08-.05-.13v-10.7s.02-.1.05-.13.08-.06.13-.06h1.79c.11,0,.18.04.22.13l4.09,6.75s.04.04.06.04.03-.03.03-.07l-.02-6.65s.02-.1.06-.13h0Z" style="fill:#fff;"/><path d="M307.21,322.94l-.48-1.55s-.05-.06-.08-.06h-3.9s-.06.02-.08.06l-.46,1.55c-.03.11-.1.16-.21.16h-2.01c-.06,0-.11-.02-.14-.06-.03-.04-.04-.09-.02-.17l3.42-10.7c.03-.11.1-.16.21-.16h2.49c.11,0,.17.05.21.16l3.42,10.7s.02.05.02.08c0,.09-.06.14-.17.14h-2.01c-.11,0-.17-.05-.21-.16h0ZM303.31,319.6h2.79c.06,0,.08-.03.06-.1l-1.43-4.71s-.03-.06-.05-.06-.04.02-.05.06l-1.39,4.71c-.01.06.01.1.06.1h0Z" style="fill:#fff;"/><path d="M317.43,312.06s.06.08.06.13v1.55s-.02.1-.06.13-.08.06-.13.06h-2.84s-.08.03-.08.08v8.89s-.02.1-.05.13c-.04.04-.08.06-.13.06h-1.85s-.1-.02-.13-.06c-.04-.04-.06-.08-.06-.13v-8.89s-.03-.08-.08-.08h-2.76s-.1-.02-.13-.06-.06-.08-.06-.13v-1.55s.02-.1.06-.13.08-.06.13-.06h7.98s.1.02.13.06h0Z" style="fill:#fff;"/><path d="M326.56,313.87s-.08.06-.13.06h-5.2s-.08.03-.08.08v2.46s.03.08.08.08h3.41s.1.02.13.05c.04.04.06.08.06.13v1.54s-.02.1-.06.13-.08.06-.13.06h-3.41s-.08.03-.08.08v2.57s.03.08.08.08h5.2s.1.02.13.06.06.08.06.13v1.54s-.02.1-.06.13-.08.06-.13.06h-7.32s-.1-.02-.13-.06-.05-.08-.05-.13v-10.7s.02-.1.05-.13.08-.06.13-.06h7.32s.1.02.13.06.06.08.06.13v1.54s-.02.1-.06.13h0Z" style="fill:#fff;"/><path d="M288.58,334.33s.08-.06.13-.06h1.85s.1.02.13.06.06.08.06.13v10.7s-.02.1-.06.13-.08.06-.13.06h-1.79c-.11,0-.18-.04-.22-.13l-4.1-6.78s-.04-.04-.06-.04-.03.03-.03.07l.03,6.69s-.02.1-.06.13-.08.06-.13.06h-1.85s-.1-.02-.13-.06-.05-.08-.05-.13v-10.7s.02-.1.05-.13.08-.06.13-.06h1.79c.11,0,.18.04.22.13l4.09,6.75s.04.04.06.04.03-.03.03-.07l-.02-6.65s.02-.1.06-.13h0Z" style="fill:#fff;"/><path d="M294.45,345.03c-.63-.34-1.12-.81-1.47-1.42-.35-.61-.52-1.31-.52-2.1v-3.39c0-.78.17-1.47.52-2.08.35-.6.84-1.07,1.47-1.4s1.35-.5,2.18-.5,1.57.17,2.19.5,1.12.8,1.47,1.4.52,1.29.52,2.08v3.39c0,.79-.17,1.49-.52,2.11-.35.61-.84,1.09-1.47,1.42-.63.33-1.36.5-2.19.5s-1.55-.17-2.18-.51h0ZM298.04,343.07c.36-.37.54-.86.54-1.47v-3.49c0-.61-.18-1.11-.53-1.48s-.83-.56-1.42-.56-1.05.19-1.4.56c-.35.38-.53.87-.53,1.48v3.49c0,.61.18,1.1.53,1.47s.82.55,1.4.55,1.05-.18,1.41-.55Z" style="fill:#fff;"/><path d="M304.54,345.2l-2.8-10.72-.02-.06c0-.1.06-.14.17-.14h1.96c.11,0,.17.05.21.16l1.51,6.45s.03.06.05.06.04-.02.05-.06l1.46-6.43c.03-.12.1-.17.21-.17h1.92c.12,0,.19.05.22.16l1.58,6.45s.03.05.05.06c.02,0,.04-.01.05-.06l1.46-6.43c.03-.12.1-.17.21-.17h1.87c.15,0,.21.07.17.21l-2.6,10.72c-.03.11-.11.16-.22.16h-1.89c-.11,0-.17-.05-.21-.16l-1.62-6.86s-.03-.06-.05-.06-.04.02-.05.06l-1.5,6.84c-.02.12-.09.17-.21.17h-1.76c-.12,0-.19-.05-.22-.16v-.02Z" style="fill:#fff;"/><g style="opacity:.6;"><path d="M61.16,554.7c1.59-.36,2.27-1.27,5.66-1.27,4.25,0,5.66,2.83,5.66,4.25s-1.42,4.25-5.66,4.25c-3.4,0-4.08-.91-5.66-1.27-.4-.09-.85-.15-1.42-.15h-1.42c-.99,0-1.9.23-2.83.59-3.04,1.16-6.23,3.66-12.74,3.66-8.49,0-12.74-2.88-12.74-3.54v-7.08c0-.66,4.25-3.54,12.74-3.54,6.51,0,9.7,2.5,12.74,3.66.93.35,1.84.59,2.83.59h1.42c.57,0,1.02-.06,1.42-.15h0Z" style="fill:none; stroke:#fff; stroke-linecap:round; stroke-linejoin:round; stroke-width:1.06px;"/><line x1="61.16" y1="560.64" x2="61.16" y2="554.71" style="fill:none; stroke:#fff; stroke-linecap:round; stroke-linejoin:round; stroke-width:1.06px;"/><line x1="55.5" y1="561.1" x2="55.5" y2="554.25" style="fill:none; stroke:#fff; stroke-linecap:round; stroke-linejoin:round; stroke-width:1.06px;"/><path d="M61.16,568.85c1.59-.36,2.27-1.27,5.66-1.27,4.25,0,5.66,2.83,5.66,4.25s-1.42,4.25-5.66,4.25c-3.4,0-4.08-.91-5.66-1.27-.4-.09-.85-.15-1.42-.15h-1.42c-.99,0-1.9.23-2.83.59-3.04,1.16-6.23,3.66-12.74,3.66-8.49,0-12.74-2.88-12.74-3.54v-7.08c0-.66,4.25-3.54,12.74-3.54,6.51,0,9.7,2.5,12.74,3.66.93.35,1.84.59,2.83.59h1.42c.57,0,1.02-.06,1.42-.15h0Z" style="fill:none; stroke:#fff; stroke-linecap:round; stroke-linejoin:round; stroke-width:1.06px;"/><line x1="61.16" y1="574.8" x2="61.16" y2="568.85" style="fill:none; stroke:#fff; stroke-linecap:round; stroke-linejoin:round; stroke-width:1.06px;"/><line x1="55.5" y1="575.25" x2="55.5" y2="568.4" style="fill:none; stroke:#fff; stroke-linecap:round; stroke-linejoin:round; stroke-width:1.06px;"/><path d="M61.16,540.54c1.59-.36,2.27-1.27,5.66-1.27,4.25,0,5.66,2.83,5.66,4.25s-1.42,4.25-5.66,4.25c-3.4,0-4.08-.91-5.66-1.27-.4-.09-.85-.15-1.42-.15h-1.42c-.99,0-1.9.23-2.83.59-3.04,1.16-6.23,3.66-12.74,3.66-8.49,0-12.74-2.88-12.74-3.54v-7.08c0-.66,4.25-3.54,12.74-3.54,6.51,0,9.7,2.5,12.74,3.66.93.35,1.84.59,2.83.59h1.42c.57,0,1.02-.06,1.42-.15h0Z" style="fill:none; stroke:#fff; stroke-linecap:round; stroke-linejoin:round; stroke-width:1.06px;"/><line x1="61.16" y1="546.5" x2="61.16" y2="540.55" style="fill:none; stroke:#fff; stroke-linecap:round; stroke-linejoin:round; stroke-width:1.06px;"/><line x1="55.5" y1="546.95" x2="55.5" y2="540.1" style="fill:none; stroke:#fff; stroke-linecap:round; stroke-linejoin:round; stroke-width:1.06px;"/><line x1="43.41" y1="413.2" x2="26.43" y2="413.2" style="fill:none; stroke:#fff; stroke-linecap:round; stroke-linejoin:round; stroke-width:1.06px;"/><line x1="51.91" y1="413.2" x2="68.9" y2="413.2" style="fill:none; stroke:#fff; stroke-linecap:round; stroke-linejoin:round; stroke-width:1.06px;"/><line x1="47.66" y1="408.96" x2="47.66" y2="391.98" style="fill:none; stroke:#fff; stroke-linecap:round; stroke-linejoin:round; stroke-width:1.06px;"/><line x1="47.66" y1="417.45" x2="47.66" y2="434.43" style="fill:none; stroke:#fff; stroke-linecap:round; stroke-linejoin:round; stroke-width:1.06px;"/><ellipse cx="47.67" cy="413.2" rx="18.4" ry="18.39" style="fill:none; stroke:#fff; stroke-linecap:round; stroke-linejoin:round; stroke-width:1.06px;"/><ellipse cx="47.66" cy="413.2" rx="11.33" ry="11.32" style="fill:none; stroke:#fff; stroke-linecap:round; stroke-linejoin:round; stroke-width:1.06px;"/><path d="M47.66,417.45c2.34,0,4.25-1.9,4.25-4.25s-1.9-4.25-4.25-4.25-4.25,1.9-4.25,4.25,1.9,4.25,4.25,4.25Z" style="fill:none; stroke:#fff; stroke-linecap:round; stroke-linejoin:round; stroke-width:1.06px;"/><path d="M35.29,643.42c-1.11,1.25-1.78,2.9-1.78,4.69,0,3.91,3.17,7.08,7.08,7.08,3.43,0,6.29-2.44,6.94-5.67.09-.45.14-.93.14-1.41,0-.93-.18-1.81-.51-2.63-1.04-2.61-3.59-4.45-6.57-4.45-2.11,0-4,.92-5.29,2.39h-.01Z" style="fill:none; stroke:#fff; stroke-linecap:round; stroke-linejoin:round; stroke-width:1.06px;"/><path d="M40.58,626.88c2.31,0,4.37-1.11,5.66-2.83.89-1.18,1.42-2.65,1.42-4.25,0-.48-.05-.96-.14-1.41-.65-3.24-3.51-5.67-6.94-5.67-3.91,0-7.08,3.17-7.08,7.08,0,1.8.67,3.45,1.78,4.69,1.3,1.47,3.19,2.39,5.29,2.39h.01Z" style="fill:none; stroke:#fff; stroke-linecap:round; stroke-linejoin:round; stroke-width:1.06px;"/><path d="M40.58,648.11l.31-.13,6.26-2.5,4.76-1.9,7.97-3.19c.43-.18.93-.12,1.32.14.16.11.29.24.39.4.15.23.23.5.23.77v3.57" style="fill:none; stroke:#fff; stroke-linecap:round; stroke-linejoin:round; stroke-width:1.06px;"/><line x1="51.91" y1="643.59" x2="51.91" y2="642.46" style="fill:none; stroke:#fff; stroke-linecap:round; stroke-linejoin:round; stroke-width:1.06px;"/><polyline points="51.91 628.3 51.91 642.46 40.58 632.54 40.58 619.81 51.91 628.3" style="fill:none; stroke:#fff; stroke-linecap:round; stroke-linejoin:round; stroke-width:1.06px;"/><polyline points="36.34 635.38 36.34 633.96 40.58 632.54 51.91 628.3 57.57 625.47" style="fill:none; stroke:#fff; stroke-linecap:round; stroke-linejoin:round; stroke-width:1.06px;"/><line x1="57.57" y1="628.3" x2="57.57" y2="622.64" style="fill:none; stroke:#fff; stroke-linecap:round; stroke-linejoin:round; stroke-width:1.06px;"/><path d="M51.56,361.89c6.26,0,11.33-9.51,11.33-21.23s-5.07-21.23-11.33-21.23c-4.35,0-8.12,4.59-10.02,11.32-.84,2.96-1.31,6.33-1.31,9.91s.47,6.95,1.31,9.91c1.9,6.74,5.67,11.32,10.02,11.32Z" style="fill:none; stroke:#fff; stroke-linecap:round; stroke-linejoin:round; stroke-width:1.06px;"/><path d="M43.78,340.67c0-3.13.4-6.22,1.18-8.95,1.45-5.15,4.17-8.75,6.61-8.75,3.25,0,7.79,6.73,7.79,17.69s-4.54,17.69-7.79,17.69c-2.44,0-5.16-3.6-6.61-8.75-.77-2.73-1.18-5.82-1.18-8.95Z" style="fill:none; stroke:#fff; stroke-linecap:round; stroke-linejoin:round; stroke-width:1.06px;"/><line x1="34.57" y1="350.57" x2="41.55" y2="350.57" style="fill:none; stroke:#fff; stroke-linecap:round; stroke-linejoin:round; stroke-width:1.06px;"/><line x1="51.56" y1="361.89" x2="43.07" y2="361.89" style="fill:none; stroke:#fff; stroke-linecap:round; stroke-linejoin:round; stroke-width:1.06px;"/><line x1="51.56" y1="319.44" x2="43.07" y2="319.44" style="fill:none; stroke:#fff; stroke-linecap:round; stroke-linejoin:round; stroke-width:1.06px;"/><line x1="34.57" y1="330.76" x2="41.55" y2="330.76" style="fill:none; stroke:#fff; stroke-linecap:round; stroke-linejoin:round; stroke-width:1.06px;"/><path d="M49.04,497.88v2.9c0,1.56,1.27,2.83,2.83,2.83h4.25c3.91,0,7.08-3.17,7.08-7.08v-28.31c0-3.91-3.17-7.08-7.08-7.08h-4.25c-1.56,0-2.83,1.27-2.83,2.83v33.89h0Z" style="fill:none; stroke:#fff; stroke-linecap:round; stroke-linejoin:round; stroke-width:1.06px;"/><polyline points="49.04 493.71 42.37 497.04 37.71 499.36 32.05 502.19 32.05 495.12 36.25 493.02 37.71 492.29 49.04 486.63" style="fill:none; stroke:#fff; stroke-linecap:round; stroke-linejoin:round; stroke-width:1.06px;"/><polyline points="49.04 471.06 42.37 467.72 37.71 465.4 32.05 462.57 32.05 469.65 36.25 471.75 37.71 472.48 49.04 478.13" style="fill:none; stroke:#fff; stroke-linecap:round; stroke-linejoin:round; stroke-width:1.06px;"/><line x1="37.71" y1="499.36" x2="37.71" y2="492.29" style="fill:none; stroke:#fff; stroke-linecap:round; stroke-linejoin:round; stroke-width:1.06px;"/><line x1="37.71" y1="465.4" x2="37.71" y2="472.48" style="fill:none; stroke:#fff; stroke-linecap:round; stroke-linejoin:round; stroke-width:1.06px;"/><line x1="43.41" y1="287.26" x2="43.41" y2="257.55" style="fill:none; stroke:#fff; stroke-linecap:round; stroke-linejoin:round; stroke-width:1.06px;"/><line x1="43.41" y1="250.47" x2="43.41" y2="244.81" style="fill:none; stroke:#fff; stroke-linecap:round; stroke-linejoin:round; stroke-width:1.06px;"/><line x1="36.34" y1="287.26" x2="36.34" y2="257.55" style="fill:none; stroke:#fff; stroke-linecap:round; stroke-linejoin:round; stroke-width:1.06px;"/><line x1="36.34" y1="250.47" x2="36.34" y2="244.81" style="fill:none; stroke:#fff; stroke-linecap:round; stroke-linejoin:round; stroke-width:1.06px;"/><path d="M49.08,281.61h1.42c2.34,0,4.25-1.9,4.25-4.25v-12.82c0-.26.14-.5.38-.62.23-.13.51-.11.72.04l2.83,1.88c.2.13.32.35.32.59v9.53c0,1.56,1.27,2.83,2.83,2.83s2.83-1.27,2.83-2.83v-10.78c0-1.24-.55-2.42-1.49-3.23l-8.42-7.22c0-2.34-1.9-4.25-4.25-4.25h-1.42" style="fill:none; stroke:#fff; stroke-linecap:round; stroke-linejoin:round; stroke-width:1.06px;"/><path d="M49.06,250.47c0,.11,0,.23,0,.35v30.44c0,.11,0,.23,0,.35-.08,1.01-.52,1.95-1.23,2.66l-1.76,1.76c-.71.71-1.66,1.15-2.66,1.23-.11,0-.23.01-.35.01h-6.39c-.11,0-.23,0-.35-.01-1.01-.08-1.95-.52-2.66-1.23l-1.76-1.76c-.8-.8-1.25-1.88-1.25-3.01v-30.44c0-1.13.45-2.21,1.25-3.01l1.76-1.76c.71-.71,1.66-1.15,2.66-1.23.11,0,.23-.01.35-.01h6.39c.11,0,.23,0,.35.01,1.01.08,1.95.52,2.66,1.23l1.76,1.76c.71.71,1.15,1.66,1.23,2.66Z" style="fill:none; stroke:#fff; stroke-linecap:round; stroke-linejoin:round; stroke-width:1.06px;"/><path d="M63.26,112.15c.26.6.49,1.22.67,1.85-.18.17-.43.27-.7.27-.59,0-1.06-.47-1.06-1.06s.47-1.06,1.06-1.06h.03" style="fill:#3e4244;"/><path d="M63.26,112.15c.26.6.49,1.22.67,1.85-.18.17-.43.27-.7.27-.59,0-1.06-.47-1.06-1.06s.47-1.06,1.06-1.06h.03Z" style="fill:none; stroke:#fff; stroke-miterlimit:10; stroke-width:.18px;"/><path d="M63.94,113.99c-.18-.64-.41-1.25-.67-1.85.57,0,1.03.48,1.03,1.06,0,.32-.14.6-.36.79" style="fill:#3e4244;"/><path d="M63.94,113.99c-.18-.64-.41-1.25-.67-1.85.57,0,1.03.48,1.03,1.06,0,.32-.14.6-.36.79h0Z" style="fill:none; stroke:#fff; stroke-miterlimit:10; stroke-width:.18px;"/><path d="M58.63,113.2c0,.59-.47,1.06-1.06,1.06s-1.06-.47-1.06-1.06.47-1.06,1.06-1.06,1.06.47,1.06,1.06" style="fill:#3e4244;"/><circle cx="57.57" cy="113.2" r="1.06" style="fill:none; stroke:#fff; stroke-miterlimit:10; stroke-width:.18px;"/><path d="M39.17,100.47s2.83-1.42,7.08-1.42c2.83,0,5.67,1.42,7.09,1.42h11.69c.63,0,1.18.42,1.36,1.02.71,2.44,2.39,8.94,2.51,15.96,0,.38-.15.72-.41.99-.27.27-.63.42-1.01.42h-12.42c-.5,0-1.01.09-1.47.27-.55.19-1.05.51-1.49.92-.88.85-1.96,1.88-3.08,3.01-1.64,1.65-3.36,3.48-4.69,5.22-1.38,1.8-2.34,3.48-2.34,4.74,0,.67-.07,1.26-.2,1.79-.69,2.87-3.07,3.87-5.46,3.87-2.83,0-2.83-2.83-2.83-2.83v-10.95c0-.24.06-.47.18-.69.97-1.73,5.48-9.9,5.48-12.41v-11.32h.01Z" style="fill:none; stroke:#fff; stroke-linecap:round; stroke-linejoin:round; stroke-width:1.06px;"/><path d="M39.17,100.47h-4.25c-.78,0-1.42.64-1.42,1.42v8.49c0,.78.64,1.42,1.42,1.42h4.25" style="fill:none; stroke:#fff; stroke-linecap:round; stroke-linejoin:round; stroke-width:1.06px;"/><line x1="33.5" y1="106.13" x2="26.42" y2="106.13" style="fill:none; stroke:#fff; stroke-linecap:round; stroke-linejoin:round; stroke-width:1.06px;"/><line x1="33.5" y1="125.94" x2="26.42" y2="125.94" style="fill:none; stroke:#fff; stroke-linecap:round; stroke-linejoin:round; stroke-width:1.06px;"/><polyline points="33.5 135.84 29.26 140.09 26.42 137.26 26.42 97.64" style="fill:none; stroke:#fff; stroke-linecap:round; stroke-linejoin:round; stroke-width:1.06px;"/><line x1="53.59" y1="119.13" x2="50.49" y2="116.03" style="fill:none; stroke:#fff; stroke-linecap:round; stroke-linejoin:round; stroke-width:1.06px;"/><polyline points="49.03 123.07 49.03 123.06 46.25 120.28" style="fill:none; stroke:#fff; stroke-linecap:round; stroke-linejoin:round; stroke-width:1.06px;"/><line x1="44.33" y1="128.28" x2="42" y2="125.94" style="fill:none; stroke:#fff; stroke-linecap:round; stroke-linejoin:round; stroke-width:1.06px;"/><path d="M64.98,48.92c2.07.95,3.92,2.5,3.92,3.43,0,1.42-4.25,4.25-7.08,4.25H27.84c-.78,0-1.42-.64-1.42-1.42v-5.66c0-.78.64-1.42,1.42-1.42h33.98c.96,0,2.09.33,3.16.81h0Z" style="fill:none; stroke:#fff; stroke-linecap:round; stroke-linejoin:round; stroke-width:1.06px;"/><path d="M64.98,41.64c2.07-.95,3.92-2.5,3.92-3.43,0-1.42-4.25-4.25-7.08-4.25H27.84c-.78,0-1.42.64-1.42,1.42v5.66c0,.78.64,1.42,1.42,1.42h33.98c.96,0,2.09-.33,3.16-.81h0Z" style="fill:none; stroke:#fff; stroke-linecap:round; stroke-linejoin:round; stroke-width:1.06px;"/><path d="M49.08,48.12s1.42,1.42,1.42,4.25-1.42,4.25-1.42,4.25" style="fill:none; stroke:#fff; stroke-linecap:round; stroke-linejoin:round; stroke-width:1.06px;"/><path d="M49.08,42.45s1.42-1.42,1.42-4.25-1.42-4.25-1.42-4.25" style="fill:none; stroke:#fff; stroke-linecap:round; stroke-linejoin:round; stroke-width:1.06px;"/><path d="M43.41,48.12s-1.42,1.42-1.42,4.25,1.42,4.25,1.42,4.25" style="fill:none; stroke:#fff; stroke-linecap:round; stroke-linejoin:round; stroke-width:1.06px;"/><path d="M43.41,42.45s-1.42-1.42-1.42-4.25,1.42-4.25,1.42-4.25" style="fill:none; stroke:#fff; stroke-linecap:round; stroke-linejoin:round; stroke-width:1.06px;"/><line x1="68.9" y1="63.68" x2="26.43" y2="63.68" style="fill:none; stroke:#fff; stroke-linecap:round; stroke-linejoin:round; stroke-width:1.06px;"/><line x1="68.9" y1="26.89" x2="26.43" y2="26.89" style="fill:none; stroke:#fff; stroke-linecap:round; stroke-linejoin:round; stroke-width:1.06px;"/><line x1="30.67" y1="66.51" x2="30.67" y2="60.85" style="fill:none; stroke:#fff; stroke-linecap:round; stroke-linejoin:round; stroke-width:1.06px;"/><line x1="30.67" y1="24.06" x2="30.67" y2="29.71" style="fill:none; stroke:#fff; stroke-linecap:round; stroke-linejoin:round; stroke-width:1.06px;"/><line x1="66.07" y1="63.68" x2="61.82" y2="66.51" style="fill:none; stroke:#fff; stroke-linecap:round; stroke-linejoin:round; stroke-width:1.06px;"/><line x1="66.07" y1="26.89" x2="61.82" y2="24.06" style="fill:none; stroke:#fff; stroke-linecap:round; stroke-linejoin:round; stroke-width:1.06px;"/><path d="M30.67,202.35l2.27,2.76,1.66,2.02c.35.42.42,1.01.18,1.5-.25.49-.76.8-1.32.8h-5.58c-.56,0-1.07-.31-1.32-.8-.24-.5-.17-1.08.18-1.5l3.59-4.37s.34-.41.34-.41Z" style="fill:none; stroke:#fff; stroke-linecap:round; stroke-linejoin:round; stroke-width:1.06px;"/><path d="M43.41,192.45h-2.12c-1.95,0-3.54-1.59-3.54-3.54v-4.25c0-1.95-1.59-3.54-3.54-3.54-1.1,0-2.08.5-2.73,1.29-.5.61-.81,1.39-.81,2.25v17.69" style="fill:none; stroke:#fff; stroke-linecap:round; stroke-linejoin:round; stroke-width:1.06px;"/><path d="M55.02,200.98c.87,1.73,2.01,2.79,3.26,2.79.23,0,.45-.04.68-.11,2.41-.75,4.28-5.49,4.28-11.21s-1.86-10.47-4.28-11.21c-.23-.07-.45-.11-.68-.11-1.25,0-2.39,1.05-3.26,2.79-1.04,2.07-1.7,5.13-1.7,8.54s.66,6.46,1.7,8.54h0Z" style="fill:none; stroke:#fff; stroke-linecap:round; stroke-linejoin:round; stroke-width:1.06px;"/><path d="M53.69,213.28c.8.27,1.63.4,2.47.4,7.04,0,12.74-9.51,12.74-21.23s-5.71-21.23-12.74-21.23c-.84,0-1.67.13-2.47.4-2.6.85-4.92,3.02-6.69,6.08-2.22,3.82-3.58,9.02-3.58,14.74s1.37,10.93,3.58,14.74c1.77,3.07,4.09,5.23,6.69,6.08v.02Z" style="fill:none; stroke:#fff; stroke-linecap:round; stroke-linejoin:round; stroke-width:1.06px;"/><line x1="63.23" y1="192.45" x2="68.9" y2="192.45" style="fill:none; stroke:#fff; stroke-linecap:round; stroke-linejoin:round; stroke-width:1.06px;"/><line x1="53.32" y1="192.45" x2="43.41" y2="192.45" style="fill:none; stroke:#fff; stroke-linecap:round; stroke-linejoin:round; stroke-width:1.06px;"/><path d="M58.96,203.67c.03,4.35-1.39,7.18-5.27,9.61h0" style="fill:none; stroke:#fff; stroke-linecap:round; stroke-linejoin:round; stroke-width:1.06px;"/><path d="M58.96,181.23c.03-4.35-1.39-7.18-5.27-9.61h0" style="fill:none; stroke:#fff; stroke-linecap:round; stroke-linejoin:round; stroke-width:1.06px;"/></g></g></svg>