<?xml version="1.0" encoding="UTF-8"?><svg id="uuid-560bd716-9917-4881-b125-1716619a6129" xmlns="http://www.w3.org/2000/svg" xmlns:xlink="http://www.w3.org/1999/xlink" viewBox="0 0 492.68 680.1"><defs><clipPath id="uuid-ca38d0f1-4724-47f2-92b5-fade0b3a9de0"><path d="M492.68,340.05v320.76c0,10.65-12.54,19.29-28,19.29H28c-15.46,0-28-8.64-28-19.29V19.29C0,8.64,12.54,0,28,0h436.68c15.46,0,28,8.64,28,19.29v320.76Z" style="fill:none;"/></clipPath><clipPath id="uuid-a71a12d4-91f0-4906-aa6f-46c0899fa5d0"><rect x="168.99" y="428.73" width="133.25" height="131.73" style="fill:none;"/></clipPath><clipPath id="uuid-8724c929-ec40-4492-9dea-af3760673b1c"><rect x="168.98" y="428.73" width="133.26" height="131.73" style="fill:none;"/></clipPath><clipPath id="uuid-91e1a602-e7ff-42c4-8cf0-92192ab61de6"><rect x="168.98" y="428.73" width="133.26" height="131.73" style="fill:none;"/></clipPath><clipPath id="uuid-530fb720-0b15-4bc4-8978-9780b506c31f"><rect x="98.08" y="378.41" width="123.99" height="115.13" style="fill:none;"/></clipPath><clipPath id="uuid-b5df7437-c62e-46bd-88ae-6217487df81b"><rect x="275.85" y="497.98" width="140.64" height="114.63" style="fill:none;"/></clipPath></defs><g id="uuid-3735be5e-455c-4fe7-83fb-bab6e8a0ddf9"><path d="M482.68,340.05v320.76c0,6.85-8.06,12.4-18,12.4H28c-9.94,0-18-5.55-18-12.4V19.29c0-6.85,8.06-12.4,18-12.4h436.68c9.94,0,18,5.55,18,12.4v320.76Z" style="fill-rule:evenodd;"/><g style="clip-path:url(#uuid-ca38d0f1-4724-47f2-92b5-fade0b3a9de0);"><path d="M492.68,340.05v320.76c0,10.65-12.54,19.29-28,19.29H28c-15.46,0-28-8.64-28-19.29V19.29C0,8.64,12.54,0,28,0h436.68c15.46,0,28,8.64,28,19.29v320.76Z" style="fill:none; stroke:#0fa34b; stroke-miterlimit:10; stroke-width:20px;"/></g><g style="opacity:.6;"><ellipse cx="444.39" cy="119.7" rx="21.24" ry="21.23" style="fill:none; stroke:#fff; stroke-linecap:round; stroke-linejoin:round; stroke-width:1.06px;"/><ellipse cx="444.39" cy="119.72" rx="12.74" ry="12.73" style="fill:none; stroke:#fff; stroke-linecap:round; stroke-linejoin:round; stroke-width:1.06px;"/><path d="M447.93,122.54c1.56,0,2.83-1.27,2.83-2.83s-1.27-2.83-2.83-2.83-2.83,1.27-2.83,2.83,1.27,2.83,2.83,2.83Z" style="fill:none; stroke:#fff; stroke-linecap:round; stroke-linejoin:round; stroke-width:1.06px;"/><path d="M441.56,123.24c1.95,0,3.54-1.59,3.54-3.54s-1.59-3.54-3.54-3.54-3.54,1.59-3.54,3.54,1.59,3.54,3.54,3.54Z" style="fill:none; stroke:#fff; stroke-linecap:round; stroke-linejoin:round; stroke-width:1.06px;"/><ellipse cx="444.37" cy="414.06" rx="21.24" ry="21.23" style="fill:none; stroke:#fff; stroke-linecap:round; stroke-linejoin:round; stroke-width:1.06px;"/><path d="M437.31,411.21c2.34,0,4.25-1.9,4.25-4.25s-1.9-4.25-4.25-4.25-4.25,1.9-4.25,4.25,1.9,4.25,4.25,4.25Z" style="fill:none; stroke:#fff; stroke-linecap:round; stroke-linejoin:round; stroke-width:1.06px;"/><path d="M456.42,421.12c1.95,0,3.54-1.59,3.54-3.54s-1.59-3.54-3.54-3.54-3.54,1.59-3.54,3.54,1.59,3.54,3.54,3.54Z" style="fill:none; stroke:#fff; stroke-linecap:round; stroke-linejoin:round; stroke-width:1.06px;"/><path d="M451.47,426.07c0,1.95-1.59,3.54-3.54,3.54s-3.54-1.59-3.54-3.54,1.59-3.54,3.54-3.54,3.54,1.59,3.54,3.54Z" style="fill:none; stroke:#fff; stroke-linecap:round; stroke-linejoin:round; stroke-width:1.06px;"/><path d="M444.39,67.34c4.96,0,9.52-1.7,13.13-4.55,4.94-3.89,8.11-9.92,8.11-16.67s-3.16-12.79-8.11-16.67c-3.61-2.85-8.18-4.55-13.13-4.55s-9.52,1.7-13.13,4.55c-4.94,3.89-8.11,9.92-8.11,16.67s3.16,12.79,8.11,16.67c3.61,2.85,8.17,4.55,13.13,4.55h0Z" style="fill:none; stroke:#fff; stroke-linecap:round; stroke-linejoin:round; stroke-width:1.06px;"/><line x1="465.63" y1="46.11" x2="423.15" y2="46.11" style="fill:none; stroke:#fff; stroke-linecap:round; stroke-linejoin:round; stroke-width:1.06px;"/><line x1="444.39" y1="24.89" x2="444.39" y2="67.34" style="fill:none; stroke:#fff; stroke-linecap:round; stroke-linejoin:round; stroke-width:1.06px;"/><path d="M431.26,62.78c2.8-1.53,6.85-8.18,13.12-8.18s10.32,6.65,13.12,8.18" style="fill:none; stroke:#fff; stroke-linecap:round; stroke-linejoin:round; stroke-width:1.06px;"/><path d="M431.26,29.45c2.8,1.53,6.85,8.18,13.12,8.18s10.32-6.65,13.12-8.18" style="fill:none; stroke:#fff; stroke-linecap:round; stroke-linejoin:round; stroke-width:1.06px;"/><path d="M454.39,264.86c-.06.66-.09,1.33-.09,2.01,0,1.59.18,3.14.52,4.64.47,2.17,1.3,4.22,2.39,6.08.78,1.33,1.71,2.57,2.75,3.7" style="fill:none; stroke:#fff; stroke-linecap:round; stroke-linejoin:round; stroke-width:1.06px;"/><path d="M456.13,258.25c-.16.35-.3.71-.45,1.08-.67,1.74-1.1,3.6-1.28,5.53" style="fill:none; stroke:#fff; stroke-linecap:round; stroke-linejoin:round; stroke-width:1.06px;"/><path d="M459.96,252.46c-1.58,1.69-2.88,3.65-3.83,5.79" style="fill:none; stroke:#fff; stroke-linecap:round; stroke-linejoin:round; stroke-width:1.06px;"/><path d="M429.01,281.29c1.58-1.69,2.88-3.65,3.83-5.78.16-.35.31-.71.45-1.08.67-1.75,1.1-3.6,1.29-5.54.06-.66.09-1.33.09-2.01,0-1.59-.18-3.14-.52-4.64-.11-.52-.24-1.03-.39-1.52-.49-1.61-1.17-3.14-2-4.56-.78-1.33-1.71-2.57-2.75-3.7" style="fill:none; stroke:#fff; stroke-linecap:round; stroke-linejoin:round; stroke-width:1.06px;"/><path d="M428.91,281.38c3.87,4.13,9.37,6.72,15.48,6.72s11.71-2.63,15.58-6.82c3.51-3.79,5.66-8.86,5.66-14.41s-2.14-10.63-5.66-14.41c-3.87-4.19-9.42-6.82-15.58-6.82s-11.63,2.58-15.5,6.73c-3.56,3.79-5.74,8.9-5.74,14.49s2.18,10.71,5.76,14.51h0Z" style="fill:none; stroke:#fff; stroke-linecap:round; stroke-linejoin:round; stroke-width:1.06px;"/><line x1="456.13" y1="258.25" x2="456.13" y2="258.25" style="fill:none; stroke:#fff; stroke-linecap:round; stroke-linejoin:round; stroke-width:1.06px;"/><line x1="458.27" y1="258" x2="456.13" y2="258.25" style="fill:none; stroke:#fff; stroke-linecap:round; stroke-linejoin:round; stroke-width:1.06px;"/><line x1="455.68" y1="259.33" x2="454.3" y2="256.47" style="fill:none; stroke:#fff; stroke-linecap:round; stroke-linejoin:round; stroke-width:1.06px;"/><line x1="454.4" y1="264.86" x2="454.39" y2="264.86" style="fill:none; stroke:#fff; stroke-linecap:round; stroke-linejoin:round; stroke-width:1.06px;"/><line x1="456.73" y1="263.5" x2="454.4" y2="264.86" style="fill:none; stroke:#fff; stroke-linecap:round; stroke-linejoin:round; stroke-width:1.06px;"/><line x1="452.16" y1="263.71" x2="454.3" y2="265.79" style="fill:none; stroke:#fff; stroke-linecap:round; stroke-linejoin:round; stroke-width:1.06px;"/><polyline points="456.73 269.51 454.82 271.51 454.81 271.52" style="fill:none; stroke:#fff; stroke-linecap:round; stroke-linejoin:round; stroke-width:1.06px;"/><line x1="455.21" y1="273.02" x2="452.2" y2="271.97" style="fill:none; stroke:#fff; stroke-linecap:round; stroke-linejoin:round; stroke-width:1.06px;"/><polyline points="458.21 275.33 457.21 277.58 457.21 277.59" style="fill:none; stroke:#fff; stroke-linecap:round; stroke-linejoin:round; stroke-width:1.06px;"/><line x1="457.67" y1="278.34" x2="454.81" y2="278.05" style="fill:none; stroke:#fff; stroke-linecap:round; stroke-linejoin:round; stroke-width:1.06px;"/><polyline points="430.7 275.76 432.84 275.51 432.84 275.51" style="fill:none; stroke:#fff; stroke-linecap:round; stroke-linejoin:round; stroke-width:1.06px;"/><line x1="433.29" y1="274.42" x2="434.67" y2="277.28" style="fill:none; stroke:#fff; stroke-linecap:round; stroke-linejoin:round; stroke-width:1.06px;"/><line x1="432.24" y1="270.26" x2="434.58" y2="268.9" style="fill:none; stroke:#fff; stroke-linecap:round; stroke-linejoin:round; stroke-width:1.06px;"/><line x1="436.81" y1="270.06" x2="434.67" y2="267.98" style="fill:none; stroke:#fff; stroke-linecap:round; stroke-linejoin:round; stroke-width:1.06px;"/><polyline points="432.24 264.25 434.15 262.25 434.16 262.24" style="fill:none; stroke:#fff; stroke-linecap:round; stroke-linejoin:round; stroke-width:1.06px;"/><line x1="433.76" y1="260.73" x2="436.77" y2="261.79" style="fill:none; stroke:#fff; stroke-linecap:round; stroke-linejoin:round; stroke-width:1.06px;"/><polyline points="430.77 258.43 431.76 256.17 431.76 256.16" style="fill:none; stroke:#fff; stroke-linecap:round; stroke-linejoin:round; stroke-width:1.06px;"/><line x1="431.3" y1="255.41" x2="434.16" y2="255.7" style="fill:none; stroke:#fff; stroke-linecap:round; stroke-linejoin:round; stroke-width:1.06px;"/><path d="M447.22,357.38c.47.04.94.06,1.42.06s.95-.02,1.42-.06c8.25-.68,14.83-7.26,15.51-15.5.04-.47.06-.94.06-1.42s-.02-.95-.06-1.42c-.68-8.25-7.26-14.82-15.51-15.5-.47-.04-.94-.06-1.42-.06s-.95.02-1.42.06c-7.16.59-13.06,5.61-14.94,12.31-.29,1.03-.49,2.09-.57,3.19-.04.47-.06.94-.06,1.42s.02.95.06,1.42c.08,1.03.25,2.03.52,2.99,1.82,6.8,7.76,11.91,14.99,12.51h0Z" style="fill:none; stroke:#fff; stroke-linecap:round; stroke-linejoin:round; stroke-width:1.06px;"/><path d="M423.15,337.59h1.32c.94,0,1.83-.47,2.35-1.25l1.15-1.71c.52-.79,1.41-1.25,2.35-1.25.64,0,1.23.3,1.6.82.35.47.52.95.35,1.66-.01.06-.03.13-.05.19" style="fill:none; stroke:#fff; stroke-linecap:round; stroke-linejoin:round; stroke-width:1.06px;"/><path d="M432.23,344.86c.24.81.07,1.34-.3,1.85-.37.52-.96.82-1.6.82-.94,0-1.83-.47-2.35-1.25l-1.15-1.71c-.52-.79-1.41-1.25-2.35-1.25h-1.32" style="fill:none; stroke:#fff; stroke-linecap:round; stroke-linejoin:round; stroke-width:1.06px;"/><line x1="452.88" y1="496.12" x2="435.89" y2="479.14" style="fill:none; stroke:#fff; stroke-linecap:round; stroke-linejoin:round; stroke-width:1.06px;"/><line x1="449.34" y1="486.91" x2="443.68" y2="492.58" style="fill:none; stroke:#fff; stroke-linecap:round; stroke-linejoin:round; stroke-width:1.06px;"/><line x1="453.59" y1="491.16" x2="447.93" y2="496.82" style="fill:none; stroke:#fff; stroke-linecap:round; stroke-linejoin:round; stroke-width:1.06px;"/><line x1="445.1" y1="482.68" x2="439.43" y2="488.33" style="fill:none; stroke:#fff; stroke-linecap:round; stroke-linejoin:round; stroke-width:1.06px;"/><line x1="440.85" y1="478.43" x2="435.19" y2="484.09" style="fill:none; stroke:#fff; stroke-linecap:round; stroke-linejoin:round; stroke-width:1.06px;"/><path d="M450.84,508.06c2.42.54,4.6.79,6.29.79,5.66,0,7.08-1.42,7.08-1.42,0,0,1.42-1.42,1.42-7.08,0-1.68-.25-3.86-.79-6.29-1.27-5.73-4.15-12.8-9.12-17.77-4.98-4.98-12.05-7.85-17.78-9.12-2.42-.54-4.6-.79-6.29-.79-5.66,0-7.08,1.42-7.08,1.42,0,0-1.42,1.42-1.42,7.08,0,1.68.25,3.87.79,6.29,1.27,5.73,4.15,12.8,9.12,17.77,4.98,4.98,12.05,7.85,17.78,9.12h0Z" style="fill:none; stroke:#fff; stroke-linecap:round; stroke-linejoin:round; stroke-width:1.06px;"/><line x1="450.84" y1="508.06" x2="464.83" y2="494.08" style="fill:none; stroke:#fff; stroke-linecap:round; stroke-linejoin:round; stroke-width:1.06px;"/><line x1="423.95" y1="481.18" x2="437.93" y2="467.19" style="fill:none; stroke:#fff; stroke-linecap:round; stroke-linejoin:round; stroke-width:1.06px;"/><circle cx="450.53" cy="572.59" r="5.66" style="fill:none; stroke:#fff; stroke-linecap:round; stroke-linejoin:round; stroke-width:1.06px;"/><line x1="431.53" y1="566.12" x2="448.29" y2="549.37" style="fill:none; stroke:#fff; stroke-linecap:round; stroke-linejoin:round; stroke-width:1.06px;"/><path d="M431.53,566.12c.11,3.45.89,7.18,4.31,10.6,7.21,7.21,12.97,7.21,15.85,7.21,5.76,0,14.41-7.21,14.41-14.4,0-2.88,0-8.64-7.21-15.84-3.42-3.42-7.15-4.2-10.6-4.31-.31,0-.62-.01-.93-.01-4.32,0-6.55,1.44-8.64,1.44-2.22,0-7.03-6.01-9.1-8.75-.25-.33-.63-.54-1.05-.57-.42-.03-.83.13-1.12.42l-3.4,3.4c-.3.29-.45.7-.42,1.12.04.41.24.8.57,1.05,2.74,2.07,8.76,6.87,8.76,9.1,0,2.09-1.44,4.33-1.44,8.64,0,.3,0,.62.01.93h0Z" style="fill:none; stroke:#fff; stroke-linecap:round; stroke-linejoin:round; stroke-width:1.06px;"/><path d="M444.07,650.73c-1.64-1.8-2.74-4.11-2.74-7.02,0-.92.3-1.99.7-3.01.56-1.42,1.4-2.69,2.46-3.74,1.06-1.06,2.34-1.9,3.75-2.46,1.02-.4,2.09-.7,3-.7,2.92,0,5.22,1.1,7.02,2.74,4.31,3.91,5.72,10.83,5.72,12.82,0,.72-.18,1.62-.64,2.61-.77,1.67-2.11,3.02-3.77,3.8-1.01.47-1.94.67-2.67.67-2,0-8.93-1.41-12.83-5.72h0Z" style="fill:none; stroke:#fff; stroke-linecap:round; stroke-linejoin:round; stroke-width:1.06px;"/><path d="M430.72,625.31h-.52c-1.18,0-2.32-.47-3.16-1.31l-5.1-5.1c-.59-.59-.59-1.53,0-2.12l2.36-2.36c.59-.59,1.53-.59,2.12,0l5.1,5.1c.84.84,1.31,1.98,1.31,3.16v1.13c0,.42-.17.79-.44,1.05-.27.27-.64.44-1.05.44h-.62,0Z" style="fill:none; stroke:#fff; stroke-linecap:round; stroke-linejoin:round; stroke-width:1.06px;"/><line x1="444.48" y1="636.95" x2="432.39" y2="624.87" style="fill:none; stroke:#fff; stroke-linecap:round; stroke-linejoin:round; stroke-width:1.06px;"/><path d="M454.07,623.89h2.83c1.56,0,2.83-1.27,2.83-2.83s-1.27-2.83-2.83-2.83h-2.83v5.66h0Z" style="fill:none; stroke:#fff; stroke-linecap:round; stroke-linejoin:round; stroke-width:1.06px;"/><path d="M454.07,618.23l-9.2-4.25s-1.66,2.2-2.05,5.66c-.05.45-.08.91-.08,1.4v.03c0,4.25,2.12,7.06,2.12,7.06l8.77-4.05.43-.2" style="fill:none; stroke:#fff; stroke-linecap:round; stroke-linejoin:round; stroke-width:1.06px;"/><ellipse cx="444.39" cy="193.29" rx="21.24" ry="21.23" style="fill:none; stroke:#fff; stroke-linecap:round; stroke-linejoin:round; stroke-width:1.06px;"/><path d="M459.96,178.88c-3.53,3.78-5.66,8.85-5.66,14.4s2.14,10.63,5.66,14.4" style="fill:none; stroke:#fff; stroke-linecap:round; stroke-linejoin:round; stroke-width:1.06px;"/><path d="M428.82,178.88c3.53,3.78,5.66,8.85,5.66,14.4s-2.14,10.63-5.66,14.4" style="fill:none; stroke:#fff; stroke-linecap:round; stroke-linejoin:round; stroke-width:1.06px;"/></g><path d="M94.52,150.78c-.95-.37-1.69-.86-2.22-1.52-.53-.64-.78-1.38-.78-2.2v-.29c0-.09.03-.17.1-.24s.15-.1.24-.1h3.17c.09,0,.17.03.24.1.07.07.1.15.1.24v.02c0,.42.23.78.7,1.07.47.3,1.06.45,1.76.45.64,0,1.17-.13,1.57-.39.4-.25.6-.57.6-.95,0-.34-.17-.6-.52-.77s-.91-.36-1.69-.54c-.9-.23-1.6-.45-2.11-.65-1.22-.41-2.19-.93-2.92-1.54-.72-.61-1.09-1.48-1.09-2.63,0-1.41.55-2.53,1.64-3.35s2.55-1.24,4.36-1.24c1.22,0,2.29.2,3.2.59.92.39,1.63.94,2.12,1.64.51.7.76,1.5.76,2.4,0,.09-.03.17-.1.24s-.15.1-.24.1h-3.05c-.09,0-.17-.03-.24-.1-.07-.07-.1-.15-.1-.24,0-.42-.22-.77-.64-1.06s-1-.42-1.7-.42c-.63,0-1.15.11-1.54.34-.4.23-.6.54-.6.94s.2.67.59.86,1.05.39,1.96.6c.21.06.45.11.71.18s.55.15.86.24c1.36.4,2.42.92,3.2,1.54.78.63,1.17,1.54,1.17,2.74,0,1.41-.56,2.51-1.68,3.31s-2.62,1.18-4.5,1.18c-1.27,0-2.39-.18-3.34-.54h-.01Z" style="fill:#fff;"/><path d="M115.04,136.53c.07-.07.15-.1.24-.1h3.34c.09,0,.17.03.24.1.07.07.1.15.1.24v14c0,.09-.03.17-.1.24s-.15.1-.24.1h-3.34c-.09,0-.17-.03-.24-.1-.07-.07-.1-.15-.1-.24v-.98s-.02-.09-.06-.1c-.03,0-.08.01-.11.07-.76,1.03-1.94,1.54-3.55,1.54-1.45,0-2.64-.44-3.57-1.31s-1.4-2.1-1.4-3.68v-9.55c0-.09.03-.17.1-.24s.15-.1.24-.1h3.32c.09,0,.17.03.24.1.07.07.1.15.1.24v8.54c0,.76.21,1.38.62,1.86.41.48.98.71,1.7.71.64,0,1.18-.2,1.6-.59s.68-.9.77-1.53v-9c0-.09.03-.17.1-.24h0Z" style="fill:#fff;"/><path d="M135.58,143.8c0,1.31-.18,2.5-.54,3.57-.44,1.22-1.13,2.19-2.07,2.9s-2.11,1.07-3.5,1.07-2.43-.48-3.2-1.43c-.03-.06-.08-.08-.11-.06-.03.02-.06.06-.06.11v6.12c0,.09-.03.17-.1.24s-.15.1-.24.1h-3.34c-.09,0-.17-.03-.24-.1s-.1-.15-.1-.24v-19.32c0-.09.03-.17.1-.24s.15-.1.24-.1h3.34c.09,0,.17.03.24.1.07.07.1.15.1.24v.94s.02.09.06.1.08,0,.11-.05c.8-1.04,1.91-1.57,3.32-1.57,1.32,0,2.46.37,3.42,1.1.96.73,1.65,1.76,2.07,3.08.34.98.52,2.11.52,3.43h-.01ZM131.41,143.74c0-1.21-.2-2.16-.6-2.86-.44-.82-1.15-1.23-2.11-1.23-.87,0-1.54.41-1.98,1.23-.4.69-.6,1.65-.6,2.88s.21,2.27.63,2.97c.44.76,1.09,1.15,1.94,1.15s1.53-.37,2-1.11.71-1.76.71-3.03Z" style="fill:#fff;"/><path d="M151.82,143.8c0,1.31-.18,2.5-.54,3.57-.44,1.22-1.13,2.19-2.07,2.9s-2.11,1.07-3.5,1.07-2.43-.48-3.2-1.43c-.03-.06-.08-.08-.11-.06-.03.02-.06.06-.06.11v6.12c0,.09-.03.17-.1.24s-.15.1-.24.1h-3.34c-.09,0-.17-.03-.24-.1s-.1-.15-.1-.24v-19.32c0-.09.03-.17.1-.24s.15-.1.24-.1h3.34c.09,0,.17.03.24.1.07.07.1.15.1.24v.94s.02.09.06.1.08,0,.11-.05c.8-1.04,1.91-1.57,3.32-1.57,1.32,0,2.46.37,3.42,1.1.96.73,1.65,1.76,2.07,3.08.34.98.52,2.11.52,3.43h-.01ZM147.65,143.74c0-1.21-.2-2.16-.6-2.86-.44-.82-1.15-1.23-2.11-1.23-.87,0-1.54.41-1.98,1.23-.4.69-.6,1.65-.6,2.88s.21,2.27.63,2.97c.44.76,1.09,1.15,1.94,1.15s1.53-.37,2-1.11.71-1.76.71-3.03Z" style="fill:#fff;"/><path d="M156.8,150.09c-1.15-.84-1.93-1.99-2.34-3.43-.26-.9-.4-1.87-.4-2.92,0-1.13.14-2.14.4-3.03.44-1.41,1.23-2.51,2.38-3.32,1.15-.8,2.52-1.21,4.11-1.21s2.89.39,4.01,1.18c1.1.79,1.88,1.89,2.34,3.31.31.95.46,1.95.46,3s-.14,1.99-.4,2.88c-.42,1.48-1.19,2.65-2.33,3.5s-2.5,1.27-4.1,1.27-2.97-.42-4.11-1.26v.02ZM162.52,147.31c.44-.38.76-.91.94-1.57.15-.61.23-1.27.23-2,0-.8-.08-1.48-.23-2.03-.21-.64-.53-1.15-.98-1.52-.44-.37-.98-.54-1.6-.54s-1.18.18-1.62.54c-.42.37-.74.86-.93,1.52-.15.46-.23,1.14-.23,2.03s.07,1.53.2,2c.2.67.51,1.19.95,1.57.45.38,1,.57,1.64.57s1.16-.2,1.6-.57h.02Z" style="fill:#fff;"/><path d="M179.3,136.62c.15.08.21.22.17.42l-.6,3.26c-.02.23-.15.3-.4.2-.29-.09-.62-.14-1-.14-.15,0-.37.02-.63.06-.69.06-1.26.31-1.75.76-.48.45-.71,1.04-.71,1.79v7.81c0,.09-.03.17-.1.24s-.15.1-.24.1h-3.34c-.09,0-.17-.03-.24-.1s-.1-.15-.1-.24v-14c0-.09.03-.17.1-.24s.15-.1.24-.1h3.34c.09,0,.17.03.24.1s.1.15.1.24v1.09s.02.09.06.11.07,0,.08-.02c.78-1.15,1.83-1.71,3.15-1.71.69,0,1.23.14,1.63.4v-.02Z" style="fill:#fff;"/><path d="M189.78,139.56c-.07.07-.15.1-.24.1h-2.74c-.09,0-.14.05-.14.14v6.06c0,.63.13,1.1.39,1.4.25.31.67.46,1.24.46h.94c.09,0,.17.03.24.1s.1.15.1.24v2.72c0,.21-.11.33-.34.37-.8.03-1.38.06-1.71.06-1.58,0-2.77-.26-3.55-.78-.78-.53-1.18-1.5-1.21-2.96v-7.66c0-.09-.05-.14-.14-.14h-1.63c-.09,0-.17-.03-.24-.1s-.1-.15-.1-.24v-2.55c0-.09.03-.17.1-.24s.15-.1.24-.1h1.63c.09,0,.14-.05.14-.14v-3.4c0-.09.03-.17.1-.24.07-.07.15-.1.24-.1h3.2c.09,0,.17.03.24.1s.1.15.1.24v3.4c0,.09.05.14.14.14h2.74c.09,0,.17.03.24.1s.1.15.1.24v2.55c0,.09-.03.17-.1.24h0Z" style="fill:#fff;"/><path d="M200.4,150.09c-1.15-.84-1.93-1.99-2.34-3.43-.26-.9-.4-1.87-.4-2.92,0-1.13.14-2.14.4-3.03.44-1.41,1.23-2.51,2.38-3.32s2.52-1.21,4.11-1.21,2.89.39,4.01,1.18c1.1.79,1.88,1.89,2.34,3.31.31.95.46,1.95.46,3s-.14,1.99-.4,2.88c-.42,1.48-1.19,2.65-2.33,3.5s-2.5,1.27-4.1,1.27-2.97-.42-4.11-1.26v.02ZM206.12,147.31c.44-.38.76-.91.94-1.57.15-.61.23-1.27.23-2,0-.8-.08-1.48-.23-2.03-.21-.64-.53-1.15-.98-1.52-.44-.37-.98-.54-1.6-.54s-1.18.18-1.62.54c-.42.37-.74.86-.93,1.52-.15.46-.23,1.14-.23,2.03s.07,1.53.2,2c.2.67.51,1.19.95,1.57.45.38,1,.57,1.64.57s1.16-.2,1.6-.57h.02Z" style="fill:#fff;"/><path d="M222.63,136.53c.07-.07.15-.1.24-.1h3.34c.09,0,.17.03.24.1s.1.15.1.24v14c0,.09-.03.17-.1.24s-.15.1-.24.1h-3.34c-.09,0-.17-.03-.24-.1s-.1-.15-.1-.24v-.98s-.02-.09-.06-.1c-.03,0-.08.01-.11.07-.76,1.03-1.94,1.54-3.55,1.54-1.45,0-2.64-.44-3.57-1.31s-1.4-2.1-1.4-3.68v-9.55c0-.09.03-.17.1-.24s.15-.1.24-.1h3.32c.09,0,.17.03.24.1s.1.15.1.24v8.54c0,.76.21,1.38.62,1.86.41.48.98.71,1.7.71.64,0,1.18-.2,1.6-.59.41-.39.68-.9.77-1.53v-9c0-.09.03-.17.1-.24h0Z" style="fill:#fff;"/><path d="M238.48,136.62c.15.08.21.22.17.42l-.6,3.26c-.02.23-.15.3-.4.2-.29-.09-.62-.14-1-.14-.15,0-.37.02-.63.06-.69.06-1.26.31-1.75.76-.48.45-.71,1.04-.71,1.79v7.81c0,.09-.03.17-.1.24s-.15.1-.24.1h-3.34c-.09,0-.17-.03-.24-.1s-.1-.15-.1-.24v-14c0-.09.03-.17.1-.24s.15-.1.24-.1h3.34c.09,0,.17.03.24.1s.1.15.1.24v1.09s.02.09.06.11.07,0,.08-.02c.78-1.15,1.83-1.71,3.15-1.71.69,0,1.23.14,1.63.4v-.02Z" style="fill:#fff;"/><path d="M246.3,151.02c-.07-.07-.1-.15-.1-.24v-19.32c0-.09.03-.17.1-.24.07-.07.15-.1.24-.1h3.34c.09,0,.17.03.24.1s.1.15.1.24v19.32c0,.09-.03.17-.1.24s-.15.1-.24.1h-3.34c-.09,0-.17-.03-.24-.1Z" style="fill:#fff;"/><path d="M255.55,150.09c-1.15-.84-1.93-1.99-2.34-3.43-.26-.9-.4-1.87-.4-2.92,0-1.13.14-2.14.4-3.03.44-1.41,1.23-2.51,2.38-3.32s2.52-1.21,4.11-1.21,2.89.39,4.01,1.18c1.1.79,1.88,1.89,2.34,3.31.31.95.46,1.95.46,3s-.14,1.99-.4,2.88c-.42,1.48-1.19,2.65-2.33,3.5s-2.5,1.27-4.1,1.27-2.97-.42-4.11-1.26v.02ZM261.27,147.31c.44-.38.76-.91.94-1.57.15-.61.23-1.27.23-2,0-.8-.08-1.48-.23-2.03-.21-.64-.53-1.15-.98-1.52-.44-.37-.98-.54-1.6-.54s-1.18.18-1.62.54c-.42.37-.74.86-.93,1.52-.15.46-.23,1.14-.23,2.03s.07,1.53.2,2c.2.67.51,1.19.95,1.57.45.38,1,.57,1.64.57s1.16-.2,1.6-.57h.02Z" style="fill:#fff;"/><path d="M271.61,150.2c-1.11-.76-1.91-1.81-2.39-3.15-.32-.95-.48-2.08-.48-3.37s.16-2.39.48-3.32c.46-1.3,1.25-2.32,2.38-3.05,1.13-.75,2.45-1.11,3.97-1.11s2.86.38,4.02,1.15c1.15.76,1.92,1.72,2.3,2.88.15.46.23.8.23,1.03v.06c0,.17-.09.28-.29.31l-3.28.48h-.06c-.17,0-.29-.09-.34-.29l-.08-.46c-.14-.49-.42-.91-.88-1.23s-1-.48-1.63-.48-1.13.15-1.54.46c-.42.31-.71.72-.88,1.26-.21.57-.31,1.35-.31,2.34s.09,1.77.29,2.34c.17.57.47,1.02.9,1.34s.95.48,1.56.48,1.11-.16,1.56-.47c.45-.31.76-.75.93-1.3.02-.03.02-.09.02-.17.02-.02.02-.05.02-.09.02-.23.15-.32.4-.29l3.28.52c.2.03.29.14.29.31,0,.15-.06.44-.17.86-.4,1.27-1.17,2.27-2.33,3-1.15.72-2.48,1.09-3.99,1.09s-2.85-.38-3.96-1.15h-.01Z" style="fill:#fff;"/><path d="M293.64,136.84c.98.42,1.73,1.01,2.27,1.76s.82,1.57.82,2.49v9.69c0,.09-.03.17-.1.24s-.15.1-.24.1h-3.34c-.09,0-.17-.03-.24-.1s-.1-.15-.1-.24v-.94s-.02-.09-.06-.11c-.03-.02-.08,0-.11.06-.8,1.04-2.09,1.57-3.86,1.57-1.48,0-2.69-.37-3.61-1.09s-1.37-1.79-1.37-3.2.52-2.61,1.54-3.42c1.03-.82,2.49-1.22,4.4-1.22h2.92c.09,0,.14-.05.14-.14v-.63c0-.63-.2-1.13-.57-1.47-.38-.36-.95-.53-1.71-.53-.59,0-1.08.1-1.47.31s-.64.51-.76.88c-.06.21-.18.31-.37.29l-3.46-.46c-.23-.03-.33-.13-.31-.25.08-.8.39-1.53.95-2.17.56-.64,1.31-1.15,2.23-1.52s1.96-.54,3.1-.54c1.24,0,2.34.22,3.32.64h0ZM291.84,147.69c.57-.44.86-1,.86-1.69v-1.03c0-.09-.05-.14-.14-.14h-2.06c-.86,0-1.53.16-2.02.48s-.72.78-.72,1.38c0,.52.18.92.54,1.22s.85.45,1.46.45c.82,0,1.52-.22,2.09-.65h-.01Z" style="fill:#fff;"/><path d="M299.66,151.02c-.07-.07-.1-.15-.1-.24v-19.32c0-.09.03-.17.1-.24.07-.07.15-.1.24-.1h3.34c.09,0,.17.03.24.1s.1.15.1.24v19.32c0,.09-.03.17-.1.24s-.15.1-.24.1h-3.34c-.09,0-.17-.03-.24-.1Z" style="fill:#fff;"/><path d="M100.69,168.57c.07-.07.15-.1.24-.1h3.34c.09,0,.17.03.24.1.07.07.1.15.1.24v14c0,.09-.03.17-.1.24s-.15.1-.24.1h-3.34c-.09,0-.17-.03-.24-.1-.07-.07-.1-.15-.1-.24v-.98s-.02-.09-.06-.1c-.03,0-.08.01-.11.07-.76,1.03-1.94,1.54-3.55,1.54-1.45,0-2.64-.44-3.57-1.31s-1.4-2.1-1.4-3.68v-9.55c0-.09.03-.17.1-.24s.15-.1.24-.1h3.32c.09,0,.17.03.24.1.07.07.1.15.1.24v8.54c0,.76.21,1.38.62,1.86.41.48.98.71,1.7.71.64,0,1.18-.2,1.6-.59s.68-.9.77-1.53v-9c0-.09.03-.17.1-.24h0Z" style="fill:#fff;"/><path d="M121.23,175.85c0,1.31-.18,2.5-.54,3.57-.44,1.22-1.13,2.19-2.07,2.9s-2.11,1.07-3.5,1.07-2.43-.48-3.2-1.43c-.03-.06-.08-.08-.11-.06-.03.02-.06.06-.06.11v6.12c0,.09-.03.17-.1.24s-.15.1-.24.1h-3.34c-.09,0-.17-.03-.24-.1s-.1-.15-.1-.24v-19.32c0-.09.03-.17.1-.24s.15-.1.24-.1h3.34c.09,0,.17.03.24.1.07.07.1.15.1.24v.94s.02.09.06.1.08,0,.11-.05c.8-1.04,1.91-1.57,3.32-1.57,1.32,0,2.46.37,3.42,1.1.96.73,1.65,1.76,2.07,3.08.34.98.52,2.11.52,3.43h-.01ZM117.05,175.79c0-1.21-.2-2.16-.6-2.86-.44-.82-1.15-1.23-2.11-1.23-.87,0-1.54.41-1.98,1.23-.4.69-.6,1.65-.6,2.88s.21,2.27.63,2.97c.44.76,1.09,1.15,1.94,1.15s1.53-.37,2-1.11.71-1.76.71-3.03Z" style="fill:#fff;"/><path d="M138.73,168.88c.98.42,1.73,1.01,2.27,1.76s.82,1.57.82,2.49v9.69c0,.09-.03.17-.1.24s-.15.1-.24.1h-3.34c-.09,0-.17-.03-.24-.1-.07-.07-.1-.15-.1-.24v-.94s-.02-.09-.06-.11c-.03-.02-.08,0-.11.06-.8,1.04-2.09,1.57-3.86,1.57-1.48,0-2.69-.37-3.61-1.09s-1.37-1.79-1.37-3.2.52-2.61,1.54-3.42c1.03-.82,2.49-1.22,4.4-1.22h2.92c.09,0,.14-.05.14-.14v-.63c0-.63-.2-1.13-.57-1.47-.38-.36-.95-.53-1.71-.53-.59,0-1.08.1-1.47.31s-.64.51-.76.88c-.06.21-.18.31-.37.29l-3.46-.46c-.23-.03-.33-.13-.31-.25.08-.8.39-1.53.95-2.17.56-.64,1.31-1.15,2.23-1.52s1.96-.54,3.1-.54c1.24,0,2.34.22,3.32.64h0ZM136.92,179.73c.57-.44.86-1,.86-1.69v-1.03c0-.09-.05-.14-.14-.14h-2.06c-.86,0-1.53.16-2.02.48s-.72.78-.72,1.38c0,.52.18.92.54,1.22s.85.45,1.46.45c.82,0,1.52-.22,2.09-.65h-.01Z" style="fill:#fff;"/><path d="M156,169.64c.93.93,1.4,2.2,1.4,3.8v9.38c0,.09-.03.17-.1.24s-.15.1-.24.1h-3.34c-.09,0-.17-.03-.24-.1-.07-.07-.1-.15-.1-.24v-8.54c0-.76-.22-1.38-.64-1.86-.42-.47-1-.71-1.7-.71s-1.27.24-1.7.71c-.42.48-.64,1.1-.64,1.86v8.54c0,.09-.03.17-.1.24s-.15.1-.24.1h-3.34c-.09,0-.17-.03-.24-.1-.07-.07-.1-.15-.1-.24v-14c0-.09.03-.17.1-.24s.15-.1.24-.1h3.34c.09,0,.17.03.24.1.07.07.1.15.1.24v1s.02.09.06.11.07,0,.08-.03c.78-1.1,1.94-1.65,3.49-1.65s2.76.47,3.69,1.4h0Z" style="fill:#fff;"/><path d="M169.5,163.25c.07-.07.15-.1.24-.1h3.34c.09,0,.17.03.24.1s.1.15.1.24v19.32c0,.09-.03.17-.1.24s-.15.1-.24.1h-3.34c-.09,0-.17-.03-.24-.1s-.1-.15-.1-.24v-.94s-.02-.09-.06-.1c-.03,0-.08,0-.11.05-.8,1.04-1.89,1.57-3.28,1.57s-2.48-.37-3.45-1.11-1.65-1.77-2.08-3.05c-.32-.99-.48-2.15-.48-3.46s.17-2.54.52-3.55c.44-1.22,1.13-2.18,2.08-2.9.94-.71,2.11-1.07,3.5-1.07s2.43.48,3.2,1.43c.03.06.08.08.11.06s.06-.06.06-.11v-6.12c0-.09.03-.17.1-.24h-.01ZM169.38,175.81c0-1.27-.21-2.27-.63-3-.44-.75-1.08-1.11-1.92-1.11-.9,0-1.57.37-2.03,1.11-.48.75-.71,1.76-.71,3.03,0,1.15.2,2.1.6,2.86.48.82,1.18,1.23,2.11,1.23.86,0,1.53-.41,2-1.23.38-.7.57-1.66.57-2.88h.01Z" style="fill:#fff;"/><path d="M184.69,182.24c-1.11-.76-1.91-1.81-2.39-3.15-.32-.95-.48-2.08-.48-3.37s.16-2.39.48-3.32c.46-1.3,1.25-2.32,2.38-3.05,1.13-.75,2.45-1.11,3.97-1.11s2.86.38,4.02,1.15c1.15.76,1.92,1.72,2.3,2.88.15.46.23.8.23,1.03v.06c0,.17-.09.28-.29.31l-3.28.48h-.06c-.17,0-.29-.09-.34-.29l-.08-.46c-.14-.49-.42-.91-.88-1.23s-1-.48-1.63-.48-1.13.15-1.54.46c-.42.31-.71.72-.88,1.26-.21.57-.31,1.35-.31,2.34s.09,1.77.29,2.34c.17.57.47,1.02.9,1.34s.95.48,1.56.48,1.11-.16,1.56-.47c.45-.31.76-.75.93-1.3.02-.03.02-.09.02-.17.02-.02.02-.05.02-.09.02-.23.15-.32.4-.29l3.28.52c.2.03.29.14.29.31,0,.15-.06.44-.17.86-.4,1.27-1.17,2.27-2.33,3-1.15.72-2.48,1.09-3.99,1.09s-2.85-.38-3.96-1.15h-.01Z" style="fill:#fff;"/><path d="M199.77,182.13c-1.15-.84-1.93-1.99-2.34-3.43-.26-.9-.4-1.87-.4-2.92,0-1.13.14-2.14.4-3.03.44-1.41,1.23-2.51,2.38-3.32s2.52-1.21,4.11-1.21,2.89.39,4.01,1.18c1.1.79,1.88,1.89,2.34,3.31.31.95.46,1.95.46,3s-.14,1.99-.4,2.88c-.42,1.48-1.19,2.65-2.33,3.5s-2.5,1.27-4.1,1.27-2.97-.42-4.11-1.26v.02ZM205.49,179.36c.44-.38.76-.91.94-1.57.15-.61.23-1.27.23-2,0-.8-.08-1.48-.23-2.03-.21-.64-.53-1.15-.98-1.52-.44-.37-.98-.54-1.6-.54s-1.18.18-1.62.54c-.42.37-.74.86-.93,1.52-.15.46-.23,1.14-.23,2.03s.07,1.53.2,2c.2.67.51,1.19.95,1.57.45.38,1,.57,1.64.57s1.16-.2,1.6-.57h.02Z" style="fill:#fff;"/><path d="M233.11,169.58c.84.9,1.26,2.16,1.26,3.78v9.46c0,.09-.03.17-.1.24s-.15.1-.24.1h-3.34c-.09,0-.17-.03-.24-.1s-.1-.15-.1-.24v-8.58c0-.78-.2-1.4-.6-1.86s-.93-.69-1.6-.69-1.21.23-1.63.69-.63,1.07-.63,1.83v8.6c0,.09-.03.17-.1.24s-.15.1-.24.1h-3.32c-.09,0-.17-.03-.24-.1s-.1-.15-.1-.24v-8.58c0-.76-.21-1.38-.63-1.85-.42-.47-.96-.7-1.63-.7-.61,0-1.13.18-1.53.54-.41.37-.65.86-.74,1.52v9.06c0,.09-.03.17-.1.24s-.15.1-.24.1h-3.34c-.09,0-.17-.03-.24-.1s-.1-.15-.1-.24v-14c0-.09.03-.17.1-.24s.15-.1.24-.1h3.34c.09,0,.17.03.24.1s.1.15.1.24v1.11s.02.09.06.11.08,0,.11-.06c.78-1.16,1.99-1.74,3.63-1.74.95,0,1.79.2,2.5.6s1.26.98,1.64,1.71c.06.11.13.11.2,0,.41-.78.99-1.37,1.7-1.74.71-.38,1.52-.57,2.41-.57,1.48,0,2.65.45,3.49,1.34v.03Z" style="fill:#fff;"/><path d="M237.76,166.17c-.42-.42-.64-.96-.64-1.62s.21-1.21.63-1.63c.41-.42.96-.63,1.63-.63s1.21.21,1.63.63c.41.42.63.96.63,1.63s-.22,1.18-.64,1.62c-.42.42-.96.64-1.62.64s-1.18-.22-1.62-.64ZM237.41,183.06c-.07-.07-.1-.15-.1-.24v-14.03c0-.09.03-.17.1-.24s.15-.1.24-.1h3.34c.09,0,.17.03.24.1s.1.15.1.24v14.03c0,.09-.03.17-.1.24s-.15.1-.24.1h-3.34c-.09,0-.17-.03-.24-.1Z" style="fill:#fff;"/><path d="M255.84,169.64c.93.93,1.4,2.2,1.4,3.8v9.38c0,.09-.03.17-.1.24s-.15.1-.24.1h-3.34c-.09,0-.17-.03-.24-.1s-.1-.15-.1-.24v-8.54c0-.76-.22-1.38-.64-1.86-.42-.47-1-.71-1.7-.71s-1.27.24-1.7.71c-.42.48-.64,1.1-.64,1.86v8.54c0,.09-.03.17-.1.24s-.15.1-.24.1h-3.34c-.09,0-.17-.03-.24-.1s-.1-.15-.1-.24v-14c0-.09.03-.17.1-.24s.15-.1.24-.1h3.34c.09,0,.17.03.24.1s.1.15.1.24v1s.02.09.06.11.07,0,.08-.03c.78-1.1,1.94-1.65,3.49-1.65s2.76.47,3.69,1.4Z" style="fill:#fff;"/><path d="M269.2,168.57c.07-.07.15-.1.24-.1h3.34c.09,0,.17.03.24.1s.1.15.1.24v13.03c0,2.49-.72,4.28-2.16,5.35s-3.3,1.6-5.56,1.6c-.67,0-1.41-.05-2.23-.14-.2-.02-.29-.14-.29-.37l.11-2.94c0-.25.14-.36.4-.31.69.11,1.32.17,1.88.17,1.22,0,2.16-.26,2.81-.8s.99-1.39.99-2.57c0-.06-.02-.09-.06-.1-.03,0-.08,0-.11.05-.72.78-1.78,1.17-3.17,1.17-1.24,0-2.38-.3-3.42-.9-1.03-.6-1.78-1.57-2.22-2.9-.29-.87-.42-2.01-.42-3.4,0-1.48.17-2.7.52-3.63.4-1.16,1.08-2.1,2.03-2.8s2.06-1.06,3.32-1.06c1.47,0,2.6.44,3.38,1.32.03.03.08.06.11.05.03,0,.06-.05.06-.1v-.69c0-.09.03-.17.1-.24v-.02ZM269.11,175.7c0-.59-.02-1.04-.06-1.37s-.1-.63-.2-.92c-.17-.52-.46-.93-.86-1.24s-.9-.47-1.48-.47-1.06.16-1.46.47c-.4.31-.7.72-.88,1.24-.26.57-.4,1.34-.4,2.32,0,1.07.11,1.83.34,2.28.17.52.47.93.9,1.24s.94.47,1.53.47,1.11-.16,1.52-.47.68-.72.83-1.22c.15-.57.23-1.35.23-2.34h0Z" style="fill:#fff;"/><path d="M91.77,220.79c-.03-.07-.06-.15-.06-.24v-2.63c0-.09.03-.17.1-.24s.15-.1.24-.1c.8-.02,1.44-.09,1.91-.2.47-.11.84-.33,1.11-.65s.49-.8.64-1.43c.02-.03.02-.09,0-.17l-4.69-14.23s-.02-.09-.02-.14c0-.17.1-.25.31-.25h3.57c.21,0,.34.09.4.29l2.4,9.26s.05.08.08.08.07-.02.08-.08l2.4-9.26c.06-.2.2-.29.4-.29h3.49c.11,0,.2.03.24.1.05.07.06.17.01.3l-4.95,14.87c-.48,1.39-.96,2.43-1.46,3.13-.49.7-1.19,1.21-2.09,1.53-.9.32-2.16.48-3.8.48h-.2s-.1-.03-.14-.1h0Z" style="fill:#fff;"/><path d="M107.84,214.18c-1.15-.84-1.93-1.99-2.34-3.43-.26-.9-.4-1.87-.4-2.92,0-1.13.14-2.14.4-3.03.44-1.41,1.23-2.51,2.38-3.32s2.52-1.21,4.11-1.21,2.89.39,4.01,1.18c1.1.79,1.88,1.89,2.34,3.31.31.95.46,1.95.46,3s-.14,1.99-.4,2.88c-.42,1.48-1.19,2.65-2.33,3.5s-2.5,1.27-4.1,1.27-2.97-.42-4.11-1.26v.02ZM113.56,211.4c.44-.38.76-.91.94-1.57.15-.61.23-1.27.23-2,0-.8-.08-1.48-.23-2.03-.21-.64-.53-1.15-.98-1.52-.44-.37-.98-.54-1.6-.54s-1.18.18-1.62.54c-.42.37-.74.86-.93,1.52-.15.46-.23,1.14-.23,2.03s.07,1.53.2,2c.2.67.51,1.19.95,1.57s1,.57,1.64.57,1.16-.2,1.6-.57h.02Z" style="fill:#fff;"/><path d="M130.08,200.61c.07-.07.15-.1.24-.1h3.34c.09,0,.17.03.24.1.07.07.1.15.1.24v14c0,.09-.03.17-.1.24s-.15.1-.24.1h-3.34c-.09,0-.17-.03-.24-.1-.07-.07-.1-.15-.1-.24v-.98s-.02-.09-.06-.1c-.03,0-.08.01-.11.07-.76,1.03-1.94,1.54-3.55,1.54-1.45,0-2.64-.44-3.57-1.31s-1.4-2.1-1.4-3.68v-9.55c0-.09.03-.17.1-.24s.15-.1.24-.1h3.32c.09,0,.17.03.24.1.07.07.1.15.1.24v8.54c0,.76.21,1.38.62,1.86.41.48.98.71,1.7.71.64,0,1.18-.2,1.6-.59s.68-.9.77-1.53v-9c0-.09.03-.17.1-.24h0Z" style="fill:#fff;"/><path d="M148.34,201.69c.93.93,1.4,2.2,1.4,3.8v9.38c0,.09-.03.17-.1.24s-.15.1-.24.1h-3.34c-.09,0-.17-.03-.24-.1-.07-.07-.1-.15-.1-.24v-8.54c0-.76-.22-1.38-.64-1.86-.42-.47-1-.71-1.7-.71s-1.27.24-1.7.71c-.42.48-.64,1.1-.64,1.86v8.54c0,.09-.03.17-.1.24s-.15.1-.24.1h-3.34c-.09,0-.17-.03-.24-.1-.07-.07-.1-.15-.1-.24v-14c0-.09.03-.17.1-.24s.15-.1.24-.1h3.34c.09,0,.17.03.24.1.07.07.1.15.1.24v1s.02.09.06.11.07,0,.08-.03c.78-1.1,1.94-1.65,3.49-1.65s2.76.47,3.69,1.4h0Z" style="fill:#fff;"/><path d="M161.71,200.61c.07-.07.15-.1.24-.1h3.34c.09,0,.17.03.24.1s.1.15.1.24v13.03c0,2.49-.72,4.28-2.16,5.35s-3.3,1.6-5.56,1.6c-.67,0-1.41-.05-2.23-.14-.2-.02-.29-.14-.29-.37l.11-2.94c0-.25.14-.36.4-.31.69.11,1.32.17,1.88.17,1.22,0,2.16-.26,2.81-.8s.99-1.39.99-2.57c0-.06-.02-.09-.06-.1-.03,0-.08,0-.11.05-.72.78-1.78,1.17-3.17,1.17-1.24,0-2.38-.3-3.42-.9-1.03-.6-1.78-1.57-2.22-2.9-.29-.87-.42-2.01-.42-3.4,0-1.48.17-2.7.52-3.63.4-1.16,1.08-2.1,2.03-2.8s2.06-1.06,3.32-1.06c1.47,0,2.6.44,3.38,1.32.03.03.08.06.11.05.03,0,.06-.05.06-.1v-.69c0-.09.03-.17.1-.24v-.02ZM161.6,207.75c0-.59-.02-1.04-.06-1.37s-.1-.63-.2-.92c-.17-.52-.46-.93-.86-1.24s-.9-.47-1.48-.47-1.06.16-1.46.47c-.4.31-.7.72-.88,1.24-.26.57-.4,1.34-.4,2.32,0,1.07.11,1.83.34,2.28.17.52.47.93.9,1.24s.94.47,1.53.47,1.11-.16,1.52-.47.68-.72.83-1.22c.15-.57.23-1.35.23-2.34h0Z" style="fill:#fff;"/><path d="M176.75,214.85c-.95-.37-1.69-.86-2.22-1.52-.53-.64-.78-1.38-.78-2.2v-.29c0-.09.03-.17.1-.24s.15-.1.24-.1h3.17c.09,0,.17.03.24.1s.1.15.1.24v.02c0,.42.23.78.7,1.07.47.3,1.06.45,1.76.45.64,0,1.17-.13,1.57-.39.4-.25.6-.57.6-.95,0-.34-.17-.6-.52-.77s-.91-.36-1.69-.54c-.9-.23-1.6-.45-2.11-.65-1.22-.41-2.19-.93-2.92-1.54s-1.09-1.48-1.09-2.63c0-1.41.55-2.53,1.64-3.35,1.09-.83,2.55-1.24,4.36-1.24,1.22,0,2.29.2,3.2.59.92.39,1.63.94,2.12,1.64.51.7.76,1.5.76,2.4,0,.09-.03.17-.1.24s-.15.1-.24.1h-3.05c-.09,0-.17-.03-.24-.1s-.1-.15-.1-.24c0-.42-.22-.77-.64-1.06s-1-.42-1.7-.42c-.63,0-1.15.11-1.54.34-.4.23-.6.54-.6.94s.2.67.59.86,1.05.39,1.96.6c.21.06.45.11.71.18.26.07.55.15.86.24,1.36.4,2.42.92,3.2,1.54.78.63,1.17,1.54,1.17,2.74,0,1.41-.56,2.51-1.68,3.31s-2.62,1.18-4.5,1.18c-1.27,0-2.39-.18-3.34-.54h-.01Z" style="fill:#fff;"/><path d="M202.24,207.89c0,1.31-.18,2.5-.54,3.57-.44,1.22-1.13,2.19-2.07,2.9-.94.71-2.11,1.07-3.5,1.07s-2.43-.48-3.2-1.43c-.03-.06-.08-.08-.11-.06-.03.02-.06.06-.06.11v6.12c0,.09-.03.17-.1.24s-.15.1-.24.1h-3.34c-.09,0-.17-.03-.24-.1s-.1-.15-.1-.24v-19.32c0-.09.03-.17.1-.24s.15-.1.24-.1h3.34c.09,0,.17.03.24.1s.1.15.1.24v.94s.02.09.06.1.08,0,.11-.05c.8-1.04,1.91-1.57,3.32-1.57,1.32,0,2.46.37,3.42,1.1.96.73,1.65,1.76,2.07,3.08.34.98.52,2.11.52,3.43h-.01ZM198.06,207.83c0-1.21-.2-2.16-.6-2.86-.44-.82-1.15-1.23-2.11-1.23-.87,0-1.54.41-1.98,1.23-.4.69-.6,1.65-.6,2.88s.21,2.27.63,2.97c.44.76,1.09,1.15,1.94,1.15s1.53-.37,2-1.11.71-1.76.71-3.03Z" style="fill:#fff;"/><path d="M207.21,214.18c-1.15-.84-1.93-1.99-2.34-3.43-.26-.9-.4-1.87-.4-2.92,0-1.13.14-2.14.4-3.03.44-1.41,1.23-2.51,2.38-3.32s2.52-1.21,4.11-1.21,2.89.39,4.01,1.18c1.1.79,1.88,1.89,2.34,3.31.31.95.46,1.95.46,3s-.14,1.99-.4,2.88c-.42,1.48-1.19,2.65-2.33,3.5s-2.5,1.27-4.1,1.27-2.97-.42-4.11-1.26v.02ZM212.93,211.4c.44-.38.76-.91.94-1.57.15-.61.23-1.27.23-2,0-.8-.08-1.48-.23-2.03-.21-.64-.53-1.15-.98-1.52-.44-.37-.98-.54-1.6-.54s-1.18.18-1.62.54c-.42.37-.74.86-.93,1.52-.15.46-.23,1.14-.23,2.03s.07,1.53.2,2c.2.67.51,1.19.95,1.57.45.38,1,.57,1.64.57s1.16-.2,1.6-.57h.02Z" style="fill:#fff;"/><path d="M229.71,200.71c.15.08.21.22.17.42l-.6,3.26c-.02.23-.15.3-.4.2-.29-.09-.62-.14-1-.14-.15,0-.37.02-.63.06-.69.06-1.26.31-1.75.76-.48.45-.71,1.04-.71,1.79v7.81c0,.09-.03.17-.1.24s-.15.1-.24.1h-3.34c-.09,0-.17-.03-.24-.1s-.1-.15-.1-.24v-14c0-.09.03-.17.1-.24s.15-.1.24-.1h3.34c.09,0,.17.03.24.1s.1.15.1.24v1.09s.02.09.06.11.07,0,.08-.02c.78-1.15,1.83-1.71,3.15-1.71.69,0,1.23.14,1.63.4v-.02Z" style="fill:#fff;"/><path d="M240.18,203.64c-.07.07-.15.1-.24.1h-2.74c-.09,0-.14.05-.14.14v6.06c0,.63.13,1.1.39,1.4.25.31.67.46,1.24.46h.94c.09,0,.17.03.24.1s.1.15.1.24v2.72c0,.21-.11.33-.34.37-.8.03-1.38.06-1.71.06-1.58,0-2.77-.26-3.55-.78-.78-.53-1.18-1.5-1.21-2.96v-7.66c0-.09-.05-.14-.14-.14h-1.63c-.09,0-.17-.03-.24-.1s-.1-.15-.1-.24v-2.55c0-.09.03-.17.1-.24s.15-.1.24-.1h1.63c.09,0,.14-.05.14-.14v-3.4c0-.09.03-.17.1-.24s.15-.1.24-.1h3.2c.09,0,.17.03.24.1s.1.15.1.24v3.4c0,.09.05.14.14.14h2.74c.09,0,.17.03.24.1s.1.15.1.24v2.55c0,.09-.03.17-.1.24h0Z" style="fill:#fff;"/><path d="M243.27,198.21c-.42-.42-.64-.96-.64-1.62s.21-1.21.63-1.63c.41-.42.96-.63,1.63-.63s1.21.21,1.63.63c.41.42.63.96.63,1.63s-.22,1.18-.64,1.62c-.42.42-.96.64-1.62.64s-1.18-.22-1.62-.64ZM242.93,215.11c-.07-.07-.1-.15-.1-.24v-14.03c0-.09.03-.17.1-.24s.15-.1.24-.1h3.34c.09,0,.17.03.24.1s.1.15.1.24v14.03c0,.09-.03.17-.1.24s-.15.1-.24.1h-3.34c-.09,0-.17-.03-.24-.1Z" style="fill:#fff;"/><path d="M261.36,201.69c.93.93,1.4,2.2,1.4,3.8v9.38c0,.09-.03.17-.1.24s-.15.1-.24.1h-3.34c-.09,0-.17-.03-.24-.1s-.1-.15-.1-.24v-8.54c0-.76-.22-1.38-.64-1.86-.42-.47-1-.71-1.7-.71s-1.27.24-1.7.71c-.42.48-.64,1.1-.64,1.86v8.54c0,.09-.03.17-.1.24s-.15.1-.24.1h-3.34c-.09,0-.17-.03-.24-.1s-.1-.15-.1-.24v-14c0-.09.03-.17.1-.24s.15-.1.24-.1h3.34c.09,0,.17.03.24.1s.1.15.1.24v1s.02.09.06.11.07,0,.08-.03c.78-1.1,1.94-1.65,3.49-1.65s2.76.47,3.69,1.4Z" style="fill:#fff;"/><path d="M274.73,200.61c.07-.07.15-.1.24-.1h3.34c.09,0,.17.03.24.1s.1.15.1.24v13.03c0,2.49-.72,4.28-2.16,5.35s-3.3,1.6-5.56,1.6c-.67,0-1.41-.05-2.23-.14-.2-.02-.29-.14-.29-.37l.11-2.94c0-.25.14-.36.4-.31.69.11,1.32.17,1.88.17,1.22,0,2.16-.26,2.81-.8s.99-1.39.99-2.57c0-.06-.02-.09-.06-.1-.03,0-.08,0-.11.05-.72.78-1.78,1.17-3.17,1.17-1.24,0-2.38-.3-3.42-.9-1.03-.6-1.78-1.57-2.22-2.9-.29-.87-.42-2.01-.42-3.4,0-1.48.17-2.7.52-3.63.4-1.16,1.08-2.1,2.03-2.8s2.06-1.06,3.32-1.06c1.47,0,2.6.44,3.38,1.32.03.03.08.06.11.05.03,0,.06-.05.06-.1v-.69c0-.09.03-.17.1-.24v-.02ZM274.63,207.75c0-.59-.02-1.04-.06-1.37s-.1-.63-.2-.92c-.17-.52-.46-.93-.86-1.24s-.9-.47-1.48-.47-1.06.16-1.46.47c-.4.31-.7.72-.88,1.24-.26.57-.4,1.34-.4,2.32,0,1.07.11,1.83.34,2.28.17.52.47.93.9,1.24s.94.47,1.53.47,1.11-.16,1.52-.47.68-.72.83-1.22c.15-.57.23-1.35.23-2.34h0Z" style="fill:#fff;"/><path d="M296.45,200.93c.98.42,1.73,1.01,2.27,1.76s.82,1.57.82,2.49v9.69c0,.09-.03.17-.1.24s-.15.1-.24.1h-3.34c-.09,0-.17-.03-.24-.1s-.1-.15-.1-.24v-.94s-.02-.09-.06-.11c-.03-.02-.08,0-.11.06-.8,1.04-2.09,1.57-3.86,1.57-1.48,0-2.69-.37-3.61-1.09s-1.37-1.79-1.37-3.2.52-2.61,1.54-3.42c1.03-.82,2.49-1.22,4.4-1.22h2.92c.09,0,.14-.05.14-.14v-.63c0-.63-.2-1.13-.57-1.47-.38-.36-.95-.53-1.71-.53-.59,0-1.08.1-1.47.31s-.64.51-.76.88c-.06.21-.18.31-.37.29l-3.46-.46c-.23-.03-.33-.13-.31-.25.08-.8.39-1.53.95-2.17.56-.64,1.31-1.15,2.23-1.52s1.96-.54,3.1-.54c1.24,0,2.34.22,3.32.64h0ZM294.64,211.78c.57-.44.86-1,.86-1.69v-1.03c0-.09-.05-.14-.14-.14h-2.06c-.86,0-1.53.16-2.02.48s-.72.78-.72,1.38c0,.52.18.92.54,1.22s.85.45,1.46.45c.82,0,1.52-.22,2.09-.65h-.01Z" style="fill:#fff;"/><path d="M310.41,203.64c-.07.07-.15.1-.24.1h-2.74c-.09,0-.14.05-.14.14v6.06c0,.63.13,1.1.39,1.4.25.31.67.46,1.24.46h.94c.09,0,.17.03.24.1s.1.15.1.24v2.72c0,.21-.11.33-.34.37-.8.03-1.38.06-1.71.06-1.58,0-2.77-.26-3.55-.78-.78-.53-1.18-1.5-1.21-2.96v-7.66c0-.09-.05-.14-.14-.14h-1.63c-.09,0-.17-.03-.24-.1s-.1-.15-.1-.24v-2.55c0-.09.03-.17.1-.24s.15-.1.24-.1h1.63c.09,0,.14-.05.14-.14v-3.4c0-.09.03-.17.1-.24s.15-.1.24-.1h3.2c.09,0,.17.03.24.1s.1.15.1.24v3.4c0,.09.05.14.14.14h2.74c.09,0,.17.03.24.1s.1.15.1.24v2.55c0,.09-.03.17-.1.24h0Z" style="fill:#fff;"/><path d="M324.29,201.69c.93.93,1.4,2.2,1.4,3.8v9.38c0,.09-.03.17-.1.24s-.15.1-.24.1h-3.34c-.09,0-.17-.03-.24-.1s-.1-.15-.1-.24v-8.54c0-.76-.22-1.38-.64-1.86-.42-.47-1-.71-1.7-.71s-1.27.24-1.7.71c-.42.48-.64,1.1-.64,1.86v8.54c0,.09-.03.17-.1.24s-.15.1-.24.1h-3.34c-.09,0-.17-.03-.24-.1s-.1-.15-.1-.24v-19.32c0-.09.03-.17.1-.24s.15-.1.24-.1h3.34c.09,0,.17.03.24.1s.1.15.1.24v6.31s.02.09.06.11.07,0,.08-.03c.78-1.1,1.94-1.65,3.49-1.65s2.76.47,3.69,1.4h0Z" style="fill:#fff;"/><path d="M328.68,215.11c-.07-.07-.1-.15-.1-.24v-19.32c0-.09.03-.17.1-.24s.15-.1.24-.1h3.34c.09,0,.17.03.24.1s.1.15.1.24v19.32c0,.09-.03.17-.1.24s-.15.1-.24.1h-3.34c-.09,0-.17-.03-.24-.1Z" style="fill:#fff;"/><path d="M348.68,208.77c-.02.23-.14.34-.37.34h-8.83c-.11,0-.15.05-.11.14.06.38.16.76.31,1.15.49,1.07,1.5,1.6,3.03,1.6,1.22-.02,2.18-.52,2.88-1.48.08-.11.16-.17.25-.17.06,0,.13.03.2.11l2.06,2.03c.09.09.14.18.14.25,0,.03-.03.11-.11.23-.63.78-1.44,1.39-2.43,1.81-.99.42-2.08.64-3.26.64-1.64,0-3.02-.37-4.16-1.11s-1.95-1.78-2.45-3.11c-.4-.95-.6-2.2-.6-3.74,0-1.04.14-1.97.42-2.78.44-1.35,1.21-2.43,2.3-3.23,1.09-.8,2.4-1.21,3.9-1.21,1.91,0,3.43.55,4.59,1.65,1.15,1.1,1.85,2.58,2.1,4.43.11.72.15,1.54.11,2.43h.02ZM339.53,205.43c-.08.25-.14.55-.2.92,0,.09.05.14.14.14h4.95c.11,0,.15-.05.11-.14-.09-.55-.14-.82-.14-.8-.17-.57-.47-1.01-.9-1.33-.42-.31-.95-.47-1.58-.47-1.21,0-1.99.56-2.38,1.69h-.01Z" style="fill:#fff;"/><path d="M359.19,203.64c-.07.07-.15.1-.24.1h-2.74c-.09,0-.14.05-.14.14v6.06c0,.63.13,1.1.39,1.4.25.31.67.46,1.24.46h.94c.09,0,.17.03.24.1s.1.15.1.24v2.72c0,.21-.11.33-.34.37-.8.03-1.38.06-1.71.06-1.58,0-2.77-.26-3.55-.78-.78-.53-1.18-1.5-1.21-2.96v-7.66c0-.09-.05-.14-.14-.14h-1.63c-.09,0-.17-.03-.24-.1s-.1-.15-.1-.24v-2.55c0-.09.03-.17.1-.24s.15-.1.24-.1h1.63c.09,0,.14-.05.14-.14v-3.4c0-.09.03-.17.1-.24s.15-.1.24-.1h3.2c.09,0,.17.03.24.1s.1.15.1.24v3.4c0,.09.05.14.14.14h2.74c.09,0,.17.03.24.1s.1.15.1.24v2.55c0,.09-.03.17-.1.24h0Z" style="fill:#fff;"/><path d="M374.67,208.77c-.02.23-.14.34-.37.34h-8.83c-.11,0-.15.05-.11.14.06.38.16.76.31,1.15.49,1.07,1.5,1.6,3.03,1.6,1.22-.02,2.18-.52,2.88-1.48.08-.11.16-.17.25-.17.06,0,.13.03.2.11l2.06,2.03c.09.09.14.18.14.25,0,.03-.03.11-.11.23-.63.78-1.44,1.39-2.43,1.81-.99.42-2.08.64-3.26.64-1.64,0-3.02-.37-4.16-1.11s-1.95-1.78-2.45-3.11c-.4-.95-.6-2.2-.6-3.74,0-1.04.14-1.97.42-2.78.44-1.35,1.21-2.43,2.3-3.23,1.09-.8,2.4-1.21,3.9-1.21,1.91,0,3.43.55,4.59,1.65,1.15,1.1,1.85,2.58,2.1,4.43.11.72.15,1.54.11,2.43h.02ZM365.52,205.43c-.08.25-.14.55-.2.92,0,.09.05.14.14.14h4.95c.11,0,.15-.05.11-.14-.09-.55-.14-.82-.14-.8-.17-.57-.47-1.01-.9-1.33-.42-.31-.95-.47-1.58-.47-1.21,0-1.99.56-2.38,1.69h-.01Z" style="fill:#fff;"/><path d="M379.51,214.85c-.95-.37-1.69-.86-2.22-1.52-.53-.64-.78-1.38-.78-2.2v-.29c0-.09.03-.17.1-.24s.15-.1.24-.1h3.17c.09,0,.17.03.24.1s.1.15.1.24v.02c0,.42.23.78.7,1.07.47.3,1.06.45,1.76.45.64,0,1.17-.13,1.57-.39.4-.25.6-.57.6-.95,0-.34-.17-.6-.52-.77s-.91-.36-1.69-.54c-.9-.23-1.6-.45-2.11-.65-1.22-.41-2.19-.93-2.92-1.54s-1.09-1.48-1.09-2.63c0-1.41.55-2.53,1.64-3.35,1.09-.83,2.55-1.24,4.36-1.24,1.22,0,2.29.2,3.2.59.92.39,1.63.94,2.12,1.64.51.7.76,1.5.76,2.4,0,.09-.03.17-.1.24s-.15.1-.24.1h-3.05c-.09,0-.17-.03-.24-.1s-.1-.15-.1-.24c0-.42-.22-.77-.64-1.06s-1-.42-1.7-.42c-.63,0-1.15.11-1.54.34-.4.23-.6.54-.6.94s.2.67.59.86,1.05.39,1.96.6c.21.06.45.11.71.18.26.07.55.15.86.24,1.36.4,2.42.92,3.2,1.54.78.63,1.17,1.54,1.17,2.74,0,1.41-.56,2.51-1.68,3.31s-2.62,1.18-4.5,1.18c-1.27,0-2.39-.18-3.34-.54h-.01Z" style="fill:#fff;"/><path d="M364.74,103.26l.4-14.45h6.33l1.37,7.76c1.3.54,2.65.96,4.09,1.29,1.72.37,3.39.56,5.02.56,1.88,0,3.61-.25,5.16-.78,1.56-.52,2.8-1.3,3.73-2.35s1.4-2.36,1.4-3.94-.49-2.92-1.47-3.93c-.99-1.01-2.3-1.86-3.93-2.55-1.63-.7-3.42-1.33-5.37-1.92-1.95-.59-3.9-1.25-5.86-2.01s-3.76-1.71-5.39-2.88c-1.63-1.17-2.94-2.65-3.93-4.45-.99-1.8-1.47-4.08-1.47-6.82,0-3.59.86-6.55,2.6-8.87,1.72-2.33,4.08-4.08,7.04-5.23,2.96-1.16,6.29-1.74,9.99-1.74,2.63,0,5.37.28,8.23.83,2.86.55,5.71,1.39,8.53,2.5l-.82,13.39h-6.48l-1.45-7.5c-.98-.32-1.99-.59-3.05-.78-1.46-.28-2.92-.4-4.4-.4-1.7,0-3.28.21-4.75.63-1.47.42-2.65,1.1-3.55,2.03-.88.93-1.33,2.16-1.33,3.68s.51,2.72,1.5,3.7,2.32,1.8,3.95,2.49,3.43,1.34,5.41,1.96c1.98.62,3.94,1.32,5.88,2.12,1.95.79,3.74,1.79,5.37,2.98,1.63,1.19,2.95,2.71,3.95,4.55s1.5,4.11,1.5,6.82c0,3.79-.98,6.91-2.94,9.34-1.95,2.43-4.57,4.25-7.83,5.42-3.26,1.18-6.86,1.77-10.78,1.77-2.71,0-5.48-.26-8.32-.8-2.83-.53-5.62-1.33-8.36-2.4M304.33,52.22l22.11-.38v5.46l-5.59,1.92v26.33c0,1.32.06,2.59.17,3.83s.36,2.38.71,3.43.91,1.96,1.65,2.74,1.73,1.39,2.97,1.83c1.24.44,2.79.67,4.67.67s3.54-.23,4.8-.7c1.27-.47,2.3-1.11,3.09-1.95s1.38-1.83,1.77-2.95c.39-1.12.64-2.35.76-3.68s.17-2.73.17-4.2v-25.4l-5.59-1.47v-5.46l22.11-.38v5.46l-5.59,1.87v25.39c0,2.56-.24,4.95-.72,7.17-.48,2.23-1.26,4.24-2.32,6.04-1.07,1.79-2.43,3.34-4.11,4.64-1.68,1.3-3.72,2.28-6.12,2.97-2.4.69-5.2,1.03-8.38,1.03-4.18,0-7.6-.52-10.27-1.55-2.66-1.03-4.73-2.39-6.2-4.05s-2.52-3.46-3.14-5.35c-.62-1.89-1-3.72-1.15-5.46-.15-1.74-.22-3.23-.22-4.44v-26.35l-5.59-1.52v-5.5ZM266.59,59.64h-5.44v19.02h3.86c3.41,0,6-.92,7.78-2.74s2.66-4.26,2.66-7.29c0-2.79-.75-4.99-2.25-6.59s-3.71-2.4-6.63-2.4h.02ZM244.63,52.22l16.74-.38h6.94c4.21,0,7.67.72,10.36,2.18,2.69,1.46,4.67,3.43,5.97,5.92,1.3,2.49,1.94,5.3,1.94,8.46,0,3.4-.77,6.49-2.31,9.23-1.54,2.76-3.9,4.92-7.09,6.51-3.18,1.58-7.25,2.38-12.2,2.38h-3.84v11.88l7.25,1.63v5.46h-23.76v-5.46l5.59-1.63v-39.23l-5.59-1.49v-5.46h-.01ZM202.93,52.22l22.65-.38v5.46l-6.12,1.91v38.43h13.75l1.45-8.28h6.48v16.13h-38.2v-5.46l5.59-1.62v-39.19l-5.59-1.54v-5.46h0ZM154.59,52.22l16.29-.38h22.59v13.72h-6.48l-1.24-5.87h-14.65v14.68h16.42v7.6h-16.42v15.67h15.56l1.26-6.45h6.48l-.1,14.3h-39.73v-5.46l5.59-1.65v-39.15l-5.59-1.55v-5.46h.02ZM93.29,52.22l22.11-.38v5.46l-5.59,1.88v15.04h21.48v-14.98l-5.59-1.56v-5.46l22.11-.38v5.46l-5.59,1.88v39.2l5.59,1.64v5.46h-22.11v-5.46l5.59-1.66v-16.29h-21.48v16.29l5.59,1.66v5.46h-22.11v-5.46l5.59-1.65v-39.13l-5.59-1.56v-5.46Z" style="fill:#fff; fill-rule:evenodd;"/><g style="clip-path:url(#uuid-a71a12d4-91f0-4906-aa6f-46c0899fa5d0);"><g style="clip-path:url(#uuid-8724c929-ec40-4492-9dea-af3760673b1c);"><path d="M300.99,559.21h-130.76v-70.65h130.76v70.65ZM263.5,465.89h25.71l11.78,22.67h-130.76l11.78-22.67h24.93" style="fill:none; stroke:#fff; stroke-linecap:round; stroke-linejoin:round; stroke-width:3.21px;"/></g></g><g style="clip-path:url(#uuid-91e1a602-e7ff-42c4-8cf0-92192ab61de6);"><line x1="265.06" y1="477.37" x2="206.16" y2="477.37" style="fill:none; stroke:#fff; stroke-linecap:round; stroke-linejoin:round; stroke-width:3.21px;"/><ellipse cx="235.61" cy="450.88" rx="20.91" ry="20.9" style="fill:none; stroke:#fff; stroke-linecap:round; stroke-linejoin:round; stroke-width:3.21px;"/><path d="M230.06,456.11c.53-.32.93-.61,1.2-.86s.48-.58.62-.97c.14-.39.22-.9.22-1.52,0-.56-.03-.98-.1-1.25h-1.9v-2.71h1.58l-.17-.7c-.11-.45-.22-.98-.32-1.6s-.16-1.1-.16-1.45c0-1.52.42-2.65,1.27-3.38.85-.74,2.06-1.1,3.62-1.1s2.78.48,3.49,1.45c.71.97,1.07,2.37,1.07,4.21h-3.74c0-.74-.04-1.29-.12-1.66s-.29-.55-.62-.55c-.22,0-.38.07-.48.2-.1.14-.15.32-.17.56-.02.24-.02.48-.02.72v.14c0,.4.22,1.45.67,3.14h3.31v2.71h-2.9l.12,1.56c-.03.67-.2,1.26-.5,1.75s-.69.89-1.15,1.18h5.49v3.41h-10.32v-3.29h.01Z" style="fill:#16a34c;"/><path d="M218.33,520.87s2.58,2.42,2.85,3.18c.82,2.28,1.55,7.91.98,8.81-1.02,1.6-3.75,1.96-4.73,2.12s-3.59-4.24-3.59-4.24c0,0,.49,4.57,4.08,8.48s5.87,5.06,5.87,5.06c0,0-3.01-3.35-3.59-5.38-.36-1.27,1.69-3.45,3.42-4.24,1.79-.82,6.03,1.63,7.34,2.12s4.73,5.55,4.57,7.01c-.16,1.47-2.61,2.77-4.4,2.77s-3.42-.33-3.42-.33c0,0,3.1,2.28,9.95,1.96,6.85-.33,12.23-3.59,12.56-4.24.33-.65-3.05-.49-1.87-2.37.82-1.31,1.79-3.26,1.79-3.26,0,0-1.63,1.79-3.26,3.1s-7.42,2.53-8.56,1.55c-1.14-.98-3.42-4.08-3.99-6.61-.26-1.16,3.5-5.3,4.16-5.95.65-.65,8.56-2.69,7.75-2.53-1.95.39-7.34-.28-8.64-1.96-1.14-1.47-3.23-4.02-2.77-6.68.41-2.37.82-4.24,1.63-6.03.19-.42-2.61,4.08-4.4,5.22-2.29,1.46-3.97,1.9-6.52,2.61-2.94.81-3.1,1.47-6.52-2.77-1.7-2.1,1.58-6.87,2.28-7.5,1.55-1.39,4.16-2.04,7.74-3.34,0,0,.38-.32-.98,0-2.36.57-5.55,1.41-6.85.65-1.55-.9.82-3.42,2.12-4.24,0,0-5.66,3.51-8.64,10.6-3.42,8.15-1.14,14.67-1.14,14.67,0,0-.33-5.06.82-7.18.8-1.48,1.71-2.69,4-1.06" style="fill:#fff;"/><path d="M224.48,503.66c1.99-1.49,9.51-4.78,17.32-3.35,9.62,1.76,15.96,8.48,18.26,16.14.88,2.95,1.52,5.8.99,10.3-1.14,9.61-6.93,15.12-9.08,16.44,0,0,6.11-6.38,3.97-17.34-1.83-9.34-10.96-11.59-18.78-13.56-3.3-.83-4.03-5.12,1.47-4.12,5.5,1,7.34,2.06,8.19,1.22,1.34-1.32-3.76-4.54-9.28-5.41-3.14-.5-7.51-.18-12.33,1.16-2.24.62-2.06-.49-.72-1.5" style="fill:#16a34c;"/></g><g style="clip-path:url(#uuid-530fb720-0b15-4bc4-8978-9780b506c31f);"><path d="M161.21,419.04c.25,1.86.37,3.8.38,5.8h0c0,.64,0,1.3-.04,1.95,0,.18,0,.35-.02.53h0c-.14,2.71-.49,5.52-1.1,8.38-.36,1.7-.79,3.35-1.28,4.95-.12.39-.24.77-.37,1.15-.59,1.78-1.27,3.49-2.01,5.12-.27.59-.55,1.17-.83,1.74-.6,1.19-1.23,2.33-1.9,3.42-5.6,9.13-13.5,14.6-20.97,13.45-4.16-.64-7.6-3.24-10.1-7.18-.31-.49-.61-1.01-.9-1.55-.33-.63-.65-1.29-.93-1.97-.43-1.01-.82-2.09-1.15-3.21-.68-2.31-1.15-4.84-1.38-7.52-.09-1.1-.15-2.22-.16-3.36,0-1.03,0-2.08.07-3.14.06-1.15.16-2.32.31-3.51.02-.17.04-.34.07-.51.18-1.36.42-2.75.71-4.14.02-.11.05-.23.07-.34.03-.16.07-.33.11-.49.44-1.95.98-3.84,1.6-5.66.05-.16.11-.32.17-.48.93-2.65,2.05-5.14,3.3-7.44.08-.16.17-.32.26-.47.4-.71.81-1.4,1.23-2.06.39-.61.78-1.2,1.19-1.77.49-.69.98-1.35,1.5-1.98.57-.71,1.16-1.38,1.76-2.02.85-.91,1.74-1.74,2.64-2.5,4.26-3.57,8.99-5.34,13.55-4.64,5.5.84,9.75,5.12,12.22,11.38.29.73.55,1.48.78,2.26.18.59.34,1.19.49,1.8.14.56.26,1.13.37,1.71.14.74.27,1.5.37,2.27" style="fill:#2f8c43;"/><path d="M191.39,459.35s-.59.96-1.18,1.8h0s-.2.29-.49.7c-.45.61-1.16,1.54-1.85,2.38-.04.05-.08.09-.11.14h0s-.07.09-.11.14c-.57.69-1.34,1.57-2.22,2.48h0c-.64.66-1.33,1.33-2.05,1.97-.48.42-.97.83-1.47,1.2-2.07,1.55-4.19,2.46-5.66,1.49-.92-.61-1.91-1.24-2.94-1.89-1.3-.82-2.67-1.67-4.04-2.55-4.83-3.07-9.77-6.39-12.19-9.45-1.7-2.16-2.62-4.14-3.06-5.68-.1-.35-.18-.67-.23-.97-.13-.69-.38-1.16-.38-1.19-.19-.44-4.19-1.95-9.77-3.9-7.34-2.56-17.42-5.87-25.14-8.43.06-1.15.16-2.32.31-3.51.02-.17.04-.34.07-.51.18-1.36.42-2.75.71-4.14.02-.11.05-.23.07-.34.03-.16.07-.33.11-.49.44-1.95.98-3.84,1.6-5.66.05-.16.11-.32.17-.48.93-2.65,2.05-5.14,3.3-7.44.08-.16.17-.32.26-.47.4-.71.81-1.4,1.23-2.06.38-.61.78-1.2,1.18-1.77,4.48,1.78,8.51,3.42,13.93,5.67h0c.16.07.32.13.48.2.16.07.33.14.49.2,3.19,1.32,6.86,2.86,11.36,4.75,1.53.64,3.15,1.32,4.88,2.05.26.11.51.21.76.32.27.11.54.23.81.34.14.06.27.11.4.17.27.11.53.22.79.33.05.02.11.05.16.07.34.14.67.28.99.41,1.33.56,2.72,1.14,4.17,1.75.11.04.21.09.31.13.17.07.34.14.52.22.23.1.46.19.68.28,4.34,1.82,5.3,2.24,5.57,2.38.11.06.11.07.17.12h0s.02.01.03.02c.5.35,1.19.84,1.97,1.36.11.07.22.15.33.22,1.75,1.16,3.84,2.44,5.1,2.83l2.49,8.31c-.03.51.02,1.28.02,1.29.03.38.06.75.11,1.12v.02c.66,4.87,3.36,9.24,8.15,11.86.25.13-.09.98-.82,2.2" style="fill:#f9b299;"/><path d="M169.3,429.78c-5.13.9,11.11,14.17,15.79,15.97,3.17,1.22,5.95,3.06,7.7,4.29,3.3,2.33,6.65,3.87,8.72,1.66.85-.9.86-1.46.2-2.16-.55-.58-1.56-1.27-2.93-2.31-.72-.55-1.54-1.2-2.45-1.99-.36-.32-.74-.65-1.13-1.01-3.71-3.46-10.71-9.51-17.27-12.61-.23-.11-.46-.22-.7-.32-2.86-1.26-5.61-1.93-7.93-1.52" style="fill:#f9b299;"/><path d="M198.75,447.24c-.13.03-.25.1-.36.22-1.03,1.11.78,2.31,1.68,3.01s1.64-.94,1.64-.94c-.55-.58-1.57-1.25-2.96-2.28" style="fill:#f68d6a;"/><path d="M167.83,433.14s0,.07,0,.11c.03.06.11.07.16.04,3.73-2.3,8.17-1.5,8.22-1.49.06.01.13-.03.14-.09s-.03-.13-.09-.14c-.05,0-4.58-.83-8.39,1.52-.02.01-.04.03-.05.06" style="fill:#f9b299;"/><path d="M153.61,450.38c-.14-2.76.79-5.53,2.58-7.64.14-.16.4.04.26.2-1.74,2.04-2.66,4.72-2.52,7.4,0,.21-.31.26-.32.05" style="fill:#e4937d;"/><path d="M173.9,430.33c-2.69.51-5.28,1.52-7.61,2.95-.65.4-1.29.84-1.9,1.31-.17.13-.37-.13-.2-.26,2.21-1.69,4.72-2.98,7.38-3.77.75-.22,1.51-.41,2.28-.56.21-.04.25.28.05.32" style="fill:#e4937d;"/><path d="M141.46,416.41c4.3,11.21,16.43,7.25,21.46,11.89,2.25,2.08,4.24.6,5.34-.68-6.1-2.57-16.4-6.87-26.8-11.21" style="fill:#fbc9bb;"/><path d="M152.03,419.8c-1.4-.45-12.45-5.83-23.01-11.02-.51.63-1.01,1.29-1.5,1.98-.4.57-.8,1.16-1.18,1.77-.42.67-.83,1.36-1.23,2.06-.09.16-.18.31-.26.47-1.26,2.3-2.37,4.79-3.3,7.44-.06.16-.11.32-.17.48-.62,1.82-1.16,3.71-1.6,5.66-.04.16-.07.32-.11.49-.03.11-.05.23-.07.34-.29,1.39-.53,2.78-.71,4.14-.02.17-.05.34-.07.51-.15,1.18-.25,2.36-.31,3.51-.06,1.06-.08,2.11-.07,3.14,5.27,1.43,10.18,2.8,14.19,3.9,5.58,1.52,9.45,2.51,10.22,2.35.34-.07.58-.41.79-.97.39-1.05.64-2.88,1.1-5.18.03-.15.06-.3.09-.46.27-1.31.61-2.76,1.07-4.29.05-.17.11-.35.16-.52.35-1.11.77-2.26,1.28-3.44.07-.15.13-.31.2-.46.7-1.55,1.56-3.14,2.62-4.72.09-.14.19-.28.28-.42.41-.59.85-1.17,1.32-1.75h0c1.13-1.41,1.89-2.43,2.01-3.22h0c.12-.78-.38-1.33-1.75-1.77" style="fill:#dedad1;"/><path d="M144.81,440.82s-.05.02-.07.02c-2.42.8-5.14.14-7.48-.65-1.51-.51-2.89-1.22-4.32-1.91-1.55-.76-3.19-1.23-4.87-1.59-1.64-.35-3.29-.62-4.92-1.02-1.51-.38-2.9-.98-4.33-1.58.02-.17.04-.34.07-.51.87.36,1.72.78,2.61,1.08,1.59.55,3.25.86,4.9,1.18,1.6.31,3.21.63,4.75,1.15,1.59.54,3.01,1.42,4.54,2.07,1.43.61,2.94,1.1,4.46,1.39,1.47.28,3.03.4,4.47-.1.08-.03.16-.01.22.02.15.1.2.36-.02.44" style="fill:#fff;"/><path d="M146.08,436.04c-.06.02-.12.04-.18.06-2.52.87-5.06.19-7.45-.82-1.33-.56-2.62-1.2-3.95-1.73-1.55-.63-3.13-1.2-4.72-1.73-3.32-1.11-6.7-2.01-10.12-2.72.03-.16.07-.33.11-.49,5.92,1.22,11.76,3.01,17.27,5.5,2.78,1.25,5.8,2.6,8.85,1.46.06-.02.13-.02.18,0,.18.07.26.37.02.46" style="fill:#fff;"/><path d="M147.35,432.14s-.06-.03-.09-.05c-2.36-2.04-5.57-2.26-8.49-2.86-1.46-.3-2.87-.72-4.21-1.39-1.37-.69-2.65-1.54-3.97-2.32-1.39-.82-2.84-1.54-4.42-1.87-1.54-.32-3.12-.36-4.67-.65-.04,0-.08-.02-.12-.02.05-.16.11-.32.17-.48,1.24.24,2.52.31,3.77.5,1.56.23,3,.73,4.4,1.46,1.42.75,2.74,1.66,4.14,2.45,1.38.78,2.82,1.35,4.37,1.7,3.18.73,6.74.86,9.33,3.09h0c.21.19,0,.52-.21.46" style="fill:#fff;"/><path d="M150.18,426.96s-.07-.05-.1-.09c-1.63-2.74-5.27-3.53-8.07-4.52-3.35-1.19-6.69-2.47-9.73-4.35-1.52-.94-3.01-1.96-4.77-2.39-.88-.22-1.78-.34-2.66-.55.08-.16.17-.32.26-.47.69.17,1.39.29,2.1.44,1.65.36,3.08,1.13,4.49,2.02,1.54.97,3.1,1.85,4.76,2.6,1.66.75,3.37,1.39,5.08,2.01,1.75.63,3.56,1.17,5.25,1.95,1.45.66,2.82,1.56,3.66,2.95v.02c.14.23-.11.48-.29.4" style="fill:#fff;"/><path d="M195.52,449.08c-.25-.67-.64-1.29-1.11-1.83-2.24-2.63-6.2-3.64-9.42-2.39s-5.47,4.65-5.36,8.11c-.14-2.44-2.36-4.67-4.48-5.9-2.11-1.23-4.73-1.46-7.1-.83-1.35.36-2.71,1.06-3.39,2.28-.57,1.04-.58,2.3-.38,3.46.67,3.86,3.41,7.03,6.39,9.57,2.96,2.53,6.87,4.78,10.4,6.43,2.54-1.8,5.08-3.6,7.63-5.4,2.04-1.44,4.13-2.94,5.47-5.04,1.13-1.76,1.67-3.86,1.69-5.95.01-.85-.06-1.71-.35-2.5" style="fill:#f04d4c;"/><path d="M170.45,447.13s-3.3-.41-4.35,2.54c-1.06,2.95,1.61,7.81,3.48,7.84,1.88.03-.4-3.35.39-5.36.8-2,2.87-4.13.48-5.02" style="fill:#d93737;"/><path d="M195.67,466.52c-.83-3.22-2-6.39-5.79-5.28-3.77,1.11-2.01,7.89,1.14,8.27,1.64.2,5.32-.4,4.64-3" style="fill:#f9b299;"/><path d="M193.59,467.27s-1.9.71-2.61.31-1.73-2.04-1.61-2.26c.12-.22,1.15-.1,2.28-.46.89-.29,1.61-1.15,1.95-.74.34.41.64,2.86-.01,3.15" style="fill:#f68d6a;"/><path d="M189.45,469.07c-.74-3.54-1.83-7.04-5.97-6.03-4.12,1-2.56,8.45.82,9.04,1.75.3,5.74-.16,5.15-3" style="fill:#f9b299;"/><path d="M186.97,470s-1.71.78-2.46.31c-.75-.47-1.94-2.65-1.8-2.88s1.24-.05,2.48-.38c.97-.26,1.79-1.16,2.14-.7.34.46.35,3.37-.37,3.65" style="fill:#f68d6a;"/><path d="M182.38,467.55c-1.11-3.25-2.56-6.42-6.37-4.97-3.79,1.44-1.44,8.28,1.83,8.42,1.7.07,5.44-.84,4.54-3.45" style="fill:#f9b299;"/><path d="M180.06,468.6s-1.73.97-2.5.61c-.76-.36-1.87-2.16-1.77-2.39.11-.23,1.17-.19,2.31-.66.89-.36,1.57-1.31,1.95-.92s.65,3.01,0,3.36" style="fill:#f68d6a;"/><path d="M175.53,467.14c-.92-2.51-2.09-4.94-5.03-3.75-2.92,1.18-.98,6.45,1.56,6.51,1.32.03,4.21-.74,3.47-2.75" style="fill:#f9b299;"/><path d="M173.81,468.01s-1.26.61-1.86.35c-.6-.26-1.63-1.5-1.56-1.68.08-.18.91-.17,1.78-.55.68-.3,1.2-1.04,1.5-.74s.63,2.35.13,2.63" style="fill:#f68d6a;"/><path d="M187.72,464.48v.02c.78,1.27,1.56,4.12,1.57,4.15,0,.03.05.06.08.05s.05-.05.05-.08-.79-2.9-1.59-4.18c-.02-.03-.06-.04-.09-.02-.02.02-.04.04-.03.07" style="fill:#f9b299;"/><path d="M175.47,471.87s.04.09.09.12c1.49.9,2.81.82,3.66.6.92-.24,1.48-.7,1.5-.72.08-.07.1-.19.03-.28-.07-.08-.19-.1-.28-.03-.09.07-2.1,1.66-4.71.09-.09-.06-.21-.03-.27.07-.03.05-.03.1-.02.15" style="fill:#fbc7b7;"/><path d="M192.94,465.91c0-.13-.05-.23-.16-.3-.2-.11-.02-.42.18-.31.22.12.35.36.34.61-.01.23-.37.22-.36,0" style="fill:#e0f0f1;"/><path d="M185.52,470.18c-.24-.06-.48-.13-.71-.19-.22-.06-.12-.41.1-.35.24.06.48.13.71.19.22.06.12.41-.1.35" style="fill:#e0f0f1;"/><path d="M189.15,468.66c-.21-.81-.42-1.63-.64-2.44-.17-.66-.39-1.38-.97-1.8-.19-.13,0-.44.18-.31.61.43.88,1.12,1.08,1.81.25.88.46,1.77.69,2.65.06.22-.29.31-.35.09" style="fill:#e4937d;"/><path d="M181.54,469.66c.35-.2.41-.72.46-1.08.06-.43.06-.87,0-1.31-.11-.85-.43-1.65-.93-2.35-.13-.19.18-.36.31-.18.57.8.91,1.74,1,2.72.04.48.02.96-.07,1.44-.07.41-.2.85-.59,1.07-.2.11-.38-.2-.18-.31" style="fill:#e4937d;"/><path d="M174.68,468.9c.17-.3.19-.66.21-1,.02-.36.01-.71-.03-1.07-.08-.73-.29-1.45-.6-2.11-.1-.21.21-.39.31-.18.35.73.57,1.5.65,2.3.04.41.05.82.02,1.23-.03.35-.07.7-.25,1.01-.11.2-.42.02-.31-.18" style="fill:#e4937d;"/><path d="M170.97,462.98c-1.53.64-2.35,2.16-2.07,3.8.05.27.47.2.42-.07-.25-1.46.45-2.77,1.82-3.34.25-.11.08-.5-.17-.39" style="fill:#e4937d;"/><path d="M165.61,440.89c1.78,1.34,3.66,2.39,5.82,2.98,3.3.91,7.09-.11,10.04,1.86.23.15.48-.19.26-.34-1.87-1.25-3.66-1.25-5.86-1.36-3.78-.19-6.96-1.17-10.01-3.48-.22-.17-.47.18-.25.34" style="fill:#e4937d;"/><path d="M215.65,516.96c.26-.79.34-1.64.32-2.47-.13-4.02-3.01-7.8-6.85-9s-8.36.28-10.75,3.51c1.64-2.32,1.23-5.97.2-8.62s-3.25-4.76-5.86-5.9c-1.49-.65-3.23-.99-4.74-.37-1.27.53-2.19,1.67-2.85,2.88-2.18,4-1.98,8.87-1.11,13.34.87,4.45,2.79,9.33,4.81,13.37,3.62.2,7.24.4,10.86.6,2.9.16,5.89.31,8.64-.63,2.3-.79,4.31-2.31,5.85-4.2.62-.76,1.18-1.6,1.49-2.54" style="fill:#f04d4c;"/></g><g style="clip-path:url(#uuid-b5df7437-c62e-46bd-88ae-6217487df81b);"><path d="M382.59,565.12c-.2.46-.43.91-.67,1.36-.71,1.32-1.59,2.62-2.62,3.86-1.27,1.53-2.77,2.99-4.47,4.33-2.88,2.27-6.33,4.2-10.21,5.58-4.81,1.72-9.65,2.39-14.04,2.11-1.99-.13-3.89-.44-5.65-.94-5.45-1.54-9.64-4.8-11.31-9.45-1.85-5.16-.21-10.96,3.88-15.98.32-.39.65-.78,1.01-1.16,3.39-3.71,8.15-6.89,13.82-8.92,1.58-.57,3.17-1.02,4.74-1.36,1.43-.31,2.85-.53,4.24-.66,10.35-.97,19.37,2.91,22.02,10.31,1.25,3.5.9,7.29-.73,10.93" style="fill:#2f8c43;"/><path d="M353.15,539.67c-2.27,1.95-8.79,4.51-15.8,6.84-2.6.87-5.26,1.7-7.79,2.47-6.25,1.88-11.74,3.31-13.65,3.68-.09.02-.2.03-.3.03h0c-.28.02-.62,0-1.02-.03-4.58-.48-16.2-4.73-19.71-6.47-3.25-1.61-11.24-7.57-11.24-7.57-.75-1.89,3.39-3.79,8.99-.36.36.22,4.74,1.31,7.67,2.04.06,0,.12.02.18.04.23.05.46.11.67.16.93.23,1.58.38,1.72.42-.13-.06-.6-.26-1.29-.54-.16-.07-.32-.14-.5-.21-.05-.02-.11-.05-.17-.07-2.24-.95-5.76-2.46-7.12-3.16-2-1.03-8.97-6.16-8.06-7.03,2.42-2.32,6.82.57,11.05,2.78,1.47.76,8,2.29,10.38,3.2-1.59-.85-4.9-2.68-6.03-3.63-1.5-1.28-4.38-4.78-3.7-5.26,1.25-.87,2.83-.2,7.03,2.66,3.54,2.42,10.44,2.4,12.33,2.9,3.8.99,9.74-2.46,19.89-5.8.9-.3,1.74-.51,2.51-.67h0c10.06-1.94,11.27,7.41,14.64,11.84.37.49.09,1.08-.69,1.75" style="fill:#714744;"/><path d="M307.46,531.8s-4.4-4.57-1.44-4.55c2.96.03,10.45,6.29,16.48,4.63l-2.8,3.18-12.24-3.27" style="fill:#f9b299;"/><path d="M379.31,564.88l-.02,5.46c-1.27,1.53-2.77,2.99-4.47,4.33l-26.35-.09c-2.24-4.01-6.98-13.83-9.98-19.75-1.42-2.81-2.45-4.74-2.63-4.74-.03-.02-.01-.01-.1-.06-.22-.11-.4-.19-.54-.23h0c-.28-.09-.43-.08-.44-.09-1.64-.52-3.49-.7-5.22-.73h0c-7.3-.16-16.16,2.21-16.19,2.2-4.66-3.01,12.75-12.55,17.61-15.24h0c1.54-.86,4.11-2.21,4.71-2.54,7.33-4.04,11.76-2.52,13.38-1.63l.53-1.33c.62.62,5.81,6.62,11.7,13.45,7.63,8.87,16.43,19.15,18.02,21" style="fill:#714744;"/><path d="M341.91,547.63c-5.26,3.01-15.5,4.93-21.62,5.13-1.6.05-3.22.34-4.76-.09-1.39-.39-2.62-1.17-3.83-1.95-3.6-2.32-7.19-4.66-10.77-7.03-.99-.65-2.1-1.92-1.35-2.84.27-.33.71-.47,1.12-.59,2.59-.76,5.43-1.51,7.92-.47,1.65.69,2.92,2.09,4.55,2.83,1.96.89,4.38.69,6.17-.5l22.57,5.52" style="fill:#714744;"/><path d="M338.05,548.41c-3.76,2.14-7.97,3.25-12.24,3.81-2.19.28-4.38.37-6.58.52-1.1.08-2.23.16-3.32-.08-1.08-.24-2.08-.78-3.01-1.35-1.95-1.19-3.85-2.47-5.76-3.72-1.96-1.28-3.92-2.56-5.87-3.85-.66-.44-1.74-1.23-1.65-2.15.05-.53.53-.78.98-.93.52-.17,1.05-.31,1.58-.45,1.9-.5,3.97-.89,5.9-.29,2.09.66,3.52,2.51,5.59,3.22,1.96.68,4.15.39,5.87-.74.23-.15-.04-.48-.27-.33-1.79,1.17-4.15,1.34-6.08.41-1.84-.88-3.21-2.5-5.22-3.04-1.98-.53-4.06-.14-5.99.38-.77.21-1.9.35-2.46.98-.51.58-.35,1.34.05,1.93.56.85,1.46,1.36,2.29,1.91,1.03.68,2.07,1.36,3.11,2.04,2.08,1.36,4.16,2.71,6.24,4.06,1.81,1.17,3.65,2.4,5.87,2.5,1.1.05,2.2-.09,3.31-.14,1.15-.06,2.3-.12,3.45-.23,5-.46,10-1.57,14.39-4.06.24-.13.07-.53-.17-.39" style="fill:#581228;"/><path d="M346.74,537.53c-.88-2.95-4.5-3.21-7.06-3.22-3.08,0-6.17.52-9.08,1.53-1.63.56-3.2,1.28-4.69,2.14-.23.13,0,.47.22.34,2.54-1.46,5.31-2.49,8.19-3.07,1.43-.29,2.89-.46,4.35-.51,1.42-.05,2.91-.05,4.31.25,1.45.32,2.92,1.15,3.37,2.66.07.25.46.13.39-.12" style="fill:#581228;"/><path d="M349.37,542.5c.74,1.19,1.68,2.2,2.81,3.02.28.2.55-.26.27-.46-1.05-.77-1.93-1.72-2.62-2.83-.18-.29-.64-.03-.46.27" style="fill:#581228;"/><path d="M364.43,547.54c-3.45,1.47-9.18-5.36-11.29-7.87-.44-.53-.87-.93-1.3-1.1-2.47-.98-2.38-3.91-2.77-6.81h0c-.39-2.9-3.01-3.03-6.06-3.12-2.94-.08-3.77-2.42-3.82-2.57,10.06-1.94,13.57,7.39,16.95,11.82.97,1.18,2.19,2.57,3.55,4.12,1.11,1.27,3.35,3.98,4.74,5.51" style="fill:#714744;"/><path d="M337.59,523.65c.05-.9-.11-1.8-.38-2.66-1.29-4.14-5.37-7.25-9.7-7.39-4.33-.15-8.61,2.68-10.18,6.72,1.04-2.88-.43-6.55-2.26-9.01-1.83-2.46-4.74-4.02-7.78-4.45-1.74-.25-3.65-.11-5.03.97-1.17.91-1.8,2.36-2.14,3.81-1.12,4.78.49,9.79,2.67,14.18,2.17,4.38,5.57,8.89,8.83,12.52,3.82-.83,7.64-1.66,11.46-2.48,3.06-.66,6.21-1.36,8.8-3.13,2.17-1.48,3.82-3.64,4.88-6.04.43-.97.77-2,.82-3.06" style="fill:#f04d4c;"/><path d="M334.57,522.71s.72-3.42-2.51-5.1c-3.22-1.68-5.26-.29-2.98,2.47,2.28,2.75.15,6.68,2.22,7.23,2.07.56,3.27-4.6,3.27-4.6" style="fill:#d93737;"/><path d="M308.86,509c-1.41-.65-3.12-.38-4.27.66-.2.18.05.51.25.33,1.05-.95,2.57-1.19,3.86-.6.24.11.4-.27.16-.39" style="fill:#d93737;"/><path d="M305.75,526.9c.68,1.48,1.53,2.88,2.54,4.16.16.21.49-.04.33-.25-.98-1.26-1.82-2.62-2.48-4.07-.11-.24-.5-.08-.38.16" style="fill:#d93737;"/><path d="M382.59,565.12c-.2.46-.43.91-.67,1.36-3.08,5.71-9.28,10.89-17.31,13.76-4.81,1.72-9.65,2.39-14.04,2.11-3.12-6.33-7.81-15.74-8.71-17.02-1.38-1.95,12.73-3.84,18.9-7.17,6.17-3.32,5.71-8.27,7.45-6.26,1.52,1.78,11.95,11.03,14.39,13.19" style="fill:#fff;"/></g><path d="M353.78,323.08c0,30.67-24.9,55.56-55.59,55.56s-55.59-24.89-55.59-55.56,24.9-55.56,55.59-55.56,55.59,24.89,55.59,55.56Z" style="fill:#0fa34b; fill-rule:evenodd;"/><path d="M270.25,323.04s-.05-.08-.05-.13v-10.7s.02-.1.05-.13.08-.06.13-.06h3.96c.79,0,1.49.14,2.08.42.6.28,1.06.67,1.39,1.18s.49,1.09.49,1.76v4.37c0,.67-.16,1.25-.49,1.76s-.79.9-1.39,1.18-1.29.42-2.08.42h-3.96s-.1-.02-.13-.06h0ZM272.51,321.18h1.92c.49,0,.88-.16,1.18-.49s.46-.77.47-1.31v-3.64c0-.55-.15-.99-.45-1.31s-.71-.49-1.21-.49h-1.9s-.08.03-.08.08v7.1s.03.08.08.08v-.02Z" style="fill:#fff;"/><path d="M281.76,322.77c-.63-.34-1.12-.81-1.47-1.42-.35-.61-.52-1.31-.52-2.1v-3.39c0-.78.17-1.47.52-2.08.35-.6.84-1.07,1.47-1.4s1.35-.5,2.18-.5,1.57.17,2.19.5,1.12.8,1.47,1.4.52,1.29.52,2.08v3.39c0,.79-.17,1.49-.52,2.11-.35.61-.84,1.09-1.47,1.42-.63.33-1.36.5-2.19.5s-1.55-.17-2.18-.51h0ZM285.34,320.8c.36-.37.54-.86.54-1.47v-3.49c0-.61-.18-1.11-.53-1.48s-.83-.56-1.42-.56-1.05.19-1.4.56c-.35.38-.53.87-.53,1.48v3.49c0,.61.18,1.1.53,1.47s.82.55,1.4.55,1.05-.18,1.41-.55Z" style="fill:#fff;"/><path d="M296.25,312.06s.08-.06.13-.06h1.85s.1.02.13.06.06.08.06.13v10.7s-.02.1-.06.13-.08.06-.13.06h-1.79c-.11,0-.18-.04-.22-.13l-4.1-6.78s-.04-.04-.06-.04-.03.03-.03.07l.03,6.69s-.02.1-.06.13-.08.06-.13.06h-1.85s-.1-.02-.13-.06-.05-.08-.05-.13v-10.7s.02-.1.05-.13.08-.06.13-.06h1.79c.11,0,.18.04.22.13l4.09,6.75s.04.04.06.04.03-.03.03-.07l-.02-6.65s.02-.1.06-.13h0Z" style="fill:#fff;"/><path d="M307.21,322.94l-.48-1.55s-.05-.06-.08-.06h-3.9s-.06.02-.08.06l-.46,1.55c-.03.11-.1.16-.21.16h-2.01c-.06,0-.11-.02-.14-.06-.03-.04-.04-.09-.02-.17l3.42-10.7c.03-.11.1-.16.21-.16h2.49c.11,0,.17.05.21.16l3.42,10.7s.02.05.02.08c0,.09-.06.14-.17.14h-2.01c-.11,0-.17-.05-.21-.16h0ZM303.31,319.6h2.79c.06,0,.08-.03.06-.1l-1.43-4.71s-.03-.06-.05-.06-.04.02-.05.06l-1.39,4.71c-.01.06.01.1.06.1h0Z" style="fill:#fff;"/><path d="M317.43,312.06s.06.08.06.13v1.55s-.02.1-.06.13-.08.06-.13.06h-2.84s-.08.03-.08.08v8.89s-.02.1-.05.13c-.04.04-.08.06-.13.06h-1.85s-.1-.02-.13-.06c-.04-.04-.06-.08-.06-.13v-8.89s-.03-.08-.08-.08h-2.76s-.1-.02-.13-.06-.06-.08-.06-.13v-1.55s.02-.1.06-.13.08-.06.13-.06h7.98s.1.02.13.06h0Z" style="fill:#fff;"/><path d="M326.56,313.87s-.08.06-.13.06h-5.2s-.08.03-.08.08v2.46s.03.08.08.08h3.41s.1.02.13.05c.04.04.06.08.06.13v1.54s-.02.1-.06.13-.08.06-.13.06h-3.41s-.08.03-.08.08v2.57s.03.08.08.08h5.2s.1.02.13.06.06.08.06.13v1.54s-.02.1-.06.13-.08.06-.13.06h-7.32s-.1-.02-.13-.06-.05-.08-.05-.13v-10.7s.02-.1.05-.13.08-.06.13-.06h7.32s.1.02.13.06.06.08.06.13v1.54s-.02.1-.06.13h0Z" style="fill:#fff;"/><path d="M288.58,334.33s.08-.06.13-.06h1.85s.1.02.13.06.06.08.06.13v10.7s-.02.1-.06.13-.08.06-.13.06h-1.79c-.11,0-.18-.04-.22-.13l-4.1-6.78s-.04-.04-.06-.04-.03.03-.03.07l.03,6.69s-.02.1-.06.13-.08.06-.13.06h-1.85s-.1-.02-.13-.06-.05-.08-.05-.13v-10.7s.02-.1.05-.13.08-.06.13-.06h1.79c.11,0,.18.04.22.13l4.09,6.75s.04.04.06.04.03-.03.03-.07l-.02-6.65s.02-.1.06-.13h0Z" style="fill:#fff;"/><path d="M294.45,345.03c-.63-.34-1.12-.81-1.47-1.42-.35-.61-.52-1.31-.52-2.1v-3.39c0-.78.17-1.47.52-2.08.35-.6.84-1.07,1.47-1.4s1.35-.5,2.18-.5,1.57.17,2.19.5,1.12.8,1.47,1.4.52,1.29.52,2.08v3.39c0,.79-.17,1.49-.52,2.11-.35.61-.84,1.09-1.47,1.42-.63.33-1.36.5-2.19.5s-1.55-.17-2.18-.51h0ZM298.04,343.07c.36-.37.54-.86.54-1.47v-3.49c0-.61-.18-1.11-.53-1.48s-.83-.56-1.42-.56-1.05.19-1.4.56c-.35.38-.53.87-.53,1.48v3.49c0,.61.18,1.1.53,1.47s.82.55,1.4.55,1.05-.18,1.41-.55Z" style="fill:#fff;"/><path d="M304.54,345.2l-2.8-10.72-.02-.06c0-.1.06-.14.17-.14h1.96c.11,0,.17.05.21.16l1.51,6.45s.03.06.05.06.04-.02.05-.06l1.46-6.43c.03-.12.1-.17.21-.17h1.92c.12,0,.19.05.22.16l1.58,6.45s.03.05.05.06c.02,0,.04-.01.05-.06l1.46-6.43c.03-.12.1-.17.21-.17h1.87c.15,0,.21.07.17.21l-2.6,10.72c-.03.11-.11.16-.22.16h-1.89c-.11,0-.17-.05-.21-.16l-1.62-6.86s-.03-.06-.05-.06-.04.02-.05.06l-1.5,6.84c-.02.12-.09.17-.21.17h-1.76c-.12,0-.19-.05-.22-.16v-.02Z" style="fill:#fff;"/><g style="opacity:.6;"><path d="M61.16,554.7c1.59-.36,2.27-1.27,5.66-1.27,4.25,0,5.66,2.83,5.66,4.25s-1.42,4.25-5.66,4.25c-3.4,0-4.08-.91-5.66-1.27-.4-.09-.85-.15-1.42-.15h-1.42c-.99,0-1.9.23-2.83.59-3.04,1.16-6.23,3.66-12.74,3.66-8.49,0-12.74-2.88-12.74-3.54v-7.08c0-.66,4.25-3.54,12.74-3.54,6.51,0,9.7,2.5,12.74,3.66.93.35,1.84.59,2.83.59h1.42c.57,0,1.02-.06,1.42-.15h0Z" style="fill:none; stroke:#fff; stroke-linecap:round; stroke-linejoin:round; stroke-width:1.06px;"/><line x1="61.16" y1="560.64" x2="61.16" y2="554.71" style="fill:none; stroke:#fff; stroke-linecap:round; stroke-linejoin:round; stroke-width:1.06px;"/><line x1="55.5" y1="561.1" x2="55.5" y2="554.25" style="fill:none; stroke:#fff; stroke-linecap:round; stroke-linejoin:round; stroke-width:1.06px;"/><path d="M61.16,568.85c1.59-.36,2.27-1.27,5.66-1.27,4.25,0,5.66,2.83,5.66,4.25s-1.42,4.25-5.66,4.25c-3.4,0-4.08-.91-5.66-1.27-.4-.09-.85-.15-1.42-.15h-1.42c-.99,0-1.9.23-2.83.59-3.04,1.16-6.23,3.66-12.74,3.66-8.49,0-12.74-2.88-12.74-3.54v-7.08c0-.66,4.25-3.54,12.74-3.54,6.51,0,9.7,2.5,12.74,3.66.93.35,1.84.59,2.83.59h1.42c.57,0,1.02-.06,1.42-.15h0Z" style="fill:none; stroke:#fff; stroke-linecap:round; stroke-linejoin:round; stroke-width:1.06px;"/><line x1="61.16" y1="574.8" x2="61.16" y2="568.85" style="fill:none; stroke:#fff; stroke-linecap:round; stroke-linejoin:round; stroke-width:1.06px;"/><line x1="55.5" y1="575.25" x2="55.5" y2="568.4" style="fill:none; stroke:#fff; stroke-linecap:round; stroke-linejoin:round; stroke-width:1.06px;"/><path d="M61.16,540.54c1.59-.36,2.27-1.27,5.66-1.27,4.25,0,5.66,2.83,5.66,4.25s-1.42,4.25-5.66,4.25c-3.4,0-4.08-.91-5.66-1.27-.4-.09-.85-.15-1.42-.15h-1.42c-.99,0-1.9.23-2.83.59-3.04,1.16-6.23,3.66-12.74,3.66-8.49,0-12.74-2.88-12.74-3.54v-7.08c0-.66,4.25-3.54,12.74-3.54,6.51,0,9.7,2.5,12.74,3.66.93.35,1.84.59,2.83.59h1.42c.57,0,1.02-.06,1.42-.15h0Z" style="fill:none; stroke:#fff; stroke-linecap:round; stroke-linejoin:round; stroke-width:1.06px;"/><line x1="61.16" y1="546.5" x2="61.16" y2="540.55" style="fill:none; stroke:#fff; stroke-linecap:round; stroke-linejoin:round; stroke-width:1.06px;"/><line x1="55.5" y1="546.95" x2="55.5" y2="540.1" style="fill:none; stroke:#fff; stroke-linecap:round; stroke-linejoin:round; stroke-width:1.06px;"/><line x1="43.41" y1="413.2" x2="26.43" y2="413.2" style="fill:none; stroke:#fff; stroke-linecap:round; stroke-linejoin:round; stroke-width:1.06px;"/><line x1="51.91" y1="413.2" x2="68.9" y2="413.2" style="fill:none; stroke:#fff; stroke-linecap:round; stroke-linejoin:round; stroke-width:1.06px;"/><line x1="47.66" y1="408.96" x2="47.66" y2="391.98" style="fill:none; stroke:#fff; stroke-linecap:round; stroke-linejoin:round; stroke-width:1.06px;"/><line x1="47.66" y1="417.45" x2="47.66" y2="434.43" style="fill:none; stroke:#fff; stroke-linecap:round; stroke-linejoin:round; stroke-width:1.06px;"/><ellipse cx="47.67" cy="413.2" rx="18.4" ry="18.39" style="fill:none; stroke:#fff; stroke-linecap:round; stroke-linejoin:round; stroke-width:1.06px;"/><ellipse cx="47.66" cy="413.2" rx="11.33" ry="11.32" style="fill:none; stroke:#fff; stroke-linecap:round; stroke-linejoin:round; stroke-width:1.06px;"/><path d="M47.66,417.45c2.34,0,4.25-1.9,4.25-4.25s-1.9-4.25-4.25-4.25-4.25,1.9-4.25,4.25,1.9,4.25,4.25,4.25Z" style="fill:none; stroke:#fff; stroke-linecap:round; stroke-linejoin:round; stroke-width:1.06px;"/><path d="M35.29,643.42c-1.11,1.25-1.78,2.9-1.78,4.69,0,3.91,3.17,7.08,7.08,7.08,3.43,0,6.29-2.44,6.94-5.67.09-.45.14-.93.14-1.41,0-.93-.18-1.81-.51-2.63-1.04-2.61-3.59-4.45-6.57-4.45-2.11,0-4,.92-5.29,2.39h-.01Z" style="fill:none; stroke:#fff; stroke-linecap:round; stroke-linejoin:round; stroke-width:1.06px;"/><path d="M40.58,626.88c2.31,0,4.37-1.11,5.66-2.83.89-1.18,1.42-2.65,1.42-4.25,0-.48-.05-.96-.14-1.41-.65-3.24-3.51-5.67-6.94-5.67-3.91,0-7.08,3.17-7.08,7.08,0,1.8.67,3.45,1.78,4.69,1.3,1.47,3.19,2.39,5.29,2.39h.01Z" style="fill:none; stroke:#fff; stroke-linecap:round; stroke-linejoin:round; stroke-width:1.06px;"/><path d="M40.58,648.11l.31-.13,6.26-2.5,4.76-1.9,7.97-3.19c.43-.18.93-.12,1.32.14.16.11.29.24.39.4.15.23.23.5.23.77v3.57" style="fill:none; stroke:#fff; stroke-linecap:round; stroke-linejoin:round; stroke-width:1.06px;"/><line x1="51.91" y1="643.59" x2="51.91" y2="642.46" style="fill:none; stroke:#fff; stroke-linecap:round; stroke-linejoin:round; stroke-width:1.06px;"/><polyline points="51.91 628.3 51.91 642.46 40.58 632.54 40.58 619.81 51.91 628.3" style="fill:none; stroke:#fff; stroke-linecap:round; stroke-linejoin:round; stroke-width:1.06px;"/><polyline points="36.34 635.38 36.34 633.96 40.58 632.54 51.91 628.3 57.57 625.47" style="fill:none; stroke:#fff; stroke-linecap:round; stroke-linejoin:round; stroke-width:1.06px;"/><line x1="57.57" y1="628.3" x2="57.57" y2="622.64" style="fill:none; stroke:#fff; stroke-linecap:round; stroke-linejoin:round; stroke-width:1.06px;"/><path d="M51.56,361.89c6.26,0,11.33-9.51,11.33-21.23s-5.07-21.23-11.33-21.23c-4.35,0-8.12,4.59-10.02,11.32-.84,2.96-1.31,6.33-1.31,9.91s.47,6.95,1.31,9.91c1.9,6.74,5.67,11.32,10.02,11.32Z" style="fill:none; stroke:#fff; stroke-linecap:round; stroke-linejoin:round; stroke-width:1.06px;"/><path d="M43.78,340.67c0-3.13.4-6.22,1.18-8.95,1.45-5.15,4.17-8.75,6.61-8.75,3.25,0,7.79,6.73,7.79,17.69s-4.54,17.69-7.79,17.69c-2.44,0-5.16-3.6-6.61-8.75-.77-2.73-1.18-5.82-1.18-8.95Z" style="fill:none; stroke:#fff; stroke-linecap:round; stroke-linejoin:round; stroke-width:1.06px;"/><line x1="34.57" y1="350.57" x2="41.55" y2="350.57" style="fill:none; stroke:#fff; stroke-linecap:round; stroke-linejoin:round; stroke-width:1.06px;"/><line x1="51.56" y1="361.89" x2="43.07" y2="361.89" style="fill:none; stroke:#fff; stroke-linecap:round; stroke-linejoin:round; stroke-width:1.06px;"/><line x1="51.56" y1="319.44" x2="43.07" y2="319.44" style="fill:none; stroke:#fff; stroke-linecap:round; stroke-linejoin:round; stroke-width:1.06px;"/><line x1="34.57" y1="330.76" x2="41.55" y2="330.76" style="fill:none; stroke:#fff; stroke-linecap:round; stroke-linejoin:round; stroke-width:1.06px;"/><path d="M49.04,497.88v2.9c0,1.56,1.27,2.83,2.83,2.83h4.25c3.91,0,7.08-3.17,7.08-7.08v-28.31c0-3.91-3.17-7.08-7.08-7.08h-4.25c-1.56,0-2.83,1.27-2.83,2.83v33.89h0Z" style="fill:none; stroke:#fff; stroke-linecap:round; stroke-linejoin:round; stroke-width:1.06px;"/><polyline points="49.04 493.71 42.37 497.04 37.71 499.36 32.05 502.19 32.05 495.12 36.25 493.02 37.71 492.29 49.04 486.63" style="fill:none; stroke:#fff; stroke-linecap:round; stroke-linejoin:round; stroke-width:1.06px;"/><polyline points="49.04 471.06 42.37 467.72 37.71 465.4 32.05 462.57 32.05 469.65 36.25 471.75 37.71 472.48 49.04 478.13" style="fill:none; stroke:#fff; stroke-linecap:round; stroke-linejoin:round; stroke-width:1.06px;"/><line x1="37.71" y1="499.36" x2="37.71" y2="492.29" style="fill:none; stroke:#fff; stroke-linecap:round; stroke-linejoin:round; stroke-width:1.06px;"/><line x1="37.71" y1="465.4" x2="37.71" y2="472.48" style="fill:none; stroke:#fff; stroke-linecap:round; stroke-linejoin:round; stroke-width:1.06px;"/><line x1="43.41" y1="287.26" x2="43.41" y2="257.55" style="fill:none; stroke:#fff; stroke-linecap:round; stroke-linejoin:round; stroke-width:1.06px;"/><line x1="43.41" y1="250.47" x2="43.41" y2="244.81" style="fill:none; stroke:#fff; stroke-linecap:round; stroke-linejoin:round; stroke-width:1.06px;"/><line x1="36.34" y1="287.26" x2="36.34" y2="257.55" style="fill:none; stroke:#fff; stroke-linecap:round; stroke-linejoin:round; stroke-width:1.06px;"/><line x1="36.34" y1="250.47" x2="36.34" y2="244.81" style="fill:none; stroke:#fff; stroke-linecap:round; stroke-linejoin:round; stroke-width:1.06px;"/><path d="M49.08,281.61h1.42c2.34,0,4.25-1.9,4.25-4.25v-12.82c0-.26.14-.5.38-.62.23-.13.51-.11.72.04l2.83,1.88c.2.13.32.35.32.59v9.53c0,1.56,1.27,2.83,2.83,2.83s2.83-1.27,2.83-2.83v-10.78c0-1.24-.55-2.42-1.49-3.23l-8.42-7.22c0-2.34-1.9-4.25-4.25-4.25h-1.42" style="fill:none; stroke:#fff; stroke-linecap:round; stroke-linejoin:round; stroke-width:1.06px;"/><path d="M49.06,250.47c0,.11,0,.23,0,.35v30.44c0,.11,0,.23,0,.35-.08,1.01-.52,1.95-1.23,2.66l-1.76,1.76c-.71.71-1.66,1.15-2.66,1.23-.11,0-.23.01-.35.01h-6.39c-.11,0-.23,0-.35-.01-1.01-.08-1.95-.52-2.66-1.23l-1.76-1.76c-.8-.8-1.25-1.88-1.25-3.01v-30.44c0-1.13.45-2.21,1.25-3.01l1.76-1.76c.71-.71,1.66-1.15,2.66-1.23.11,0,.23-.01.35-.01h6.39c.11,0,.23,0,.35.01,1.01.08,1.95.52,2.66,1.23l1.76,1.76c.71.71,1.15,1.66,1.23,2.66Z" style="fill:none; stroke:#fff; stroke-linecap:round; stroke-linejoin:round; stroke-width:1.06px;"/><path d="M63.26,112.15c.26.6.49,1.22.67,1.85-.18.17-.43.27-.7.27-.59,0-1.06-.47-1.06-1.06s.47-1.06,1.06-1.06h.03" style="fill:#3e4244;"/><path d="M63.26,112.15c.26.6.49,1.22.67,1.85-.18.17-.43.27-.7.27-.59,0-1.06-.47-1.06-1.06s.47-1.06,1.06-1.06h.03Z" style="fill:none; stroke:#fff; stroke-miterlimit:10; stroke-width:.18px;"/><path d="M63.94,113.99c-.18-.64-.41-1.25-.67-1.85.57,0,1.03.48,1.03,1.06,0,.32-.14.6-.36.79" style="fill:#3e4244;"/><path d="M63.94,113.99c-.18-.64-.41-1.25-.67-1.85.57,0,1.03.48,1.03,1.06,0,.32-.14.6-.36.79h0Z" style="fill:none; stroke:#fff; stroke-miterlimit:10; stroke-width:.18px;"/><path d="M58.63,113.2c0,.59-.47,1.06-1.06,1.06s-1.06-.47-1.06-1.06.47-1.06,1.06-1.06,1.06.47,1.06,1.06" style="fill:#3e4244;"/><circle cx="57.57" cy="113.2" r="1.06" style="fill:none; stroke:#fff; stroke-miterlimit:10; stroke-width:.18px;"/><path d="M39.17,100.47s2.83-1.42,7.08-1.42c2.83,0,5.67,1.42,7.09,1.42h11.69c.63,0,1.18.42,1.36,1.02.71,2.44,2.39,8.94,2.51,15.96,0,.38-.15.72-.41.99-.27.27-.63.42-1.01.42h-12.42c-.5,0-1.01.09-1.47.27-.55.19-1.05.51-1.49.92-.88.85-1.96,1.88-3.08,3.01-1.64,1.65-3.36,3.48-4.69,5.22-1.38,1.8-2.34,3.48-2.34,4.74,0,.67-.07,1.26-.2,1.79-.69,2.87-3.07,3.87-5.46,3.87-2.83,0-2.83-2.83-2.83-2.83v-10.95c0-.24.06-.47.18-.69.97-1.73,5.48-9.9,5.48-12.41v-11.32h.01Z" style="fill:none; stroke:#fff; stroke-linecap:round; stroke-linejoin:round; stroke-width:1.06px;"/><path d="M39.17,100.47h-4.25c-.78,0-1.42.64-1.42,1.42v8.49c0,.78.64,1.42,1.42,1.42h4.25" style="fill:none; stroke:#fff; stroke-linecap:round; stroke-linejoin:round; stroke-width:1.06px;"/><line x1="33.5" y1="106.13" x2="26.42" y2="106.13" style="fill:none; stroke:#fff; stroke-linecap:round; stroke-linejoin:round; stroke-width:1.06px;"/><line x1="33.5" y1="125.94" x2="26.42" y2="125.94" style="fill:none; stroke:#fff; stroke-linecap:round; stroke-linejoin:round; stroke-width:1.06px;"/><polyline points="33.5 135.84 29.26 140.09 26.42 137.26 26.42 97.64" style="fill:none; stroke:#fff; stroke-linecap:round; stroke-linejoin:round; stroke-width:1.06px;"/><line x1="53.59" y1="119.13" x2="50.49" y2="116.03" style="fill:none; stroke:#fff; stroke-linecap:round; stroke-linejoin:round; stroke-width:1.06px;"/><polyline points="49.03 123.07 49.03 123.06 46.25 120.28" style="fill:none; stroke:#fff; stroke-linecap:round; stroke-linejoin:round; stroke-width:1.06px;"/><line x1="44.33" y1="128.28" x2="42" y2="125.94" style="fill:none; stroke:#fff; stroke-linecap:round; stroke-linejoin:round; stroke-width:1.06px;"/><path d="M64.98,48.92c2.07.95,3.92,2.5,3.92,3.43,0,1.42-4.25,4.25-7.08,4.25H27.84c-.78,0-1.42-.64-1.42-1.42v-5.66c0-.78.64-1.42,1.42-1.42h33.98c.96,0,2.09.33,3.16.81h0Z" style="fill:none; stroke:#fff; stroke-linecap:round; stroke-linejoin:round; stroke-width:1.06px;"/><path d="M64.98,41.64c2.07-.95,3.92-2.5,3.92-3.43,0-1.42-4.25-4.25-7.08-4.25H27.84c-.78,0-1.42.64-1.42,1.42v5.66c0,.78.64,1.42,1.42,1.42h33.98c.96,0,2.09-.33,3.16-.81h0Z" style="fill:none; stroke:#fff; stroke-linecap:round; stroke-linejoin:round; stroke-width:1.06px;"/><path d="M49.08,48.12s1.42,1.42,1.42,4.25-1.42,4.25-1.42,4.25" style="fill:none; stroke:#fff; stroke-linecap:round; stroke-linejoin:round; stroke-width:1.06px;"/><path d="M49.08,42.45s1.42-1.42,1.42-4.25-1.42-4.25-1.42-4.25" style="fill:none; stroke:#fff; stroke-linecap:round; stroke-linejoin:round; stroke-width:1.06px;"/><path d="M43.41,48.12s-1.42,1.42-1.42,4.25,1.42,4.25,1.42,4.25" style="fill:none; stroke:#fff; stroke-linecap:round; stroke-linejoin:round; stroke-width:1.06px;"/><path d="M43.41,42.45s-1.42-1.42-1.42-4.25,1.42-4.25,1.42-4.25" style="fill:none; stroke:#fff; stroke-linecap:round; stroke-linejoin:round; stroke-width:1.06px;"/><line x1="68.9" y1="63.68" x2="26.43" y2="63.68" style="fill:none; stroke:#fff; stroke-linecap:round; stroke-linejoin:round; stroke-width:1.06px;"/><line x1="68.9" y1="26.89" x2="26.43" y2="26.89" style="fill:none; stroke:#fff; stroke-linecap:round; stroke-linejoin:round; stroke-width:1.06px;"/><line x1="30.67" y1="66.51" x2="30.67" y2="60.85" style="fill:none; stroke:#fff; stroke-linecap:round; stroke-linejoin:round; stroke-width:1.06px;"/><line x1="30.67" y1="24.06" x2="30.67" y2="29.71" style="fill:none; stroke:#fff; stroke-linecap:round; stroke-linejoin:round; stroke-width:1.06px;"/><line x1="66.07" y1="63.68" x2="61.82" y2="66.51" style="fill:none; stroke:#fff; stroke-linecap:round; stroke-linejoin:round; stroke-width:1.06px;"/><line x1="66.07" y1="26.89" x2="61.82" y2="24.06" style="fill:none; stroke:#fff; stroke-linecap:round; stroke-linejoin:round; stroke-width:1.06px;"/><path d="M30.67,202.35l2.27,2.76,1.66,2.02c.35.42.42,1.01.18,1.5-.25.49-.76.8-1.32.8h-5.58c-.56,0-1.07-.31-1.32-.8-.24-.5-.17-1.08.18-1.5l3.59-4.37s.34-.41.34-.41Z" style="fill:none; stroke:#fff; stroke-linecap:round; stroke-linejoin:round; stroke-width:1.06px;"/><path d="M43.41,192.45h-2.12c-1.95,0-3.54-1.59-3.54-3.54v-4.25c0-1.95-1.59-3.54-3.54-3.54-1.1,0-2.08.5-2.73,1.29-.5.61-.81,1.39-.81,2.25v17.69" style="fill:none; stroke:#fff; stroke-linecap:round; stroke-linejoin:round; stroke-width:1.06px;"/><path d="M55.02,200.98c.87,1.73,2.01,2.79,3.26,2.79.23,0,.45-.04.68-.11,2.41-.75,4.28-5.49,4.28-11.21s-1.86-10.47-4.28-11.21c-.23-.07-.45-.11-.68-.11-1.25,0-2.39,1.05-3.26,2.79-1.04,2.07-1.7,5.13-1.7,8.54s.66,6.46,1.7,8.54h0Z" style="fill:none; stroke:#fff; stroke-linecap:round; stroke-linejoin:round; stroke-width:1.06px;"/><path d="M53.69,213.28c.8.27,1.63.4,2.47.4,7.04,0,12.74-9.51,12.74-21.23s-5.71-21.23-12.74-21.23c-.84,0-1.67.13-2.47.4-2.6.85-4.92,3.02-6.69,6.08-2.22,3.82-3.58,9.02-3.58,14.74s1.37,10.93,3.58,14.74c1.77,3.07,4.09,5.23,6.69,6.08v.02Z" style="fill:none; stroke:#fff; stroke-linecap:round; stroke-linejoin:round; stroke-width:1.06px;"/><line x1="63.23" y1="192.45" x2="68.9" y2="192.45" style="fill:none; stroke:#fff; stroke-linecap:round; stroke-linejoin:round; stroke-width:1.06px;"/><line x1="53.32" y1="192.45" x2="43.41" y2="192.45" style="fill:none; stroke:#fff; stroke-linecap:round; stroke-linejoin:round; stroke-width:1.06px;"/><path d="M58.96,203.67c.03,4.35-1.39,7.18-5.27,9.61h0" style="fill:none; stroke:#fff; stroke-linecap:round; stroke-linejoin:round; stroke-width:1.06px;"/><path d="M58.96,181.23c.03-4.35-1.39-7.18-5.27-9.61h0" style="fill:none; stroke:#fff; stroke-linecap:round; stroke-linejoin:round; stroke-width:1.06px;"/></g></g></svg>