<?xml version="1.0" encoding="UTF-8"?><svg id="uuid-59a23a30-5abc-4dd5-848a-943c6a1d2198" xmlns="http://www.w3.org/2000/svg" viewBox="0 0 453.42 548.7"><g id="uuid-9ab7c2f8-2346-4a80-9a11-c086c7888ecb"><path d="M9.87,393.24L148.96,0h304.46v548.7l-333.67-.46c-3.32.3-6.66.46-10.02.46-29.1,0-57.02-11.56-77.59-32.14C11.56,495.98,0,468.07,0,438.97c0-15.89,3.44-31.42,9.92-45.59l-.05-.14" style="fill:#0fa34b; fill-rule:evenodd;"/><path d="M382.11,298.58l2.85-.69v-4.3l5.17-.92v5.23h5.06v.08s7.1-.24,7.1-.24v2.63l-2.2.58,3.87,11.41,3.48-11.23-2.15-.45v-2.63l8.65-.31v2.63l-1.71.53-5.97,16.55c-.51,1.41-1.05,2.66-1.64,3.76-.59,1.1-1.25,2.04-2,2.82-.74.78-1.61,1.37-2.61,1.77s-2.16.61-3.48.61c-.84,0-1.79-.08-2.84-.26l.45-3.65c.39.06.76.1,1.1.13.34.03.65.04.94.04,1.07,0,1.94-.22,2.62-.64.68-.43,1.27-1.09,1.76-1.99.36-.64.72-1.42,1.08-2.33l-6.59-16.39h-4.9v9.88c0,1.05.17,1.8.51,2.27.34.46.86.7,1.55.7.39,0,.83-.07,1.3-.2.47-.13.99-.31,1.56-.53l.97,2.82c-2.07,1.14-4.04,1.7-5.93,1.7-1.67,0-2.95-.51-3.82-1.52-.87-1.02-1.31-2.53-1.31-4.54v-10.58h-2.85v-2.74M377.62,294.9c-.91,0-1.64-.26-2.19-.77-.55-.51-.83-1.25-.83-2.21,0-1.03.29-1.79.86-2.3.58-.5,1.3-.75,2.19-.75s1.57.25,2.13.75c.56.5.84,1.25.84,2.26s-.29,1.76-.86,2.26c-.58.5-1.29.75-2.15.75ZM358.27,298.03l6.45-.31.52,2.8c.93-.9,1.85-1.61,2.75-2.13,1.07-.62,2.22-.93,3.44-.93.78,0,1.62.12,2.5.37v.14s6.4-.22,6.4-.22v16.42l2.46.7v2.65h-10.07v-2.65l2.46-.7v-12.84l-1.4-.39-.17,3.68h-3l-.42-3.07-.09-.02c-.16-.02-.32-.04-.47-.04-.76,0-1.51.24-2.25.7-.56.36-1.08.79-1.53,1.29v10.68l3.06.72v2.63h-10.66v-2.63l2.45-.71v-12.79l-2.45-.73v-2.63ZM344.69,309.79c-.49.39-.74,1-.74,1.84,0,.91.22,1.57.65,2,.43.43.97.64,1.63.64s1.31-.19,2.04-.58c.65-.34,1.28-.79,1.88-1.35v-3.14h-2.8c-1.27,0-2.16.2-2.65.59ZM338.79,312.14c0-1.39.3-2.5.9-3.32.6-.82,1.48-1.42,2.62-1.79,1.15-.37,2.55-.56,4.2-.56h3.64v-2.04c0-1.14-.28-1.95-.83-2.44-.55-.49-1.36-.74-2.42-.74-.51,0-1.07.05-1.66.14-.46.07-.93.18-1.44.32l-.41,2.57h-3.22l-.29-5.39c1.66-.48,3.19-.83,4.58-1.07,1.39-.24,2.66-.36,3.82-.36,2.28,0,4.02.49,5.22,1.46,1.2.97,1.8,2.5,1.8,4.56v10.61l2.46.77v2.64l-6.45.3-.59-3.07c-.89,1.02-1.87,1.8-2.92,2.34-1.16.59-2.35.89-3.56.89-1.57,0-2.87-.5-3.9-1.51-1.03-1.01-1.55-2.45-1.55-4.32ZM315.74,289.24l7.59-.31v11.02c.83-.68,1.7-1.22,2.6-1.61,1.32-.58,2.58-.87,3.78-.87,1.09,0,2.08.23,2.96.69.88.46,1.57,1.15,2.08,2.08.5.92.75,2.08.74,3.48v10.44l2.45.74v2.63h-9.8v-2.63l2.21-.65v-9.41c.02-1.18-.24-2.06-.78-2.61-.54-.56-1.24-.84-2.09-.84-.65,0-1.38.18-2.17.55-.67.31-1.32.75-1.97,1.32v10.99l2.21.66v2.63h-9.8v-2.63l2.45-.72v-21.58l-2.45-.72v-2.63ZM293.94,304.73c0-2.83.49-5.25,1.47-7.26.98-2.02,2.36-3.56,4.14-4.64,1.78-1.07,3.87-1.61,6.27-1.61,1.29,0,2.61.16,3.96.47,1.35.31,2.78.79,4.31,1.44l-.33,6.61h-3.11l-.78-3.76c-.57-.2-1.13-.36-1.67-.47-.78-.17-1.51-.25-2.19-.25-1.4,0-2.57.35-3.51,1.05-.95.7-1.67,1.71-2.16,3.03-.49,1.32-.73,2.9-.73,4.74,0,2.15.29,3.94.86,5.36.57,1.43,1.36,2.5,2.38,3.2,1.01.71,2.16,1.06,3.44,1.06.96,0,1.97-.2,3.04-.61,1.07-.41,2.14-1.03,3.21-1.86l1.95,3.04c-1.53,1.24-3.1,2.16-4.73,2.77-1.63.61-3.22.91-4.78.91-2.01,0-3.85-.5-5.52-1.49-1.67-1-3-2.48-4-4.45-1-1.97-1.49-4.4-1.49-7.3Z" style="fill:#fff; fill-rule:evenodd;"/><path d="M390.01,237.15l6.45-.31.51,2.78c1.03-.95,2.12-1.67,3.25-2.17,1.32-.58,2.58-.87,3.79-.87,1.65,0,3.02.52,4.13,1.56,1.1,1.04,1.65,2.62,1.63,4.74v10.4l2.45.74v2.63h-9.8v-2.63l2.2-.65v-9.39c0-1.2-.26-2.08-.78-2.64-.52-.56-1.21-.84-2.07-.84-.67,0-1.4.18-2.18.54-.67.31-1.33.75-1.98,1.32v10.99l2.2.66v2.63h-9.8v-2.63l2.45-.72v-12.79l-2.45-.72v-2.63M378.46,240.25c-1.4,0-2.44.55-3.12,1.65-.68,1.1-1.02,2.79-1.02,5.06s.33,3.91.98,4.93c.66,1.03,1.66,1.54,3.01,1.54.97,0,1.77-.25,2.39-.75.62-.5,1.09-1.25,1.4-2.25s.46-2.24.46-3.72c0-2.23-.34-3.86-1.02-4.91s-1.71-1.56-3.08-1.56ZM378.71,236.59c2.91,0,5.17.86,6.78,2.57,1.62,1.72,2.42,4.16,2.42,7.32,0,2.19-.4,4.08-1.19,5.66s-1.92,2.8-3.39,3.66c-1.47.86-3.23,1.29-5.29,1.29-2.89,0-5.13-.86-6.71-2.57-1.58-1.71-2.37-4.15-2.37-7.32,0-2.21.39-4.11,1.16-5.69.77-1.58,1.88-2.8,3.33-3.65,1.45-.85,3.2-1.28,5.25-1.28ZM363.58,234.02c-.91,0-1.64-.26-2.19-.77-.55-.51-.83-1.25-.83-2.2,0-1.03.29-1.79.86-2.3.58-.5,1.3-.75,2.19-.75s1.57.25,2.13.75c.56.5.84,1.26.84,2.26s-.29,1.76-.86,2.26c-.58.5-1.29.75-2.15.75ZM358.8,240.45h-4.96v9.88c0,1.04.17,1.8.51,2.27.34.47.86.7,1.55.7.39,0,.83-.06,1.3-.2.47-.13.99-.31,1.55-.53l.44,1.29,1.96-.56v-12.84l-2.34-.65-.02.63ZM345.81,237.7l2.85-.69v-4.3l5.17-.92v5.23h5.06v.1s7.41-.25,7.41-.25v16.42l2.46.7v2.65h-10.07v-.74c-1.7.79-3.33,1.18-4.9,1.18-1.67,0-2.95-.51-3.82-1.52-.87-1.02-1.31-2.53-1.31-4.54v-10.58h-2.85v-2.74ZM333.08,248.91c-.49.39-.74,1-.74,1.84,0,.91.22,1.57.65,2,.43.43.98.64,1.63.64s1.31-.19,2.04-.58c.65-.34,1.28-.79,1.88-1.35v-3.14h-2.8c-1.27,0-2.16.2-2.65.59ZM313.12,237.15l6.46-.31.52,2.8c.93-.9,1.85-1.61,2.75-2.13,1.07-.62,2.22-.93,3.44-.93.78,0,1.62.12,2.5.37l-.04.93c1.48-.41,2.85-.72,4.1-.94,1.39-.24,2.66-.36,3.82-.36,2.28,0,4.02.49,5.22,1.46,1.2.97,1.8,2.5,1.8,4.56v10.61l2.46.77v2.64l-6.45.3-.59-3.07c-.89,1.02-1.86,1.8-2.92,2.34-1.16.59-2.35.89-3.56.89-1.57,0-2.87-.5-3.9-1.51-1.03-1.01-1.55-2.45-1.55-4.32,0-1.39.3-2.5.9-3.32s1.48-1.42,2.62-1.79c1.15-.37,2.54-.56,4.2-.56h3.64v-2.04c0-1.14-.28-1.95-.83-2.44-.55-.49-1.36-.74-2.42-.74-.52,0-1.07.05-1.66.14-.45.07-.93.18-1.44.32l-.41,2.57h-3.22l-.04-.74-.05,1.09h-3l-.42-3.07-.09-.02c-.16-.02-.32-.04-.47-.04-.76,0-1.51.23-2.25.7-.57.36-1.08.79-1.53,1.29v10.68l3.06.72v2.63h-10.66v-2.63l2.45-.71v-12.79l-2.45-.73v-2.63ZM301.57,240.25c-1.4,0-2.43.55-3.12,1.65-.68,1.1-1.02,2.79-1.02,5.06s.33,3.91.99,4.93c.66,1.03,1.66,1.54,3.01,1.54.97,0,1.77-.25,2.39-.75.62-.5,1.09-1.25,1.4-2.25.31-1,.47-2.24.47-3.72,0-2.23-.34-3.86-1.02-4.91-.68-1.04-1.71-1.56-3.08-1.56ZM301.82,236.59c2.91,0,5.17.86,6.79,2.57,1.62,1.72,2.42,4.16,2.42,7.32,0,2.19-.4,4.08-1.19,5.66-.79,1.58-1.92,2.8-3.39,3.66-1.47.86-3.23,1.29-5.29,1.29-2.89,0-5.13-.86-6.7-2.57-1.58-1.71-2.37-4.15-2.37-7.32,0-2.21.39-4.11,1.16-5.69s1.88-2.8,3.33-3.65c1.45-.85,3.2-1.28,5.25-1.28ZM256.98,237.15l6.45-.31.51,2.78c1.01-.92,2.07-1.63,3.19-2.14,1.31-.6,2.57-.89,3.77-.89,1.11,0,2.11.28,2.99.83.79.49,1.4,1.23,1.85,2.22,1.01-.93,2.07-1.64,3.17-2.15,1.32-.6,2.58-.9,3.76-.9,1.54,0,2.84.51,3.89,1.53,1.05,1.02,1.57,2.58,1.57,4.69v10.47l2.45.74v2.63h-9.68v-2.63l2.08-.65v-9.42c0-1.18-.24-2.06-.72-2.61-.48-.56-1.1-.84-1.87-.84-.64,0-1.35.19-2.13.58-.64.31-1.28.75-1.91,1.31v.23s0,10.69,0,10.69l2.08.72v2.63h-9.31v-2.63l2.08-.65v-9.42c0-1.18-.24-2.06-.73-2.61-.49-.56-1.1-.84-1.85-.84-.64,0-1.34.18-2.12.54-.66.31-1.31.75-1.95,1.32v11l2.08.66v2.63h-9.67v-2.63l2.45-.72v-12.79l-2.45-.72v-2.63ZM242.67,243.36c-.13.45-.22.93-.29,1.44h7.13c-.01-.79-.1-1.5-.27-2.12-.2-.74-.54-1.33-1.03-1.75s-1.15-.63-1.98-.63c-.95,0-1.72.28-2.3.83-.58.56-1,1.3-1.26,2.22ZM237,247.2c0-2.2.39-4.1,1.18-5.68s1.9-2.8,3.35-3.65c1.45-.86,3.16-1.28,5.12-1.28s3.46.38,4.66,1.13c1.2.76,2.08,1.79,2.65,3.1.57,1.31.85,2.8.85,4.46,0,.41-.02.82-.05,1.23-.03.41-.09.85-.17,1.33h-12.24c.07.77.21,1.48.41,2.13.32,1.03.84,1.84,1.56,2.43.72.6,1.67.89,2.85.89.81,0,1.71-.15,2.68-.46.97-.31,1.98-.77,3.02-1.37l1.73,2.73c-1.42.98-2.87,1.72-4.34,2.2s-2.91.72-4.33.72c-1.78,0-3.34-.38-4.68-1.13-1.35-.75-2.39-1.86-3.14-3.34-.75-1.47-1.12-3.28-1.12-5.43ZM201.87,237.15l6.45-.31.51,2.78c1.01-.92,2.07-1.63,3.19-2.14,1.31-.6,2.57-.89,3.77-.89,1.11,0,2.11.28,2.99.83.79.49,1.4,1.23,1.85,2.22,1.01-.93,2.07-1.64,3.18-2.15,1.32-.6,2.58-.9,3.76-.9,1.54,0,2.84.51,3.89,1.53,1.05,1.02,1.57,2.58,1.57,4.69v10.47l2.45.74v2.63h-9.68v-2.63l2.08-.65v-9.42c0-1.18-.24-2.06-.72-2.61-.48-.56-1.1-.84-1.87-.84-.64,0-1.35.19-2.13.58-.64.31-1.28.75-1.91,1.31v.23s0,10.69,0,10.69l2.08.72v2.63h-9.31v-2.63l2.08-.65v-9.42c0-1.18-.24-2.06-.73-2.61-.49-.56-1.1-.84-1.85-.84-.64,0-1.34.18-2.12.54-.66.31-1.31.75-1.95,1.32v11l2.08.66v2.63h-9.68v-2.63l2.45-.72v-12.79l-2.45-.72v-2.63ZM166.82,237.15l6.45-.31.51,2.78c1.01-.92,2.07-1.63,3.18-2.14,1.32-.6,2.57-.89,3.77-.89,1.11,0,2.11.28,2.99.83.79.49,1.4,1.23,1.85,2.22,1.01-.93,2.06-1.64,3.17-2.15,1.32-.6,2.58-.9,3.76-.9,1.54,0,2.84.51,3.89,1.53,1.05,1.02,1.57,2.58,1.57,4.69v10.47s2.45.74,2.45.74v2.63h-9.67v-2.63l2.08-.65v-9.42c0-1.18-.24-2.06-.72-2.61-.48-.56-1.1-.84-1.87-.84-.64,0-1.35.19-2.13.58-.64.31-1.28.75-1.91,1.31v.23s0,10.69,0,10.69l2.08.72v2.63h-9.31v-2.63l2.08-.65v-9.42c0-1.18-.24-2.06-.73-2.61-.49-.56-1.1-.84-1.85-.84-.64,0-1.34.18-2.12.54-.66.31-1.31.75-1.95,1.32v11l2.08.66v2.63h-9.68v-2.63l2.45-.72v-12.79l-2.45-.72v-2.63ZM155.28,240.25c-1.4,0-2.43.55-3.12,1.65-.68,1.1-1.02,2.79-1.02,5.06s.33,3.91.99,4.93c.66,1.03,1.66,1.54,3.01,1.54.97,0,1.77-.25,2.39-.75.62-.5,1.09-1.25,1.4-2.25.31-1,.47-2.24.47-3.72,0-2.23-.34-3.86-1.02-4.91-.68-1.04-1.71-1.56-3.08-1.56ZM155.52,236.59c2.91,0,5.17.86,6.78,2.57s2.42,4.16,2.42,7.32c0,2.19-.4,4.08-1.19,5.66s-1.92,2.8-3.39,3.66c-1.47.86-3.23,1.29-5.29,1.29-2.89,0-5.13-.86-6.71-2.57-1.58-1.71-2.37-4.15-2.37-7.32,0-2.21.39-4.11,1.16-5.69.77-1.58,1.88-2.8,3.33-3.65,1.45-.85,3.2-1.28,5.25-1.28ZM123.25,243.85c0-2.83.49-5.25,1.47-7.26.98-2.02,2.36-3.56,4.14-4.64,1.78-1.07,3.87-1.61,6.27-1.61,1.29,0,2.61.16,3.96.47,1.35.32,2.78.79,4.31,1.44l-.33,6.61h-3.11l-.78-3.76c-.57-.2-1.13-.36-1.67-.47-.78-.17-1.51-.25-2.19-.25-1.4,0-2.57.35-3.51,1.05-.95.7-1.67,1.71-2.15,3.03-.49,1.32-.73,2.9-.73,4.75,0,2.15.29,3.94.86,5.36.57,1.43,1.36,2.5,2.38,3.2,1.01.71,2.16,1.06,3.44,1.06.96,0,1.97-.2,3.04-.61,1.07-.41,2.14-1.03,3.21-1.86l1.95,3.04c-1.53,1.24-3.1,2.17-4.73,2.77-1.63.61-3.22.91-4.78.91-2.01,0-3.85-.5-5.52-1.49-1.67-1-3-2.48-4-4.45-1-1.97-1.5-4.4-1.5-7.3Z" style="fill:#fff; fill-rule:evenodd;"/><path d="M388.02,173.14c-.91,0-1.63-.26-2.19-.77-.55-.51-.83-1.25-.83-2.2,0-1.03.29-1.79.86-2.3.58-.5,1.3-.75,2.19-.75s1.57.25,2.13.75c.56.5.84,1.26.84,2.26s-.29,1.76-.86,2.26c-.58.5-1.29.75-2.15.75M368.83,182.48c-.13.46-.22.94-.29,1.44h7.12c-.01-.79-.1-1.5-.27-2.12-.2-.75-.54-1.33-1.03-1.75-.49-.42-1.15-.63-1.98-.63-.96,0-1.72.28-2.3.83s-1,1.3-1.26,2.22ZM363.16,186.32c0-2.2.39-4.1,1.18-5.68.79-1.58,1.9-2.8,3.35-3.65,1.45-.85,3.16-1.28,5.13-1.28s3.46.38,4.65,1.13c1.2.75,2.08,1.79,2.65,3.1s.85,2.8.85,4.46c0,.41-.02.82-.05,1.23-.03.41-.09.85-.17,1.33h-12.24c.07.77.21,1.47.41,2.13.32,1.03.84,1.84,1.56,2.43.72.6,1.67.89,2.85.89.81,0,1.71-.15,2.68-.46.97-.31,1.98-.77,3.02-1.37l1.73,2.73c-1.42.99-2.87,1.72-4.34,2.2-1.47.48-2.91.72-4.32.72-1.78,0-3.34-.38-4.68-1.13-1.34-.75-2.39-1.86-3.14-3.34-.75-1.47-1.12-3.28-1.12-5.43ZM334.43,170.09l8.95-.18,10.14,18.52v-14.97l-2.69-.73v-2.63l9.75-.18v2.63l-2.69.9v22.33h-6.05l-10.35-18.97v15.54l2.69.79v2.63h-9.75v-2.63l2.69-.79v-18.9l-2.69-.73v-2.63ZM315.47,186.13c0-1.94.28-3.56.85-4.89.56-1.32,1.32-2.39,2.27-3.21.95-.82,2.02-1.41,3.2-1.78,1.18-.37,2.39-.55,3.63-.55s2.37.15,3.57.45c1.2.3,2.17.63,2.93,1l-.16,5.39h-3.29l-.51-2.84c-.29-.09-.61-.16-.97-.21-.52-.08-1.01-.12-1.47-.12-1.05,0-1.93.27-2.63.8-.7.53-1.22,1.28-1.56,2.25-.34.97-.51,2.11-.51,3.42,0,1.44.2,2.65.59,3.62.4.98.96,1.72,1.68,2.21.72.49,1.56.74,2.51.74.77,0,1.6-.16,2.5-.48.9-.32,1.84-.8,2.84-1.43l1.7,2.62c-1.36,1.05-2.73,1.83-4.11,2.33-1.38.5-2.75.75-4.11.75-1.69,0-3.21-.4-4.57-1.19-1.36-.79-2.43-1.94-3.21-3.44-.78-1.5-1.17-3.32-1.17-5.45ZM283.25,170.09l9.15-.18,5.75,13.36,6.03-13.17,8.49-.18v2.63l-2.69.93v18.88l2.69.79v2.63h-10.24v-2.63l2.69-.78v-15.21l-5.93,11.91-3.31.17-5.71-12.13v15.27l2.72.76v2.63h-9.65v-2.63l2.7-.79v-18.88l-2.7-.74v-2.63ZM255.17,176.3l9.14-.31v2.63l-2.2.58,3.87,11.41,3.48-11.23-2.15-.45v-2.63l8.65-.31v2.63l-1.71.53-5.97,16.55c-.51,1.41-1.05,2.66-1.64,3.76s-1.25,2.04-2,2.82c-.74.77-1.61,1.36-2.61,1.77-1,.41-2.16.61-3.48.61-.84,0-1.79-.09-2.84-.26l.45-3.65c.39.06.76.1,1.1.13.34.03.65.04.94.04,1.07,0,1.94-.21,2.62-.64.68-.43,1.27-1.09,1.76-1.99.36-.64.72-1.42,1.08-2.33l-6.68-16.6-1.8-.44v-2.63ZM232.13,173.14c-.91,0-1.64-.26-2.19-.77-.55-.51-.83-1.25-.83-2.2,0-1.03.29-1.79.86-2.3.58-.5,1.3-.75,2.19-.75s1.57.25,2.13.75c.56.5.84,1.26.84,2.26s-.29,1.76-.86,2.26c-.57.5-1.29.75-2.15.75ZM216.2,184.44h-3.47v7.59h2.53c.96,0,1.81-.11,2.57-.34.76-.23,1.36-.62,1.8-1.18.44-.56.66-1.33.66-2.32s-.19-1.7-.58-2.25c-.39-.54-.89-.93-1.51-1.16-.62-.23-1.29-.34-2.01-.34ZM215.26,173.61h-2.52v7.17h1.71c.95,0,1.79-.11,2.54-.33.75-.22,1.34-.6,1.77-1.15.43-.55.65-1.3.65-2.25,0-.91-.18-1.61-.54-2.1-.36-.49-.86-.84-1.48-1.03-.62-.2-1.33-.29-2.13-.29ZM204.78,170.09l7.73-.18h3.8c1.78,0,3.29.23,4.54.68,1.25.45,2.2,1.15,2.87,2.09.66.94.99,2.15.99,3.63,0,2.01-.64,3.56-1.92,4.64-.84.71-1.97,1.24-3.38,1.58.85.11,1.63.27,2.34.5,1.26.41,2.23,1.06,2.91,1.96.68.9,1.02,2.09,1.02,3.59s-.37,2.81-1.11,3.89c-.74,1.07-1.85,1.89-3.33,2.46-1.48.56-3.31.84-5.49.84h-10.96v-2.63l2.7-.8v-18.86l-2.7-.76v-2.63ZM182.13,182.48c-.13.46-.22.94-.29,1.44h7.12c0-.79-.1-1.5-.27-2.12-.2-.75-.54-1.33-1.03-1.75-.48-.42-1.15-.63-1.98-.63-.96,0-1.72.28-2.3.83s-1,1.3-1.26,2.22ZM176.45,186.32c0-2.2.39-4.1,1.18-5.68s1.9-2.8,3.35-3.65c1.45-.85,3.16-1.28,5.13-1.28s3.46.38,4.65,1.13c1.2.75,2.08,1.79,2.65,3.1.57,1.31.85,2.8.85,4.46,0,.41-.02.82-.05,1.23-.03.41-.09.85-.17,1.33h-12.24c.07.77.21,1.47.41,2.13.32,1.03.84,1.84,1.56,2.43.72.6,1.67.89,2.85.89.81,0,1.71-.15,2.68-.46.97-.31,1.98-.77,3.02-1.37l1.73,2.73c-1.42.99-2.87,1.72-4.34,2.2-1.47.48-2.91.72-4.33.72-1.78,0-3.34-.38-4.68-1.13-1.34-.75-2.39-1.86-3.14-3.34-.75-1.47-1.12-3.28-1.12-5.43ZM141.62,176.82l2.85-.69v-4.3l5.17-.92v5.23h5.06l-.1,3.42h-4.96v9.88c0,1.05.17,1.8.51,2.27s.86.7,1.55.7c.39,0,.83-.06,1.3-.2.47-.13.99-.31,1.55-.53l.35,1.02,1-.29v-21.58l-2.45-.72v-2.63l7.59-.31v11.02c.83-.68,1.7-1.22,2.6-1.61,1.32-.58,2.59-.87,3.78-.87,1.09,0,2.08.23,2.96.69.88.46,1.57,1.15,2.08,2.08.5.92.75,2.08.74,3.48v10.44l2.45.74v2.63h-9.8v-2.63l2.21-.65v-9.41c.02-1.18-.24-2.06-.78-2.61-.54-.56-1.24-.84-2.09-.84-.65,0-1.38.18-2.17.55-.67.31-1.32.74-1.97,1.32v10.99l2.2.66v2.63h-9.8v-.3c-1.33.5-2.61.74-3.86.74-1.67,0-2.95-.51-3.82-1.52-.87-1.02-1.31-2.53-1.31-4.54v-10.58h-2.85v-2.74ZM383.13,176.26l7.6-.26v16.42l2.31.66,2.26-.66v-21.61l-2.45-.69v-2.63l7.59-.31v25.24l2.32.68,2.31-.68v-21.61l-2.45-.69v-2.63l7.59-.31v25.24l2.45.72v2.63h-29.54v-2.65l2.46-.7v-12.84l-2.46-.68v-2.65ZM227.25,176.26l7.61-.26v16.42l2.31.66,2.26-.66v-21.61l-2.45-.69v-2.63l7.59-.31v25.24l2.31.68,2.31-.68v-21.61l-2.45-.69v-2.63l7.59-.31v25.24l2.45.72v2.63h-29.54v-2.65l2.46-.7v-12.84l-2.46-.68v-2.65Z" style="fill:#fff; fill-rule:evenodd;"/><path d="M401.35,118.49c-1.4,0-2.43.55-3.12,1.65-.68,1.1-1.02,2.79-1.02,5.06s.33,3.9.99,4.93c.66,1.02,1.66,1.54,3.01,1.54.97,0,1.77-.25,2.39-.75.62-.5,1.09-1.25,1.4-2.25.31-1,.47-2.24.47-3.72,0-2.23-.34-3.86-1.02-4.91-.68-1.04-1.71-1.56-3.08-1.56M401.6,114.83c2.91,0,5.17.86,6.79,2.57,1.62,1.72,2.43,4.16,2.43,7.32,0,2.19-.4,4.07-1.19,5.66-.79,1.58-1.92,2.8-3.39,3.66-1.47.86-3.23,1.29-5.29,1.29-2.89,0-5.13-.85-6.71-2.57-1.58-1.71-2.37-4.15-2.37-7.32,0-2.21.39-4.11,1.16-5.69s1.88-2.8,3.33-3.65c1.45-.85,3.2-1.28,5.25-1.28ZM379.28,115.94l2.85-.69v-4.3l5.17-.92v5.23h5.06l-.1,3.42h-4.96v9.88c0,1.05.17,1.8.51,2.27.34.47.86.7,1.56.7.39,0,.82-.06,1.3-.2.47-.13.99-.31,1.56-.53l.97,2.82c-2.06,1.13-4.04,1.7-5.93,1.7-1.67,0-2.95-.51-3.82-1.52-.87-1.02-1.31-2.53-1.31-4.54v-10.58h-2.85v-2.74ZM357.74,121.6c-.13.45-.22.93-.29,1.44h7.13c-.01-.79-.1-1.5-.27-2.12-.2-.75-.54-1.33-1.03-1.75-.49-.42-1.15-.63-1.98-.63-.96,0-1.72.28-2.3.83-.58.56-1,1.3-1.26,2.22ZM352.06,125.44c0-2.2.39-4.1,1.18-5.68.79-1.58,1.9-2.8,3.35-3.65,1.45-.85,3.16-1.28,5.13-1.28s3.46.38,4.65,1.13c1.2.75,2.08,1.79,2.65,3.1.57,1.31.85,2.8.85,4.46,0,.41-.02.81-.05,1.23-.03.41-.09.85-.17,1.33h-12.24c.07.77.21,1.48.41,2.13.32,1.03.84,1.84,1.56,2.43.72.59,1.67.89,2.85.89.81,0,1.71-.16,2.68-.46.97-.31,1.98-.77,3.02-1.38l1.73,2.73c-1.42.98-2.87,1.72-4.34,2.2-1.47.48-2.91.72-4.32.72-1.78,0-3.34-.38-4.68-1.13-1.34-.75-2.39-1.86-3.14-3.34-.75-1.47-1.12-3.28-1.12-5.43ZM316.94,115.39l6.45-.31.51,2.78c1.01-.92,2.07-1.63,3.18-2.14,1.32-.6,2.57-.89,3.77-.89,1.11,0,2.11.28,2.99.83.79.49,1.4,1.23,1.85,2.22,1.01-.93,2.06-1.64,3.17-2.14,1.32-.6,2.58-.9,3.76-.9,1.54,0,2.84.51,3.89,1.53,1.05,1.02,1.57,2.58,1.57,4.69v10.47l2.45.74v2.63h-9.67v-2.63l2.08-.65v-9.42c0-1.18-.24-2.05-.72-2.61-.48-.56-1.1-.84-1.87-.84-.64,0-1.35.19-2.13.58-.64.31-1.28.75-1.91,1.31v.23s0,10.69,0,10.69l2.08.72v2.63h-9.31v-2.63l2.08-.65v-9.42c0-1.18-.24-2.05-.73-2.61-.49-.56-1.1-.84-1.85-.84-.64,0-1.34.18-2.12.55-.66.31-1.31.75-1.95,1.32v11l2.08.66v2.63h-9.68v-2.63l2.45-.72v-12.79l-2.45-.72v-2.63ZM305.39,118.49c-1.4,0-2.44.55-3.12,1.65-.68,1.1-1.02,2.79-1.02,5.06s.33,3.9.98,4.93c.66,1.02,1.66,1.54,3.01,1.54.97,0,1.77-.25,2.39-.75.62-.5,1.09-1.25,1.4-2.25.31-1,.47-2.24.47-3.72,0-2.23-.34-3.86-1.02-4.91-.68-1.04-1.71-1.56-3.08-1.56ZM305.64,114.83c2.91,0,5.17.86,6.78,2.57,1.62,1.72,2.42,4.16,2.42,7.32,0,2.19-.4,4.07-1.19,5.66s-1.92,2.8-3.39,3.66c-1.47.86-3.23,1.29-5.29,1.29-2.89,0-5.13-.85-6.71-2.57-1.58-1.71-2.37-4.15-2.37-7.32,0-2.21.39-4.11,1.16-5.69.77-1.58,1.88-2.8,3.33-3.65,1.45-.85,3.2-1.28,5.25-1.28ZM277.89,125.25c0-1.94.28-3.56.85-4.89.56-1.32,1.32-2.39,2.27-3.21.95-.82,2.02-1.41,3.2-1.78,1.18-.37,2.39-.55,3.63-.55s2.37.15,3.57.45c1.2.3,2.17.63,2.93,1l-.16,5.39h-3.29l-.51-2.84c-.29-.09-.61-.16-.97-.21-.52-.08-1.01-.12-1.47-.12-1.05,0-1.93.26-2.63.8-.7.53-1.22,1.28-1.55,2.25-.34.97-.51,2.11-.51,3.42,0,1.44.2,2.65.59,3.62.4.98.96,1.72,1.68,2.21.72.49,1.56.74,2.51.74.77,0,1.6-.16,2.5-.48.9-.32,1.84-.8,2.84-1.43l1.7,2.62c-1.36,1.05-2.73,1.83-4.11,2.33-1.38.5-2.74.75-4.11.75-1.69,0-3.21-.4-4.57-1.19-1.36-.79-2.43-1.94-3.21-3.44-.78-1.5-1.17-3.32-1.17-5.45ZM267.61,106.6l7.59-.31v25.24l2.45.72v2.63h-10.04v-2.63l2.45-.72v-21.61l-2.45-.69v-2.63ZM253.8,121.6c-.13.45-.22.93-.29,1.44h7.12c0-.79-.1-1.5-.27-2.12-.2-.75-.54-1.33-1.03-1.75s-1.15-.63-1.98-.63c-.96,0-1.72.28-2.3.83-.58.56-1,1.3-1.26,2.22ZM248.13,125.44c0-2.2.39-4.1,1.18-5.68.79-1.58,1.9-2.8,3.35-3.65,1.45-.85,3.16-1.28,5.13-1.28s3.46.38,4.65,1.13c1.2.75,2.08,1.79,2.65,3.1.57,1.31.85,2.8.85,4.46,0,.41-.02.81-.05,1.23-.03.41-.09.85-.17,1.33h-12.24c.07.77.21,1.48.42,2.13.32,1.03.84,1.84,1.56,2.43.72.59,1.67.89,2.85.89.81,0,1.71-.16,2.68-.46.97-.31,1.98-.77,3.02-1.38l1.73,2.73c-1.42.98-2.87,1.72-4.34,2.2s-2.91.72-4.33.72c-1.78,0-3.34-.38-4.68-1.13-1.34-.75-2.39-1.86-3.14-3.34-.75-1.47-1.12-3.28-1.12-5.43ZM211.95,109.21l10.14-.18v2.63l-2.39.77,3.5,15.59,5.19-18.83,4.84-.16,5.05,19.01,3.97-15.52-2.7-.67v-2.63l9.66-.18v2.63l-2.44.72-6.33,22.54h-4.98l-5.02-17.87-5.26,17.87h-4.94l-5.88-22.43-2.42-.64v-2.63Z" style="fill:#fff; fill-rule:evenodd;"/><path d="M154.17,426.52c-.01-.91-.23-4.34-.14-5.5.09-1.16-.76-3.1-.79-4.29-.03-1.19.02-5.65.14-7,.29-3.29-.49-9.49-.71-11.22-.23-1.73-.91-3.29-1.86-5.57-.95-2.28-.93-5.93-.93-5.93,0,0,.11.04.14-.64.01-.26-.2-.89-.29-1.79-.02-.16.29-.57.29-.57,0,0-.54-2.84-.71-3.57-.4-1.72-1.22-3.5-1.22-3.5,0,0-.36-2.93-.57-4.36-.21-1.43-2.43-4.93-3.29-5.5-.21-.14-.58-.22-1.07-.36-.53-.15-1.2-.35-1.93-.43-1.4-.15-3.06-.1-4.65-.36-.86-.14-1.51-.59-2.07-.93-.58-.34-1.07-.57-1.07-.57,0,0-.53-.89-.93-1.29-.16-.16-.43-.07-.43-.07,0,0-.4-.35-.79-1.22-.53-1.16.07-1.71.07-1.71,0,0,.71-1.73,1.21-2.64.66-1.2.85-2.47,1.22-3.43.51-1.35,1.14-2.44,1.21-3.64.08-1.21-.23-2.92-.57-3.86-.1-.27-.3-.96-.71-1.57-.45-.67-1.12-1.29-1.43-1.86-.46-.85-.68-1.2-1.07-1.5-1.14-.9-1.83-1.15-2.86-1.5-.59-.2-2.24-.35-3.21-.43-.72-.06-.78-.09-1.29-.07-1.21.04-4.43,1.29-5.29,1.86-.59.39-1.21.91-1.86,1.79-.29.39-.76.71-.93,1.36-.07.26-.06.49-.07.71-.04.62.09.84.29,1.21.31.58.5.93.5.93,0,0-.1,2.29-.36,3.22-.26.92.43,1.79.43,1.79,0,0-.09.49-.29,1.07-.21.61-.52,1.34-.64,1.86-.14.58.48.88.93,1,.26.07.43.07.43.07v1.64l.21.57v.5l.57,1.07s.14.35.07.93c-.07.58.1,1.59.71,1.86.56.24,1.04-.08,2.22.14,1.18.22,1.14,2.57,1.14,2.57,0,0-.16-.02-.36.14-.2.16-.43.5-.43.5,0,0,.04.35.07.71.04.45.07.93.07.93,0,0-1.72.98-2.79,1.93-.72.64-1.93,1.29-1.93,1.29,0,0-4.52,1.56-6,3.07-1.26,1.28-1.44,1.97-1.57,3.43s-.09,4.41-.5,6.86c-.41,2.45.36,5.86.36,5.86v1.86s.02.71.14,1c.07.17.21.14.21.14,0,0-.02,2.52-.07,4-.05,1.49.07,3.14.07,3.14,0,0-2.02,5.17-3.64,11.86-.31,1.29-1.57,5.14-2.79,7.86-.57,1.27-2.22,3.65-3.36,4.5-.83.62-1.86,1.58-2.29,2.5-.15.33-.41.87-.57,1.36-.12.38-.51.76-.64,1.07-.16.38-.07.64-.07.64,0,0-1.5.99-3.07,1.79-1.74.88-3.57,1.57-3.57,1.57l-.79.5s-.56.28-.86.64c-.73.89-1.02,1.14-.79,2.36.16.82,1.09,1.83,2.22,1.5.88-.26,1.64-.44,3-.86,1.36-.42,2.76-1.6,3.5-2.29.29-.27.71-.79.71-.79l.79-.43s1.92.17,3.36-.21c.27-.07.77-.29,1-.57.17-.2.1-.45.21-.63.14-.22.22-.37.22-.37l.64-.29h.86s1.05.09,2.29-.29c.49-.15,1-.53,1.5-.79,1.51-.77,2.67-1.39,3.22-2.07.35-.44.86-.57.86-.57,0,0,.08.02,0,1.43-.02.41-.31.34-.36,1.43-.02.39.14,1.43.14,1.43,0,0-.08.25-.07.79,0,.75.07,1.62-.07,2.57-.11.71-1.02,1.87-.43,2.29.32.23.88.44,1.21.72.28.24.36.57.36.57,0,0,.97,3.33,1.14,4.72.13,1.06.76,2.3,1.14,3.43.12.36.04.74.07,1.07.16,1.51.6,3.94.57,5.86-.02,1.51.64,2.86.64,2.86,0,0-.12,1.01-.07,2.14.02.39.03,1,.36,1.79.01.03.02.04.02.06.02.03.02.04,0,0-.04-.07-.18-.25-.31.02-.21.41.29,1.07.29,3.07,0,1.52.43,1.5.43,1.5,0,0,.1,1.07.29,3,.16,1.69,1.43,6.22,1.43,6.22,0,0-.13,2.11-.43,3.65-.3,1.54-.12,1.72-.36,3.64-.24,1.92-1.72,9.15-1.72,9.15l-1.93,1.29-2.79.29s-6.11-.38-20.44,2.29c-12.12,2.26-11.79,8.22-11.79,8.22l-.14,7.29s1.59,9.15,32.3,11.58c32.88,2.6,41.23-9.5,41.23-9.5l-.22-8s.08-1.28-1.72-3c-3.24-3.12-6.5-3.9-9.93-5.07-3.43-1.17-11.43-2.57-11.43-2.57,0,0,.16-.34.07-1.5-.07-.9-.34-1.2-.45-1.87-.04-.25.02-1.13.02-1.13,0,0,.91-.36-.43-.93-.28-.12-.51-1-.71-1.79-.33-1.27-.36-5.36-.36-5.36,0,0,.4-.68,1-2.29.6-1.6.89-2.65,1.36-5.29.15-.83,0-2.57,0-2.57,0,0-.05-1.89.14-2.72.28-1.21-.14-2.43-.14-2.43,0,0,1.21-5.16,1.36-6.07.23-1.46.57-2.54,1-4.57.48-2.28,3.25-9.07,3.93-10.93.68-1.86,1.5-5.36,1.5-5.36,0,0,.61-.19,1.36-.36.74-.16,1.36-.13,1.43-.29.07-.15-.42-2.78-.43-3.72-.01-.93,0-3.69.22-4.93.21-1.24,1.42-4.88,1.64-8.43.22-3.55-1.1-9.16-1.5-10.5-.21-.7-1-2.57-1-2.57l-.07-1.14s-.23-.11-.14-.29c.12-.25.57-.6.57-.79.02-.75-.35-1.21-.36-1.5-.01-.29.39-1.16.43-2.07.03-.91-.31-2.14.21-3.57.8-2.17.8-2.95.93-5.07.13-2.12.43-5.65.43-5.65l.07-2.14s.55-.16.72.57c.25,1.1.76,2.6,1.07,2.72.31.12.43,0,.43,0,0,0,.64,1.98,1.14,3.71.5,1.73,1.57,5.36,1.57,5.36,0,0,.28,2.57.29,4.79,0,1.54,1.66,7.72,2.43,12.15.34,1.97.18,3.33.14,3.93-.12,1.95-.88.68-1.71,5.29-.22,1.22.04,1.07-.5,2.07-.54,1-.12.95-.29,1.79-.17.84-.5.89-.5,1.43,0,.3,1.14,0,1.14,0,0,0,.41-.04.71-1,.18-.56.28-.98.43-1.29.1-.22.33-.44.5-.86.36-.91.68-.77,1-.72.32.06.32.32.29.57-.11.7-.23.83-.43,2-.2,1.17-.37,1.3-1,2.5s-.87,1.28-1.07,1.57c-.2.29-.26.45-.14.72.1.24.31.33.57.28.26-.04.71-.94,1.43-1.5.47-.36.86-.29.86-.29l-.64,1.43s-1.26,1-.86,1.57c.7,1,1.5-.57,1.5-.57l1.07-.72s.32-.38.71-.86c.64-.76,1.04-.91,1.22-1.14.17-.23.56-2.84.93-3.36.5-.7.51-1.73.5-2.65M114.51,406.51c-.08.45-.17.99-.07,1.5.1.51.21,1.29.21,1.29,0,0-.06.02-.21.21-.16.2-.2.13-.21.36-.01.23-.14.6-.21.93-.08.33-.4,1.26-.71,1.72-.31.45-.54.93-.86,1.43-.32.5-.4.7-.43.93-.03.23-.17.92,0,1.43s.19.56.21.86c.02.3.05.76-.21,1.29-.26.53-.25.78-.29,1.21-.04.43.09.7,0,1.29-.09.59-.09,1.19,0,1.64.09.46.29.59.14.93-.15.34-.29,1.07-.29,1.07,0,0-.74,0-1.07.07-.33.06-.15.09-.71.29-.56.2-5.93,2-5.93,2,0,0,.09-.2.5-.93.41-.73,2.72-4.53,3.07-5.22.36-.69,3.77-7.35,4.22-8.29.45-.94,1.33-3.04,1.64-3.86.32-.82.51-1.56.71-2.07s.57-1.36.57-1.36c0,0,.23.11.29.21.06.1.07.36.07.36,0,0-.35.27-.43.71Z" style="fill:#fff;"/></g></svg>