<?xml version="1.0" encoding="UTF-8"?><svg id="uuid-123c79a8-1b16-44d0-a5f2-8a42613021de" xmlns="http://www.w3.org/2000/svg" viewBox="0 0 453.42 548.7"><g id="uuid-0d504220-d436-4730-ab9d-01f7576fa409"><path d="M9.87,393.23L148.96,0h304.46v548.7l-333.67-.46c-3.32.3-6.66.46-10.02.46-29.1,0-57.02-11.56-77.59-32.14C11.56,495.98,0,468.07,0,438.97c0-15.88,3.44-31.41,9.92-45.59l-.05-.14" style="fill:#0fa34b; fill-rule:evenodd;"/><path d="M154.17,426.52c-.01-.91-.23-4.34-.14-5.5.09-1.16-.76-3.1-.79-4.29-.03-1.19.02-5.65.14-7,.29-3.29-.49-9.49-.71-11.22-.23-1.73-.91-3.29-1.86-5.57-.95-2.28-.93-5.93-.93-5.93,0,0,.11.04.14-.64.01-.27-.2-.89-.29-1.79-.02-.16.29-.57.29-.57,0,0-.54-2.84-.71-3.57-.4-1.72-1.22-3.5-1.22-3.5,0,0-.36-2.93-.57-4.36-.21-1.43-2.43-4.94-3.29-5.5-.21-.14-.58-.22-1.07-.36-.53-.15-1.2-.35-1.93-.43-1.4-.15-3.06-.1-4.65-.36-.86-.14-1.51-.59-2.07-.93-.58-.34-1.07-.57-1.07-.57,0,0-.53-.89-.93-1.29-.16-.16-.43-.07-.43-.07,0,0-.4-.35-.79-1.21-.53-1.16.07-1.72.07-1.72,0,0,.71-1.73,1.21-2.64.66-1.2.85-2.47,1.22-3.43.51-1.35,1.14-2.44,1.21-3.64.08-1.21-.23-2.92-.57-3.86-.1-.27-.3-.96-.71-1.57-.45-.67-1.12-1.29-1.43-1.86-.46-.85-.68-1.2-1.07-1.5-1.14-.9-1.83-1.15-2.86-1.5-.59-.2-2.24-.35-3.21-.43-.72-.06-.78-.09-1.29-.07-1.21.04-4.43,1.29-5.29,1.86-.59.39-1.21.91-1.86,1.79-.29.39-.76.71-.93,1.36-.07.25-.06.49-.07.71-.04.62.09.84.29,1.22.31.58.5.93.5.93,0,0-.1,2.29-.36,3.22-.26.92.43,1.79.43,1.79,0,0-.09.49-.29,1.07-.21.61-.52,1.34-.64,1.86-.14.58.48.88.93,1,.26.07.43.07.43.07v1.64l.21.57v.5l.57,1.07s.14.35.07.93c-.07.58.1,1.59.71,1.86.56.24,1.04-.08,2.22.14,1.18.22,1.14,2.57,1.14,2.57,0,0-.16-.01-.36.14-.2.16-.43.5-.43.5,0,0,.04.35.07.71.04.45.07.93.07.93,0,0-1.72.98-2.79,1.93-.72.65-1.93,1.29-1.93,1.29,0,0-4.52,1.56-6,3.07-1.26,1.28-1.44,1.97-1.57,3.43-.14,1.46-.09,4.41-.5,6.86-.41,2.45.36,5.86.36,5.86v1.86s.02.71.14,1c.07.17.21.14.21.14,0,0-.02,2.52-.07,4-.05,1.49.07,3.14.07,3.14,0,0-2.02,5.17-3.64,11.86-.31,1.29-1.57,5.14-2.79,7.86-.57,1.27-2.22,3.65-3.36,4.5-.83.62-1.86,1.58-2.29,2.5-.15.33-.41.87-.57,1.36-.12.38-.51.76-.64,1.07-.16.38-.07.64-.07.64,0,0-1.5.99-3.07,1.79-1.74.88-3.57,1.57-3.57,1.57l-.79.5s-.56.28-.86.64c-.73.89-1.02,1.14-.79,2.36.16.82,1.09,1.83,2.22,1.5.88-.26,1.64-.43,3-.86,1.36-.42,2.76-1.6,3.5-2.29.29-.27.71-.79.71-.79l.79-.43s1.92.17,3.36-.21c.27-.07.77-.29,1-.57.17-.2.1-.45.21-.63.14-.22.22-.37.22-.37l.64-.29h.86s1.05.09,2.29-.29c.49-.15,1-.53,1.5-.79,1.51-.77,2.67-1.39,3.22-2.07.35-.44.86-.57.86-.57,0,0,.08.02,0,1.43-.02.41-.31.34-.36,1.43-.02.39.14,1.43.14,1.43,0,0-.08.25-.07.79,0,.75.07,1.62-.07,2.57-.11.71-1.02,1.87-.43,2.29.32.23.88.43,1.21.71.28.24.36.57.36.57,0,0,.97,3.33,1.14,4.72.13,1.06.76,2.3,1.14,3.43.12.36.04.74.07,1.07.16,1.51.6,3.94.57,5.86-.02,1.51.64,2.86.64,2.86,0,0-.12,1.01-.07,2.14.02.39.03,1,.36,1.79.01.03.02.04.02.06.02.03.02.04,0,0-.04-.07-.18-.25-.31.02-.21.41.29,1.07.29,3.07,0,1.52.43,1.5.43,1.5,0,0,.1,1.07.29,3,.16,1.69,1.43,6.22,1.43,6.22,0,0-.13,2.11-.43,3.64-.3,1.54-.12,1.73-.36,3.64-.24,1.92-1.72,9.15-1.72,9.15l-1.93,1.29-2.79.29s-6.11-.38-20.44,2.29c-12.12,2.26-11.79,8.22-11.79,8.22l-.14,7.29s1.59,9.15,32.3,11.58c32.88,2.6,41.23-9.5,41.23-9.5l-.22-8s.08-1.28-1.72-3c-3.24-3.12-6.5-3.9-9.93-5.07-3.43-1.17-11.43-2.57-11.43-2.57,0,0,.16-.34.07-1.5-.07-.9-.34-1.2-.45-1.87-.04-.25.02-1.13.02-1.13,0,0,.91-.36-.43-.93-.28-.12-.51-1-.71-1.79-.33-1.28-.36-5.36-.36-5.36,0,0,.4-.68,1-2.29.6-1.6.89-2.65,1.36-5.29.15-.83,0-2.57,0-2.57,0,0-.05-1.89.14-2.72.28-1.21-.14-2.43-.14-2.43,0,0,1.21-5.16,1.36-6.07.23-1.46.57-2.54,1-4.57.48-2.28,3.25-9.07,3.93-10.93.68-1.86,1.5-5.36,1.5-5.36,0,0,.61-.19,1.36-.36.74-.16,1.36-.13,1.43-.29.07-.15-.42-2.78-.43-3.72-.01-.93,0-3.69.22-4.93.21-1.24,1.42-4.88,1.64-8.43.22-3.55-1.1-9.16-1.5-10.5-.21-.7-1-2.57-1-2.57l-.07-1.14s-.23-.11-.14-.29c.12-.25.57-.6.57-.79.02-.75-.35-1.21-.36-1.5-.01-.29.39-1.16.43-2.07.03-.91-.31-2.14.21-3.57.8-2.17.8-2.95.93-5.07.13-2.12.43-5.65.43-5.65l.07-2.14s.55-.16.72.57c.25,1.1.76,2.6,1.07,2.72.31.12.43,0,.43,0,0,0,.64,1.98,1.14,3.71s1.57,5.36,1.57,5.36c0,0,.28,2.57.29,4.79,0,1.54,1.66,7.72,2.43,12.15.34,1.97.18,3.33.14,3.93-.12,1.95-.88.68-1.71,5.29-.22,1.22.04,1.07-.5,2.07-.54,1-.12.95-.29,1.79-.17.84-.5.89-.5,1.43,0,.3,1.14,0,1.14,0,0,0,.41-.05.71-1,.18-.56.28-.98.43-1.29.1-.22.33-.44.5-.86.36-.9.68-.77,1-.71.32.06.32.33.29.57-.11.7-.23.83-.43,2-.2,1.17-.37,1.3-1,2.5-.63,1.2-.87,1.28-1.07,1.57-.2.29-.26.45-.14.71.1.24.31.33.57.29.26-.04.71-.94,1.43-1.5.47-.36.86-.29.86-.29l-.64,1.43s-1.26,1-.86,1.57c.7,1,1.5-.57,1.5-.57l1.07-.71s.32-.38.71-.86c.64-.76,1.04-.91,1.22-1.14.17-.23.56-2.84.93-3.36.5-.7.51-1.73.5-2.65M114.51,406.51c-.08.45-.17.99-.07,1.5.1.51.21,1.29.21,1.29,0,0-.06.02-.21.21-.16.2-.2.13-.21.36-.01.23-.14.6-.21.93-.08.33-.4,1.26-.71,1.72-.31.45-.54.93-.86,1.43-.32.5-.4.7-.43.93-.03.23-.17.92,0,1.43.17.51.19.56.21.86.02.3.05.76-.21,1.29-.26.53-.25.78-.29,1.21-.04.43.09.7,0,1.29s-.09,1.19,0,1.64c.09.46.29.59.14.93-.15.34-.29,1.07-.29,1.07,0,0-.74,0-1.07.07-.33.06-.15.09-.71.28-.56.2-5.93,2-5.93,2,0,0,.09-.2.5-.93.41-.73,2.72-4.53,3.07-5.22.36-.68,3.77-7.35,4.22-8.29.45-.94,1.33-3.04,1.64-3.86.32-.82.51-1.56.71-2.07.21-.52.57-1.36.57-1.36,0,0,.23.11.29.21.06.1.07.36.07.36,0,0-.35.27-.43.71Z" style="fill:#fff;"/><path d="M328.44,118.94c0,5.16-.89,9.68-2.67,13.57-1.78,3.89-4.33,6.88-7.64,8.96-3.31,2.08-7.12,3.12-11.44,3.12s-8.06-1.04-11.4-3.12c-3.34-2.08-5.91-5.05-7.73-8.91-1.82-3.85-2.74-8.3-2.76-13.33v-2.96c0-5.13.91-9.66,2.73-13.59,1.82-3.93,4.38-6.93,7.7-9.02,3.31-2.08,7.11-3.12,11.4-3.12s8.09,1.03,11.4,3.09c3.31,2.06,5.87,5.02,7.68,8.89,1.81,3.87,2.72,8.36,2.75,13.5v2.93ZM319.3,116.19c0-5.83-1.1-10.3-3.31-13.41-2.21-3.11-5.33-4.66-9.38-4.66s-7.04,1.55-9.27,4.64c-2.23,3.1-3.37,7.47-3.42,13.13v3.04c0,5.78,1.13,10.25,3.38,13.41,2.25,3.16,5.38,4.73,9.38,4.73s7.16-1.54,9.34-4.62c2.18-3.08,3.27-7.59,3.27-13.51v-2.75Z" style="fill:#fff;"/><path d="M360.38,140.04c-2.58,3.04-6.24,4.55-10.98,4.55-4.24,0-7.45-1.24-9.63-3.72-2.18-2.48-3.27-6.07-3.27-10.77v-25.33h8.78v25.22c0,4.96,2.06,7.44,6.18,7.44s7.14-1.53,8.64-4.59v-28.08h8.78v39.1h-8.27l-.22-3.83Z" style="fill:#fff;"/><path d="M398.29,112.79c-1.16-.19-2.35-.29-3.58-.29-4.02,0-6.73,1.54-8.13,4.62v26.74h-8.78v-39.1h8.38l.22,4.37c2.12-3.4,5.06-5.09,8.82-5.09,1.25,0,2.29.17,3.11.51l-.04,8.24Z" style="fill:#fff;"/><path d="M202.01,226.89c-5.56,0-10.08-1.75-13.53-5.26-3.46-3.5-5.18-8.17-5.18-14v-1.08c0-3.9.75-7.39,2.26-10.46,1.5-3.07,3.62-5.46,6.34-7.17,2.72-1.71,5.76-2.57,9.11-2.57,5.32,0,9.44,1.7,12.34,5.09,2.9,3.4,4.35,8.2,4.35,14.42v3.54h-25.55c.26,3.23,1.34,5.78,3.23,7.66,1.89,1.88,4.27,2.82,7.14,2.82,4.02,0,7.3-1.63,9.83-4.88l4.73,4.52c-1.57,2.34-3.66,4.15-6.27,5.44-2.61,1.29-5.55,1.93-8.8,1.93ZM200.96,193.4c-2.41,0-4.35.84-5.84,2.53-1.48,1.69-2.43,4.04-2.84,7.05h16.73v-.65c-.19-2.94-.98-5.16-2.35-6.67-1.37-1.51-3.28-2.26-5.71-2.26Z" style="fill:#fff;"/><path d="M237.92,215.04l8.27-27.97h9.07l-13.55,39.1h-7.62l-13.66-39.1h9.11l8.38,27.97Z" style="fill:#fff;"/><path d="M277.58,226.89c-5.56,0-10.08-1.75-13.53-5.26-3.46-3.5-5.18-8.17-5.18-14v-1.08c0-3.9.75-7.39,2.26-10.46,1.5-3.07,3.62-5.46,6.34-7.17,2.72-1.71,5.76-2.57,9.11-2.57,5.32,0,9.44,1.7,12.34,5.09,2.9,3.4,4.35,8.2,4.35,14.42v3.54h-25.55c.26,3.23,1.34,5.78,3.23,7.66,1.89,1.88,4.27,2.82,7.14,2.82,4.02,0,7.3-1.63,9.83-4.88l4.73,4.52c-1.57,2.34-3.66,4.15-6.27,5.44-2.61,1.29-5.55,1.93-8.8,1.93ZM276.54,193.4c-2.41,0-4.35.84-5.84,2.53-1.48,1.69-2.43,4.04-2.84,7.05h16.73v-.65c-.19-2.94-.98-5.16-2.35-6.67-1.37-1.51-3.28-2.26-5.71-2.26Z" style="fill:#fff;"/><path d="M308.22,187.07l.25,4.52c2.89-3.49,6.68-5.24,11.38-5.24,8.14,0,12.29,4.66,12.43,13.98v25.83h-8.78v-25.33c0-2.48-.54-4.32-1.61-5.51-1.07-1.19-2.82-1.79-5.26-1.79-3.54,0-6.18,1.6-7.91,4.81v27.82h-8.78v-39.1h8.27Z" style="fill:#fff;"/><path d="M352.23,177.57v9.5h6.9v6.5h-6.9v21.82c0,1.49.29,2.57.89,3.23.59.66,1.64.99,3.16.99,1.01,0,2.04-.12,3.07-.36v6.79c-2,.55-3.93.83-5.78.83-6.75,0-10.12-3.72-10.12-11.17v-22.15h-6.43v-6.5h6.43v-9.5h8.78Z" style="fill:#fff;"/><path d="M387.75,215.55c0-1.57-.64-2.76-1.93-3.58-1.29-.82-3.43-1.54-6.41-2.17-2.99-.63-5.48-1.42-7.48-2.38-4.38-2.12-6.58-5.19-6.58-9.21,0-3.37,1.42-6.19,4.26-8.46,2.84-2.26,6.46-3.4,10.84-3.4,4.67,0,8.45,1.16,11.33,3.47,2.88,2.31,4.32,5.31,4.32,9h-8.78c0-1.69-.63-3.09-1.88-4.21-1.25-1.12-2.92-1.68-4.99-1.68-1.93,0-3.5.45-4.72,1.34-1.22.89-1.82,2.08-1.82,3.58,0,1.35.57,2.4,1.7,3.14,1.13.75,3.42,1.5,6.87,2.26,3.44.76,6.15,1.66,8.11,2.71,1.96,1.05,3.42,2.31,4.37,3.78.95,1.47,1.43,3.25,1.43,5.35,0,3.52-1.46,6.37-4.37,8.55-2.92,2.18-6.73,3.27-11.45,3.27-3.2,0-6.06-.58-8.56-1.73-2.51-1.16-4.46-2.75-5.85-4.77-1.4-2.02-2.1-4.2-2.1-6.54h8.53c.12,2.07.9,3.67,2.35,4.79,1.45,1.12,3.36,1.68,5.75,1.68s4.07-.44,5.28-1.32c1.2-.88,1.81-2.03,1.81-3.45Z" style="fill:#fff;"/></g></svg>