<?xml version="1.0" encoding="UTF-8"?><svg id="uuid-b5c9ddf7-e775-4d14-93e0-1fecce6e4399" xmlns="http://www.w3.org/2000/svg" viewBox="0 0 453.42 548.7"><g id="uuid-791b2315-c0a4-400f-9e5e-7e607b0c84f4"><path d="M443.55,393.24l-.05.14c6.48,14.18,9.92,29.71,9.92,45.59,0,29.1-11.56,57.02-32.14,77.59-20.58,20.58-48.49,32.14-77.59,32.14-3.36,0-6.7-.15-10.02-.46l-333.67.46V0h304.46l139.09,393.24" style="fill:#0fa34b; fill-rule:evenodd;"/><path d="M97.82,134.59l8.09-39.6h9.07l-12.14,52.61h-8.74l-10.01-38.41-10.23,38.41h-8.78l-12.14-52.61h9.07l8.17,39.53,10.04-39.53h7.66l9.94,39.6Z" style="fill:#fff;"/><path d="M129.47,112.77c2.87-3.32,6.49-4.99,10.88-4.99,8.33,0,12.56,4.76,12.68,14.27v25.55h-8.78v-25.22c0-2.7-.58-4.61-1.75-5.73-1.17-1.12-2.88-1.68-5.15-1.68-3.52,0-6.14,1.57-7.88,4.7v27.93h-8.78v-55.5h8.78v20.67Z" style="fill:#fff;"/><path d="M185.26,147.6c-.39-.75-.72-1.96-1.01-3.65-2.79,2.92-6.21,4.37-10.26,4.37s-7.13-1.12-9.61-3.36c-2.48-2.24-3.72-5.01-3.72-8.31,0-4.17,1.55-7.36,4.64-9.59,3.1-2.23,7.52-3.34,13.28-3.34h5.38v-2.57c0-2.02-.57-3.64-1.7-4.86-1.13-1.22-2.85-1.82-5.17-1.82-2,0-3.64.5-4.91,1.5-1.28,1-1.92,2.27-1.92,3.81h-8.78c0-2.14.71-4.15,2.13-6.02,1.42-1.87,3.35-3.33,5.8-4.39,2.44-1.06,5.17-1.59,8.18-1.59,4.58,0,8.23,1.15,10.95,3.45,2.72,2.3,4.12,5.53,4.19,9.7v17.63c0,3.52.49,6.32,1.48,8.42v.61h-8.96ZM175.62,141.27c1.73,0,3.37-.42,4.9-1.26,1.53-.84,2.68-1.98,3.45-3.4v-7.37h-4.73c-3.25,0-5.7.57-7.33,1.7-1.64,1.13-2.46,2.73-2.46,4.81,0,1.69.56,3.03,1.68,4.03,1.12,1,2.62,1.5,4.5,1.5Z" style="fill:#fff;"/><path d="M212.94,99v9.5h6.9v6.5h-6.9v21.82c0,1.49.29,2.57.89,3.23.59.66,1.64.99,3.16.99,1.01,0,2.04-.12,3.07-.36v6.79c-2,.55-3.93.83-5.78.83-6.75,0-10.12-3.72-10.12-11.17v-22.15h-6.43v-6.5h6.43v-9.5h8.78Z" style="fill:#fff;"/><path d="M90.05,217.79l6.21-26.99h8.56l-10.66,39.1h-7.23l-8.38-26.85-8.24,26.85h-7.23l-10.7-39.1h8.56l6.32,26.7,8.02-26.7h6.61l8.13,26.99Z" style="fill:#fff;"/><path d="M127.92,230.62c-5.56,0-10.08-1.75-13.53-5.26-3.46-3.5-5.19-8.17-5.19-14v-1.08c0-3.9.75-7.39,2.26-10.46,1.51-3.07,3.62-5.46,6.34-7.17,2.72-1.71,5.76-2.57,9.11-2.57,5.32,0,9.44,1.7,12.34,5.09,2.9,3.4,4.35,8.2,4.35,14.42v3.54h-25.55c.26,3.23,1.34,5.78,3.23,7.66,1.89,1.88,4.27,2.82,7.14,2.82,4.02,0,7.3-1.63,9.83-4.88l4.73,4.52c-1.57,2.34-3.66,4.15-6.27,5.44-2.61,1.29-5.55,1.93-8.8,1.93ZM126.87,197.13c-2.41,0-4.35.84-5.84,2.53-1.48,1.69-2.43,4.04-2.84,7.05h16.73v-.65c-.19-2.94-.98-5.16-2.35-6.67-1.37-1.51-3.28-2.26-5.71-2.26Z" style="fill:#fff;"/><path d="M167.2,210.06c0-6.02,1.4-10.86,4.19-14.51,2.79-3.65,6.54-5.47,11.24-5.47,4.14,0,7.49,1.45,10.04,4.34v-20.02h8.78v55.5h-7.95l-.43-4.05c-2.63,3.18-6.13,4.77-10.51,4.77s-8.28-1.84-11.11-5.53c-2.83-3.69-4.25-8.7-4.25-15.03ZM175.98,210.82c0,3.97.76,7.08,2.29,9.3,1.53,2.23,3.7,3.34,6.52,3.34,3.59,0,6.21-1.6,7.88-4.81v-16.69c-1.61-3.13-4.22-4.7-7.8-4.7-2.84,0-5.03,1.13-6.58,3.38-1.54,2.25-2.31,5.64-2.31,10.17Z" style="fill:#fff;"/><path d="M208.97,209.99c0-3.83.76-7.28,2.28-10.35s3.65-5.43,6.4-7.08c2.75-1.65,5.9-2.48,9.47-2.48,5.28,0,9.56,1.7,12.85,5.09s5.06,7.9,5.33,13.51l.04,2.06c0,3.85-.74,7.3-2.22,10.33s-3.6,5.38-6.36,7.05c-2.76,1.66-5.94,2.49-9.56,2.49-5.52,0-9.93-1.84-13.24-5.51-3.31-3.67-4.97-8.57-4.97-14.69v-.43ZM217.75,210.75c0,4.02.83,7.17,2.49,9.45s3.97,3.41,6.94,3.41,5.27-1.16,6.92-3.47c1.65-2.31,2.48-5.7,2.48-10.15,0-3.95-.85-7.08-2.55-9.39s-4-3.47-6.92-3.47-5.14,1.14-6.83,3.41c-1.69,2.28-2.53,5.68-2.53,10.21Z" style="fill:#fff;"/><path d="M367.54,426.27c-.01-.91-.23-4.34-.14-5.5.09-1.16-.76-3.1-.79-4.29-.03-1.19.02-5.65.14-7,.29-3.29-.48-9.49-.71-11.22-.23-1.73-.91-3.29-1.86-5.57-.95-2.29-.93-5.93-.93-5.93,0,0,.11.04.14-.64.01-.26-.2-.89-.29-1.79-.02-.16.29-.57.29-.57,0,0-.54-2.84-.71-3.57-.4-1.72-1.21-3.5-1.21-3.5,0,0-.36-2.93-.57-4.36-.21-1.43-2.43-4.93-3.29-5.5-.21-.14-.58-.22-1.07-.36-.53-.15-1.2-.35-1.93-.43-1.4-.15-3.06-.1-4.65-.36-.86-.14-1.51-.59-2.07-.93-.58-.34-1.07-.57-1.07-.57,0,0-.53-.89-.93-1.29-.16-.16-.43-.07-.43-.07,0,0-.4-.35-.79-1.22-.53-1.16.07-1.71.07-1.71,0,0,.71-1.73,1.21-2.64.66-1.2.85-2.47,1.21-3.43.51-1.35,1.14-2.44,1.21-3.64.07-1.21-.23-2.92-.57-3.86-.1-.27-.3-.96-.71-1.57-.45-.67-1.12-1.29-1.43-1.86-.46-.85-.68-1.2-1.07-1.5-1.14-.9-1.83-1.15-2.86-1.5-.6-.2-2.24-.35-3.21-.43-.72-.06-.78-.09-1.29-.07-1.21.04-4.43,1.29-5.29,1.86-.59.39-1.21.91-1.86,1.79-.29.39-.76.71-.93,1.36-.07.26-.06.49-.07.71-.04.62.09.84.29,1.21.31.58.5.93.5.93,0,0-.1,2.29-.36,3.22-.26.92.43,1.79.43,1.79,0,0-.09.49-.29,1.07-.21.61-.52,1.34-.64,1.86-.14.58.48.88.93,1,.26.07.43.07.43.07v1.64l.21.57v.5l.57,1.07s.14.35.07.93c-.07.58.1,1.59.71,1.86.56.24,1.04-.08,2.22.14,1.18.22,1.14,2.57,1.14,2.57,0,0-.16-.02-.36.14-.2.16-.43.5-.43.5,0,0,.04.35.07.71.04.45.07.93.07.93,0,0-1.72.98-2.79,1.93-.72.64-1.93,1.29-1.93,1.29,0,0-4.52,1.56-6,3.07-1.26,1.28-1.43,1.97-1.57,3.43-.14,1.46-.09,4.41-.5,6.86-.41,2.45.36,5.86.36,5.86v1.86s.02.71.14,1c.07.17.21.14.21.14,0,0-.02,2.52-.07,4-.05,1.49.07,3.14.07,3.14,0,0-2.02,5.17-3.64,11.86-.31,1.29-1.57,5.14-2.79,7.86-.57,1.27-2.22,3.65-3.36,4.5-.83.62-1.86,1.58-2.29,2.5-.15.33-.41.87-.57,1.36-.12.38-.51.76-.64,1.07-.17.38-.07.64-.07.64,0,0-1.5.99-3.07,1.79-1.74.88-3.57,1.57-3.57,1.57l-.79.5s-.56.28-.86.64c-.73.89-1.02,1.14-.79,2.36.16.82,1.09,1.83,2.22,1.5.88-.26,1.64-.44,3-.86,1.36-.42,2.76-1.6,3.5-2.29.29-.27.71-.79.71-.79l.79-.43s1.92.17,3.36-.21c.27-.07.77-.29,1-.57.17-.2.1-.45.21-.63.14-.22.22-.37.22-.37l.64-.29h.86s1.05.09,2.29-.29c.49-.15,1-.53,1.5-.79,1.51-.77,2.67-1.39,3.22-2.07.35-.44.86-.57.86-.57,0,0,.08.02,0,1.43-.02.41-.31.34-.36,1.43-.02.39.14,1.43.14,1.43,0,0-.08.25-.07.79,0,.75.07,1.62-.07,2.57-.11.71-1.02,1.87-.43,2.29.32.23.88.44,1.21.72.28.24.36.57.36.57,0,0,.97,3.33,1.14,4.72.13,1.06.76,2.3,1.14,3.43.12.36.04.74.07,1.07.16,1.51.6,3.94.57,5.86-.02,1.51.64,2.86.64,2.86,0,0-.12,1.01-.07,2.14.02.39.03,1,.36,1.79.01.03.02.04.02.06.02.03.02.04,0,0-.04-.07-.18-.25-.31.02-.21.41.29,1.07.29,3.07,0,1.52.43,1.5.43,1.5,0,0,.1,1.07.29,3,.16,1.69,1.43,6.22,1.43,6.22,0,0-.13,2.11-.43,3.65-.3,1.54-.12,1.72-.36,3.64-.24,1.92-1.72,9.15-1.72,9.15l-1.93,1.29-2.79.29s-6.11-.38-20.44,2.29c-12.11,2.26-11.79,8.22-11.79,8.22l-.14,7.29s1.59,9.15,32.3,11.58c32.88,2.6,41.23-9.5,41.23-9.5l-.21-8s.08-1.28-1.71-3c-3.24-3.12-6.5-3.9-9.93-5.07-3.43-1.17-11.43-2.57-11.43-2.57,0,0,.17-.34.07-1.5-.07-.9-.34-1.2-.45-1.87-.04-.25.02-1.13.02-1.13,0,0,.91-.36-.43-.93-.28-.12-.51-1-.71-1.79-.33-1.27-.36-5.36-.36-5.36,0,0,.4-.68,1-2.29.6-1.6.89-2.65,1.36-5.29.15-.83,0-2.57,0-2.57,0,0-.05-1.89.14-2.72.28-1.21-.14-2.43-.14-2.43,0,0,1.21-5.16,1.36-6.07.23-1.46.57-2.54,1-4.57.48-2.28,3.25-9.07,3.93-10.93.68-1.86,1.5-5.36,1.5-5.36,0,0,.61-.19,1.36-.36.74-.16,1.36-.13,1.43-.29.07-.15-.42-2.78-.43-3.72-.01-.93,0-3.69.21-4.93.21-1.24,1.42-4.88,1.64-8.43.22-3.55-1.1-9.16-1.5-10.5-.21-.7-1-2.57-1-2.57l-.07-1.14s-.23-.11-.14-.29c.12-.25.57-.6.57-.79.02-.75-.35-1.21-.36-1.5-.01-.29.39-1.16.43-2.07.03-.91-.31-2.14.21-3.57.8-2.17.8-2.95.93-5.07.13-2.12.43-5.65.43-5.65l.07-2.14s.55-.16.71.57c.25,1.1.76,2.6,1.07,2.72.31.12.43,0,.43,0,0,0,.64,1.98,1.14,3.71.5,1.73,1.57,5.36,1.57,5.36,0,0,.28,2.57.29,4.79,0,1.54,1.66,7.72,2.43,12.15.34,1.97.18,3.33.14,3.93-.12,1.95-.88.68-1.71,5.29-.22,1.22.04,1.07-.5,2.07-.54,1-.12.95-.29,1.79-.17.84-.5.89-.5,1.43,0,.3,1.14,0,1.14,0,0,0,.41-.04.71-1,.18-.56.28-.98.43-1.29.1-.22.33-.44.5-.86.36-.91.68-.77,1-.72.32.06.32.32.29.57-.11.7-.23.83-.43,2-.2,1.17-.37,1.3-1,2.5-.63,1.2-.87,1.28-1.07,1.57-.2.29-.26.45-.14.72.1.24.31.33.57.28.26-.04.71-.94,1.43-1.5.47-.36.86-.29.86-.29l-.64,1.43s-1.26,1-.86,1.57c.7,1,1.5-.57,1.5-.57l1.07-.72s.32-.38.71-.86c.64-.76,1.04-.91,1.21-1.14.17-.23.56-2.84.93-3.36.5-.7.51-1.73.5-2.65" style="fill:#fff;"/></g></svg>